NewsreaderDisplay-MediumItalic.ufo
<glyph name="exclam" format="2">
	<unicode hex="0021"/>
	<advance width="530.8"/>
	<outline>
		<contour>
			<point x="665.4" y="1324.8" type="line" smooth="yes"/>
			<point x="688.3667474873" y="1408.8919293339"/>
			<point x="618" y="1452"/>
			<point x="538.4" y="1452" type="curve" smooth="yes"/>
			<point x="456" y="1452"/>
			<point x="380.6415474617" y="1408.0850292504"/>
			<point x="357.8" y="1324.8" type="curve" smooth="yes"/>
			<point x="350.6" y="1300" type="line" smooth="yes"/>
			<point x="334.4" y="1241"/>
			<point x="345.2" y="1002.4"/>
			<point x="237.2" y="481" type="curve"/>
			<point x="270.4" y="481" type="line"/>
			<point x="469" y="968.8"/>
			<point x="629.6" y="1196.6"/>
			<point x="658.2" y="1300" type="curve" smooth="yes"/>
		</contour>
		<contour>
			<point x="174.8" y="286.4" type="curve" smooth="yes"/>
			<point x="72" y="286.4"/>
			<point x="-6.8" y="206.4"/>
			<point x="-6.8" y="103.6" type="curve" smooth="yes"/>
			<point x="-6.8" y="30"/>
			<point x="43.8" y="-20"/>
			<point x="122" y="-20" type="curve" smooth="yes"/>
			<point x="224.8" y="-20"/>
			<point x="303.6" y="60"/>
			<point x="303.6" y="162" type="curve" smooth="yes"/>
			<point x="303.6" y="236.4"/>
			<point x="253" y="286.4"/>
		</contour>
	</outline>
</glyph>
<glyph name="ampersand" format="2">
	<unicode hex="0026"/>
	<advance width="1431.8"/>
	<outline>
		<contour>
			<point x="965.6" y="248.4" type="line"/>
			<point x="1098.4" y="389.6"/>
			<point x="1216.8" y="562.6"/>
			<point x="1328.6" y="812.4" type="curve"/>
			<point x="1500.4" y="850.8" type="line"/>
			<point x="1507.4" y="874" type="line"/>
			<point x="1066.6" y="874" type="line"/>
			<point x="1059.6" y="850.8" type="line"/>
			<point x="1212" y="812.4" type="line"/>
			<point x="1132.4" y="548.4"/>
			<point x="1035.8" y="371.6"/>
			<point x="935.6" y="268.8" type="curve"/>
			<point x="874" y="217.2" type="line"/>
			<point x="771.4" y="134.4"/>
			<point x="670.8" y="119.6"/>
			<point x="573" y="119.6" type="curve" smooth="yes"/>
			<point x="389.2" y="119.6"/>
			<point x="275.4" y="227.2"/>
			<point x="275.4" y="406.2" type="curve" smooth="yes"/>
			<point x="275.4" y="562"/>
			<point x="333.6" y="677.8"/>
			<point x="546.6" y="775.2" type="curve"/>
			<point x="697.4" y="836" type="line"/>
			<point x="1038.8" y="976.2"/>
			<point x="1113.8" y="1095.4"/>
			<point x="1113.8" y="1231.2" type="curve" smooth="yes"/>
			<point x="1113.8" y="1358"/>
			<point x="1019" y="1452"/>
			<point x="821.6" y="1452" type="curve" smooth="yes"/>
			<point x="559.8" y="1452"/>
			<point x="409" y="1292.6"/>
			<point x="409" y="1073.2" type="curve" smooth="yes"/>
			<point x="409" y="990.8"/>
			<point x="429.6" y="897"/>
			<point x="479" y="807.2" type="curve" smooth="yes"/>
			<point x="919.2" y="0" type="line"/>
			<point x="1294.4" y="0" type="line"/>
			<point x="1301.2" y="20.8" type="line"/>
			<point x="1137.2" y="67" type="line"/>
			<point x="660" y="921.2" type="line" smooth="yes"/>
			<point x="610.2" y="1010.4"/>
			<point x="588.4" y="1096"/>
			<point x="588.4" y="1171" type="curve" smooth="yes"/>
			<point x="588.4" y="1311.4"/>
			<point x="672" y="1405.4"/>
			<point x="803.2" y="1405.4" type="curve" smooth="yes"/>
			<point x="899.2" y="1405.4"/>
			<point x="941.6" y="1351.6"/>
			<point x="941.6" y="1257" type="curve" smooth="yes"/>
			<point x="941.6" y="1127.8"/>
			<point x="888.2" y="995.8"/>
			<point x="672.8" y="857" type="curve"/>
			<point x="526" y="797" type="line"/>
			<point x="160.4" y="658"/>
			<point x="60.8" y="507.4"/>
			<point x="60.8" y="309.2" type="curve" smooth="yes"/>
			<point x="60.8" y="128"/>
			<point x="185.8" y="-22"/>
			<point x="439.8" y="-22" type="curve" smooth="yes"/>
			<point x="591.8" y="-22"/>
			<point x="736" y="38.4"/>
			<point x="898.4" y="195.4" type="curve"/>
		</contour>
	</outline>
</glyph>
<glyph name="quotesingle" format="2">
  <advance width="383.20000000000005"/>
  <unicode hex="0027"/>
  <outline>
    <contour>
      <point x="283.4" y="911.2" type="line"/>
      <point x="315.6" y="911.2" type="line"/>
      <point x="579.8" y="1394.8" type="line"/>
      <point x="590.2" y="1430.0" type="line"/>
      <point x="341.20000000000005" y="1430.0" type="line"/>
      <point x="330.0" y="1394.8" type="line"/>
    </contour>
  </outline>
</glyph>
<glyph name="parenleft" format="2">
  <advance width="543.0"/>
  <unicode hex="0028"/>
  <outline>
    <contour>
      <point x="780.0" y="1465.8" type="curve"/>
      <point x="759.6" y="1486.0" type="line"/>
      <point x="190.4" y="947.2"/>
      <point x="69.8" y="671.6"/>
      <point x="69.8" y="369.4" type="curve" smooth="yes"/>
      <point x="69.8" y="193.4"/>
      <point x="126.4" y="23.4"/>
      <point x="230.2" y="-246.0" type="curve"/>
      <point x="258.40000000000003" y="-236.4" type="line"/>
      <point x="218.6" y="-67.8"/>
      <point x="205.6" y="56.8"/>
      <point x="205.6" y="226.2" type="curve" smooth="yes"/>
      <point x="205.6" y="576.4"/>
      <point x="313.20000000000005" y="928.0"/>
    </contour>
  </outline>
</glyph>
<glyph name="parenright" format="2">
	<unicode hex="0029"/>
	<advance width="542.8"/>
	<outline>
		<contour>
			<point x="-172.2" y="-225.8" type="curve"/>
			<point x="-151.8" y="-246" type="line"/>
			<point x="417.4" y="292.8"/>
			<point x="538" y="568.4"/>
			<point x="538" y="870.6" type="curve" smooth="yes"/>
			<point x="538" y="1046.6"/>
			<point x="481.4" y="1216.6"/>
			<point x="377.6" y="1486" type="curve"/>
			<point x="349.4" y="1476.4" type="line"/>
			<point x="389.2" y="1307.8"/>
			<point x="402.2" y="1183.2"/>
			<point x="402.2" y="1013.8" type="curve" smooth="yes"/>
			<point x="402.2" y="663.6"/>
			<point x="294.6" y="312"/>
		</contour>
	</outline>
</glyph>
<glyph name="asterisk" format="2">
	<unicode hex="002A"/>
	<advance width="789"/>
	<outline>
		<contour>
			<point x="718.4" y="856.8" type="line"/>
			<point x="657.8" y="1097.6" type="line"/>
			<point x="897.8" y="1155.2" type="line"/>
			<point x="895.8" y="1182.4" type="line"/>
			<point x="650" y="1198.8" type="line"/>
			<point x="675.2" y="1447" type="line"/>
			<point x="648.4" y="1454.2" type="line"/>
			<point x="552.4" y="1223" type="line"/>
			<point x="322.6" y="1322" type="line"/>
			<point x="307.4" y="1296.8" type="line"/>
			<point x="498.6" y="1137.2" type="line"/>
			<point x="334.8" y="950.2" type="line"/>
			<point x="353.6" y="929.6" type="line"/>
			<point x="564.4" y="1059.2" type="line"/>
			<point x="693.6" y="847" type="line"/>
		</contour>
	</outline>
</glyph>
<glyph name="plus" format="2">
  <advance width="1150"/>
  <unicode hex="002B"/>
  <outline>
    <contour>
      <point x="412.2" y="101.0" type="line"/>
      <point x="485.79999999999995" y="101.0" type="line"/>
      <point x="737.8" y="923.0" type="line"/>
      <point x="664.1999999999999" y="923.0" type="line"/>
    </contour>
    <contour>
      <point x="175.0" y="548.0" type="line"/>
      <point x="153.0" y="476.0" type="line"/>
      <point x="975.0" y="476.0" type="line"/>
      <point x="997.0" y="548.0" type="line"/>
    </contour>
  </outline>
</glyph>
<glyph name="comma" format="2">
	<unicode hex="002C"/>
	<advance width="471.4"/>
	<outline>
		<contour>
			<point x="-150" y="-298.6" type="curve"/>
			<point x="-133.8" y="-326.4" type="line"/>
			<point x="159.6" y="-156.4"/>
			<point x="285" y="23"/>
			<point x="285" y="155.4" type="curve" smooth="yes"/>
			<point x="285" y="230.4"/>
			<point x="235.2" y="276.8"/>
			<point x="158.8" y="276.8" type="curve" smooth="yes"/>
			<point x="56.8" y="276.8"/>
			<point x="-10.8" y="198.4"/>
			<point x="-10.8" y="129.2" type="curve" smooth="yes"/>
			<point x="-10.8" y="98.4"/>
			<point x="88.4" y="64"/>
			<point x="88.4" y="-16.8" type="curve" smooth="yes"/>
			<point x="88.4" y="-88"/>
			<point x="21.4" y="-189.6"/>
		</contour>
	</outline>
</glyph>
<glyph name="hyphen" format="2">
  <advance width="633.6"/>
  <unicode hex="002D"/>
  <outline>
    <contour>
      <point x="139.8" y="582.0" type="line"/>
      <point x="100.4" y="453.2" type="line"/>
      <point x="496.4" y="453.2" type="line"/>
      <point x="536.0" y="582.0" type="line"/>
    </contour>
  </outline>
</glyph>
<glyph name="period" format="2">
	<unicode hex="002E"/>
	<advance width="473.6"/>
	<outline>
		<contour>
			<point x="167.6" y="285.6" type="curve" smooth="yes"/>
			<point x="64.8" y="285.6"/>
			<point x="-14" y="205.6"/>
			<point x="-14" y="103.6" type="curve" smooth="yes"/>
			<point x="-14" y="30"/>
			<point x="36.6" y="-20"/>
			<point x="114.8" y="-20" type="curve" smooth="yes"/>
			<point x="217.6" y="-20"/>
			<point x="296.4" y="60"/>
			<point x="296.4" y="162" type="curve" smooth="yes"/>
			<point x="296.4" y="235.6"/>
			<point x="245.8" y="285.6"/>
		</contour>
	</outline>
</glyph>
<glyph name="slash" format="2">
	<unicode hex="002F"/>
	<advance width="807.4"/>
	<outline>
		<contour>
			<point x="-73.6" y="0" type="line"/>
			<point x="2" y="0" type="line"/>
			<point x="1007" y="1430" type="line"/>
			<point x="931.4" y="1430" type="line"/>
		</contour>
	</outline>
</glyph>
<glyph name="zero" format="2">
	<unicode hex="0030"/>
	<advance width="1240"/>
	<outline>
		<contour>
			<point x="317" y="308.6" type="curve" smooth="yes"/>
			<point x="317" y="737.2"/>
			<point x="590.4" y="1402.6"/>
			<point x="893.4" y="1402.6" type="curve" smooth="yes"/>
			<point x="997" y="1402.6"/>
			<point x="1046.2" y="1301"/>
			<point x="1046.2" y="1121.4" type="curve" smooth="yes"/>
			<point x="1046.2" y="692.8"/>
			<point x="772.8" y="27.4"/>
			<point x="469.8" y="27.4" type="curve" smooth="yes"/>
			<point x="366.2" y="27.4"/>
			<point x="317" y="129"/>
		</contour>
		<contour>
			<point x="894.8" y="1452" type="curve" smooth="yes"/>
			<point x="424" y="1452"/>
			<point x="112.4" y="895.6"/>
			<point x="112.4" y="427.6" type="curve" smooth="yes"/>
			<point x="112.4" y="149"/>
			<point x="248.8" y="-22"/>
			<point x="468.4" y="-22" type="curve" smooth="yes"/>
			<point x="939.2" y="-22"/>
			<point x="1250.8" y="534.4"/>
			<point x="1250.8" y="1002.4" type="curve" smooth="yes"/>
			<point x="1250.8" y="1281"/>
			<point x="1114.4" y="1452"/>
		</contour>
	</outline>
</glyph>
<glyph name="one" format="2">
	<unicode hex="0031"/>
	<advance width="1240"/>
	<outline>
		<contour>
			<point x="437.4" y="72.8" type="line"/>
			<point x="125.6" y="21" type="line"/>
			<point x="117" y="0" type="line"/>
			<point x="959.4" y="0" type="line"/>
			<point x="969" y="21" type="line"/>
			<point x="676.2" y="73" type="line"/>
			<point x="1095" y="1446" type="line"/>
			<point x="1022.4" y="1446" type="line"/>
			<point x="348.4" y="1126.6" type="line"/>
			<point x="358.2" y="1101.6" type="line"/>
			<point x="874.6" y="1242.6" type="line"/>
			<point x="810.6" y="1296.2" type="line"/>
		</contour>
	</outline>
</glyph>
<glyph name="colon" format="2">
  <advance width="549"/>
  <unicode hex="003A"/>
  <outline>
    <contour>
      <point x="184.39999999999998" y="285.6" type="curve" smooth="yes"/>
      <point x="81.6" y="285.6"/>
      <point x="2.7999999999999994" y="205.6"/>
      <point x="2.7999999999999994" y="103.60000000000001" type="curve" smooth="yes"/>
      <point x="2.7999999999999994" y="30.0"/>
      <point x="53.4" y="-20.0"/>
      <point x="131.6" y="-20.0" type="curve" smooth="yes"/>
      <point x="234.4" y="-20.0"/>
      <point x="313.2" y="60.0"/>
      <point x="313.2" y="162.0" type="curve" smooth="yes"/>
      <point x="313.2" y="235.6"/>
      <point x="262.6" y="285.6"/>
    </contour>
    <contour>
      <point x="416.2" y="1043.1999999999998" type="curve" smooth="yes"/>
      <point x="313.4" y="1043.1999999999998"/>
      <point x="234.6" y="963.2"/>
      <point x="234.6" y="861.2" type="curve" smooth="yes"/>
      <point x="234.6" y="787.6"/>
      <point x="285.2" y="737.6"/>
      <point x="363.40000000000003" y="737.6" type="curve" smooth="yes"/>
      <point x="466.2" y="737.6"/>
      <point x="545.0" y="817.6"/>
      <point x="545.0" y="919.6" type="curve" smooth="yes"/>
      <point x="545.0" y="993.1999999999999"/>
      <point x="494.4" y="1043.1999999999998"/>
    </contour>
  </outline>
</glyph>
<glyph name="semicolon" format="2">
	<unicode hex="003B"/>
	<advance width="551.8"/>
	<outline>
		<contour>
			<point x="-125.4" y="-298.6" type="curve"/>
			<point x="-109.2" y="-326.4" type="line"/>
			<point x="184.2" y="-156.4"/>
			<point x="309.6" y="23"/>
			<point x="309.6" y="155.4" type="curve" smooth="yes"/>
			<point x="309.6" y="230.4"/>
			<point x="259.8" y="276.8"/>
			<point x="183.4" y="276.8" type="curve" smooth="yes"/>
			<point x="81.4" y="276.8"/>
			<point x="13.8" y="198.4"/>
			<point x="13.8" y="129.2" type="curve" smooth="yes"/>
			<point x="13.8" y="98.4"/>
			<point x="113" y="64"/>
			<point x="113" y="-16.8" type="curve" smooth="yes"/>
			<point x="113" y="-88"/>
			<point x="46" y="-189.6"/>
		</contour>
		<contour>
			<point x="414" y="1043.2" type="curve" smooth="yes"/>
			<point x="311.2" y="1043.2"/>
			<point x="232.4" y="963.2"/>
			<point x="232.4" y="861.2" type="curve" smooth="yes"/>
			<point x="232.4" y="787.6"/>
			<point x="283" y="737.6"/>
			<point x="361.2" y="737.6" type="curve" smooth="yes"/>
			<point x="464" y="737.6"/>
			<point x="542.8" y="817.6"/>
			<point x="542.8" y="919.6" type="curve" smooth="yes"/>
			<point x="542.8" y="993.2"/>
			<point x="492.2" y="1043.2"/>
		</contour>
	</outline>
</glyph>
<glyph name="less" format="2">
  <advance width="1150.0"/>
  <unicode hex="003C"/>
  <guideline x="1101.2" y="909.0" angle="175.33032199064394" identifier="rrevOd4Prw"/>
  <outline>
    <contour>
      <point x="184.0" y="491.2" type="line"/>
      <point x="1033.6000000000001" y="686.1999999999999" type="line"/>
      <point x="1058.3999999999999" y="768.5999999999999" type="line"/>
      <point x="171.20000000000002" y="539.0" type="line"/>
      <point x="154.0" y="482.2" type="line"/>
      <point x="900.8000000000001" y="251.4" type="line"/>
      <point x="923.6" y="326.6" type="line"/>
      <point x="194.0" y="526.4" type="line"/>
    </contour>
  </outline>
</glyph>
<glyph name="greater" format="2">
	<unicode hex="003E"/>
	<advance width="1150"/>
	<outline>
		<contour>
			<point x="965" y="532.8" type="line"/>
			<point x="115.4" y="337.8" type="line"/>
			<point x="90.6" y="255.4" type="line"/>
			<point x="977.8" y="485" type="line"/>
			<point x="995" y="541.8" type="line"/>
			<point x="248.2" y="772.6" type="line"/>
			<point x="225.4" y="697.4" type="line"/>
			<point x="955" y="497.6" type="line"/>
		</contour>
	</outline>
</glyph>
<glyph name="question" format="2">
	<unicode hex="003F"/>
	<advance width="988"/>
	<outline>
		<contour>
			<point x="334.4" y="286.4" type="curve" smooth="yes"/>
			<point x="231.6" y="286.4"/>
			<point x="152.8" y="206.4"/>
			<point x="152.8" y="103.6" type="curve" smooth="yes"/>
			<point x="152.8" y="30"/>
			<point x="203.4" y="-20"/>
			<point x="281.6" y="-20" type="curve" smooth="yes"/>
			<point x="384.4" y="-20"/>
			<point x="463.2" y="60"/>
			<point x="463.2" y="162" type="curve" smooth="yes"/>
			<point x="463.2" y="236.4"/>
			<point x="412.6" y="286.4"/>
		</contour>
		<contour>
			<point x="580.6" y="1452" type="curve" smooth="yes"/>
			<point x="393.8" y="1452"/>
			<point x="303.4" y="1391"/>
			<point x="303.4" y="1312.8" type="curve" smooth="yes"/>
			<point x="303.4" y="1265"/>
			<point x="335.2" y="1230.8"/>
			<point x="377.2" y="1230.8" type="curve" smooth="yes"/>
			<point x="399" y="1230.8"/>
			<point x="529.6" y="1362.4"/>
			<point x="704.2" y="1362.4" type="curve" smooth="yes"/>
			<point x="852" y="1362.4"/>
			<point x="938.4" y="1273"/>
			<point x="938.4" y="1120.2" type="curve" smooth="yes"/>
			<point x="938.4" y="912.2"/>
			<point x="801.8" y="820.6"/>
			<point x="458" y="871.4" type="curve"/>
			<point x="370.8" y="481" type="line"/>
			<point x="405.4" y="481" type="line"/>
			<point x="548.6" y="818.4" type="line"/>
			<point x="459.2" y="684.4" type="line"/>
			<point x="850.8" y="630"/>
			<point x="1032.8" y="766.2"/>
			<point x="1032.8" y="1036.2" type="curve" smooth="yes"/>
			<point x="1032.8" y="1244.8"/>
			<point x="866.6" y="1452"/>
		</contour>
	</outline>
</glyph>
<glyph name="at" format="2">
  <advance width="1804"/>
  <unicode hex="0040"/>
  <outline>
    <contour>
      <point x="1353.4" y="280.8" type="curve" smooth="yes"/>
      <point x="1290.3999999999999" y="280.8"/>
      <point x="1252.1999999999998" y="314.8"/>
      <point x="1252.1999999999998" y="395.59999999999997" type="curve" smooth="yes"/>
      <point x="1252.1999999999998" y="435.8"/>
      <point x="1260.8" y="487.8"/>
      <point x="1280.6" y="553.5999999999999" type="curve" smooth="yes"/>
      <point x="1422.1999999999998" y="1039.0" type="line"/>
      <point x="1217.0" y="1039.0" type="line"/>
      <point x="1190.8" y="951.1999999999999" type="line"/>
      <point x="1088.0" y="626.6" type="line" smooth="yes"/>
      <point x="972.0" y="437.0"/>
      <point x="895.8000000000001" y="381.59999999999997"/>
      <point x="832.6" y="381.59999999999997" type="curve" smooth="yes"/>
      <point x="785.0" y="381.59999999999997"/>
      <point x="766.1999999999999" y="411.40000000000003"/>
      <point x="766.1999999999999" y="482.0" type="curve" smooth="yes"/>
      <point x="766.1999999999999" y="660.0"/>
      <point x="931.8" y="983.0"/>
      <point x="1092.2" y="983.0" type="curve" smooth="yes"/>
      <point x="1150.2" y="983.0"/>
      <point x="1185.8" y="953.4000000000001"/>
      <point x="1222.4" y="877.0" type="curve"/>
      <point x="1235.2" y="896.8000000000001" type="line"/>
      <point x="1194.8" y="1009.6"/>
      <point x="1117.6000000000001" y="1058.8"/>
      <point x="1037.4" y="1058.8" type="curve" smooth="yes"/>
      <point x="795.8" y="1058.8"/>
      <point x="546.2" y="693.2"/>
      <point x="546.2" y="434.6" type="curve" smooth="yes"/>
      <point x="546.2" y="309.8"/>
      <point x="597.1999999999999" y="241.79999999999998"/>
      <point x="716.8" y="241.79999999999998" type="curve" smooth="yes"/>
      <point x="822.8000000000001" y="241.79999999999998"/>
      <point x="939.4" y="308.8"/>
      <point x="1119.0" y="622.8" type="curve"/>
      <point x="1096.8" y="625.4" type="line"/>
      <point x="1076.1999999999998" y="531.5999999999999" type="line" smooth="yes"/>
      <point x="1069.2" y="499.40000000000003"/>
      <point x="1064.6000000000001" y="468.59999999999997"/>
      <point x="1064.6000000000001" y="441.59999999999997" type="curve" smooth="yes"/>
      <point x="1064.6000000000001" y="308.79999999999995"/>
      <point x="1150.8000000000002" y="241.8"/>
      <point x="1300.8" y="241.8" type="curve" smooth="yes"/>
      <point x="1625.0488444810583" y="241.8"/>
      <point x="1828.0" y="550.0"/>
      <point x="1828.0" y="890.6" type="curve" smooth="yes"/>
      <point x="1828.0" y="1221.4"/>
      <point x="1567.8328358208955" y="1455.2"/>
      <point x="1142.2" y="1455.2" type="curve" smooth="yes"/>
      <point x="555.1433746425167" y="1455.2"/>
      <point x="94.8" y="971.0651162790699"/>
      <point x="94.8" y="441.2" type="curve" smooth="yes"/>
      <point x="94.8" y="20.74000000000001"/>
      <point x="402.6" y="-218.0"/>
      <point x="850.4" y="-218.0" type="curve" smooth="yes"/>
      <point x="1088.4" y="-218.0"/>
      <point x="1327.0" y="-145.20000000000002"/>
      <point x="1517.8000000000002" y="-24.200000000000003" type="curve"/>
      <point x="1503.1999999999998" y="5.8" type="line"/>
      <point x="1289.0" y="-120.4"/>
      <point x="1065.8" y="-166.20000000000002"/>
      <point x="884.4" y="-166.20000000000002" type="curve" smooth="yes"/>
      <point x="480.4" y="-166.20000000000002"/>
      <point x="223.0" y="67.39999999999999"/>
      <point x="223.0" y="453.20000000000005" type="curve" smooth="yes"/>
      <point x="223.0" y="981.8000000000001"/>
      <point x="604.1735644637054" y="1408.4"/>
      <point x="1130.2" y="1408.4" type="curve" smooth="yes"/>
      <point x="1499.6148020654043" y="1408.4"/>
      <point x="1717.6" y="1178.0"/>
      <point x="1717.6" y="871.8" type="curve" smooth="yes"/>
      <point x="1717.6" y="527.0"/>
      <point x="1529.1825913660798" y="280.8"/>
    </contour>
  </outline>
</glyph>
<glyph name="A" format="2">
	<unicode hex="0041"/>
	<advance width="1434.8"/>
	<outline>
		<contour>
			<point x="366.2" y="535" type="line"/>
			<point x="1040.8" y="535" type="line"/>
			<point x="1059.8" y="595.4" type="line"/>
			<point x="386" y="595.4" type="line"/>
		</contour>
		<contour>
			<point x="1192.4" y="64.4" type="line"/>
			<point x="1018" y="1446" type="line"/>
			<point x="932" y="1446" type="line"/>
			<point x="10" y="70.6" type="line"/>
			<point x="-158.4" y="21.4" type="line"/>
			<point x="-165.2" y="0" type="line"/>
			<point x="229.4" y="0" type="line"/>
			<point x="236.2" y="21.4" type="line"/>
			<point x="80.8" y="67.6" type="line"/>
			<point x="844" y="1217.6" type="line"/>
			<point x="819" y="1217.6" type="line"/>
			<point x="954.2" y="61.8" type="line"/>
			<point x="794" y="21.4" type="line"/>
			<point x="787" y="0" type="line"/>
			<point x="1325.8" y="0" type="line"/>
			<point x="1332.6" y="21.4" type="line"/>
		</contour>
	</outline>
	<anchor name="UCtop" x="946.8" y="1430"/>
	<anchor name="bottom" x="520.8" y="0"/>
	<anchor name="right" x="1209.6" y="0"/>
</glyph>
<glyph name="B" format="2">
	<unicode hex="0042"/>
	<advance width="1319.4"/>
	<outline>
		<contour>
			<point x="534.2" y="1376" type="line"/>
			<point x="841.4" y="1376" type="line" smooth="yes"/>
			<point x="1013.2" y="1376"/>
			<point x="1081.8" y="1308.6"/>
			<point x="1081.8" y="1183" type="curve" smooth="yes"/>
			<point x="1081.8" y="971"/>
			<point x="958.8" y="789"/>
			<point x="737.4" y="789" type="curve" smooth="yes"/>
			<point x="358.8" y="789" type="line"/>
			<point x="361.8" y="735" type="line"/>
			<point x="724.8" y="735" type="line" smooth="yes"/>
			<point x="899.8" y="735"/>
			<point x="970.2" y="652.2"/>
			<point x="970.2" y="521.4" type="curve" smooth="yes"/>
			<point x="970.2" y="235"/>
			<point x="807.2" y="54"/>
			<point x="520.8" y="54" type="curve" smooth="yes"/>
			<point x="158" y="54" type="line"/>
			<point x="217.2" y="0" type="line"/>
			<point x="549.4" y="0" type="line" smooth="yes"/>
			<point x="973.4" y="0"/>
			<point x="1216.6" y="215.6"/>
			<point x="1216.6" y="468.6" type="curve" smooth="yes"/>
			<point x="1216.6" y="623"/>
			<point x="1106" y="753"/>
			<point x="859.4" y="772.8" type="curve"/>
			<point x="831.4" y="759.8" type="line"/>
			<point x="1151.3394946909" y="788.6775754457"/>
			<point x="1316.4" y="956.6"/>
			<point x="1316.4" y="1157.6" type="curve" smooth="yes"/>
			<point x="1316.4" y="1306.8"/>
			<point x="1207.6" y="1430"/>
			<point x="932.4" y="1430" type="curve" smooth="yes"/>
			<point x="653.2" y="1430" type="line"/>
		</contour>
		<contour>
			<point x="493.8" y="1366.6" type="line"/>
			<point x="96.2" y="64.2" type="line"/>
			<point x="-78.4" y="21.4" type="line"/>
			<point x="-84.6" y="0" type="line"/>
			<point x="325" y="0" type="line"/>
			<point x="760.6" y="1430" type="line"/>
			<point x="342.4" y="1430" type="line"/>
			<point x="336.2" y="1408.6" type="line"/>
		</contour>
	</outline>
	<anchor name="UCtop" x="894.8" y="1430"/>
	<anchor name="bottom" x="530.8" y="0"/>
</glyph>
<glyph name="C" format="2">
	<unicode hex="0043"/>
	<advance width="1392.8"/>
	<outline>
		<contour>
			<point x="1073.4" y="136.4" type="line"/>
			<point x="959.6" y="55.8"/>
			<point x="836.2" y="27.4"/>
			<point x="727.6" y="27.4" type="curve" smooth="yes"/>
			<point x="513" y="27.4"/>
			<point x="365.6" y="177.2"/>
			<point x="365.6" y="497.6" type="curve" smooth="yes"/>
			<point x="365.6" y="986.2"/>
			<point x="652.2" y="1398.8"/>
			<point x="1079.8" y="1398.8" type="curve" smooth="yes"/>
			<point x="1191.8" y="1398.8"/>
			<point x="1278.6" y="1370.2"/>
			<point x="1357.6" y="1269.6" type="curve"/>
			<point x="1309.2" y="1358" type="line"/>
			<point x="1405.4" y="981.2" type="line"/>
			<point x="1433.4" y="981.2" type="line"/>
			<point x="1478.6" y="1489.2" type="line"/>
			<point x="1465.2" y="1489.2" type="line"/>
			<point x="1314.8" y="1397.4" type="line"/>
			<point x="1429.4" y="1410.6" type="line"/>
			<point x="1325.6" y="1438.8"/>
			<point x="1227.4" y="1452"/>
			<point x="1116" y="1452" type="curve" smooth="yes"/>
			<point x="564" y="1452"/>
			<point x="132.2" y="1061"/>
			<point x="132.2" y="520.6" type="curve" smooth="yes"/>
			<point x="132.2" y="188"/>
			<point x="345.4" y="-22"/>
			<point x="717.2" y="-22" type="curve" smooth="yes"/>
			<point x="852.2" y="-22"/>
			<point x="979" y="-7.8"/>
			<point x="1126.8" y="30.4" type="curve"/>
			<point x="1302.8" y="372.2" type="line"/>
			<point x="1276.2" y="372.2" type="line"/>
			<point x="982.2" y="68.6" type="line"/>
		</contour>
	</outline>
	<anchor name="UCtop" x="998" y="1430"/>
	<anchor name="bottom" x="648" y="0"/>
	<anchor name="right" x="1127.6" y="0"/>
</glyph>
<glyph name="D" format="2">
	<unicode hex="0044"/>
	<advance width="1517"/>
	<outline>
		<contour>
			<point x="538.4" y="60.4" type="curve" smooth="yes"/>
			<point x="204.4" y="60.4" type="line"/>
			<point x="186.6" y="0" type="line"/>
			<point x="517.2" y="0" type="line" smooth="yes"/>
			<point x="1141.8" y="0"/>
			<point x="1505.4" y="413.4"/>
			<point x="1505.4" y="893.2" type="curve" smooth="yes"/>
			<point x="1505.4" y="1241"/>
			<point x="1243.8" y="1430"/>
			<point x="862" y="1430" type="curve" smooth="yes"/>
			<point x="624.6" y="1430" type="line"/>
			<point x="625.2" y="1369.6" type="line"/>
			<point x="849.6" y="1369.6" type="line" smooth="yes"/>
			<point x="1120.4" y="1369.6"/>
			<point x="1263.6" y="1222.9945578231"/>
			<point x="1263.6" y="963.8" type="curve" smooth="yes"/>
			<point x="1263.6" y="418.7632698768"/>
			<point x="938.2" y="60.4"/>
		</contour>
		<contour>
			<point x="493.8" y="1366.6" type="line"/>
			<point x="96.2" y="64.2" type="line"/>
			<point x="-78.4" y="21.4" type="line"/>
			<point x="-84.6" y="0" type="line"/>
			<point x="325" y="0" type="line"/>
			<point x="760.6" y="1430" type="line"/>
			<point x="342.4" y="1430" type="line"/>
			<point x="336.2" y="1408.6" type="line"/>
		</contour>
	</outline>
	<anchor name="UCtop" x="1037.4" y="1430"/>
	<anchor name="bottom" x="639.4" y="0"/>
</glyph>
<glyph name="E" format="2">
	<unicode hex="0045"/>
	<advance width="1324"/>
	<outline>
		<contour>
			<point x="493.8" y="1366.6" type="line"/>
			<point x="96.2" y="64.2" type="line"/>
			<point x="-78.4" y="21.4" type="line"/>
			<point x="-84.6" y="0" type="line"/>
			<point x="325" y="0" type="line"/>
			<point x="760.6" y="1430" type="line"/>
			<point x="342.4" y="1430" type="line"/>
			<point x="336.2" y="1408.6" type="line"/>
		</contour>
		<contour>
			<point x="1271" y="1391.8" type="line"/>
			<point x="1348" y="1021.6" type="line"/>
			<point x="1376" y="1021.6" type="line"/>
			<point x="1447.6" y="1490.6" type="line"/>
			<point x="1436.8" y="1490.6" type="line"/>
			<point x="1281.8" y="1430" type="line"/>
			<point x="604" y="1430" type="line"/>
			<point x="583" y="1369.6" type="line"/>
			<point x="1396.8" y="1369.6" type="line"/>
		</contour>
		<contour>
			<point x="992.2" y="-59.4" type="line"/>
			<point x="1004" y="-59.4" type="line"/>
			<point x="1246.2" y="385.8" type="line"/>
			<point x="1222.2" y="402.6" type="line"/>
			<point x="846" y="41.4" type="line"/>
			<point x="1028.4" y="60.4" type="line"/>
			<point x="188.4" y="60.4" type="line"/>
			<point x="167" y="0" type="line"/>
			<point x="862.8" y="0" type="line"/>
		</contour>
		<contour>
			<point x="899.8" y="455" type="line"/>
			<point x="956.8" y="746" type="line"/>
			<point x="1078.8" y="1039" type="line"/>
			<point x="1054.2" y="1039" type="line"/>
			<point x="872.6" y="787.8" type="line"/>
			<point x="432.2" y="758" type="line"/>
			<point x="422.2" y="735" type="line"/>
			<point x="854.8" y="709.2" type="line"/>
			<point x="875.2" y="455" type="line"/>
		</contour>
	</outline>
	<anchor name="UCtop" x="924.4" y="1430"/>
	<anchor name="right" x="1004.6" y="0"/>
	<anchor name="bottom" x="556.4" y="0"/>
</glyph>
<glyph name="F" format="2">
	<unicode hex="0046"/>
	<advance width="1193"/>
	<outline>
		<contour>
			<point x="1073.2" y="1007" type="line"/>
			<point x="1048.6" y="1007" type="line"/>
			<point x="867" y="755.8" type="line"/>
			<point x="426.6" y="726" type="line"/>
			<point x="416.6" y="703" type="line"/>
			<point x="849.2" y="677.2" type="line"/>
			<point x="869.6" y="423" type="line"/>
			<point x="894.2" y="423" type="line"/>
			<point x="951.2" y="714" type="line"/>
		</contour>
		<contour>
			<point x="1316.2" y="1021.6" type="line"/>
			<point x="1387.8" y="1490.6" type="line"/>
			<point x="1377" y="1490.6" type="line"/>
			<point x="1222" y="1430" type="line"/>
			<point x="604" y="1430" type="line"/>
			<point x="583" y="1369.6" type="line"/>
			<point x="1337" y="1369.6" type="line"/>
			<point x="1211.2" y="1391.8" type="line"/>
			<point x="1288.2" y="1021.6" type="line"/>
		</contour>
		<contour>
			<point x="344" y="63.4" type="line"/>
			<point x="760.6" y="1430" type="line"/>
			<point x="342.4" y="1430" type="line"/>
			<point x="336.2" y="1408.6" type="line"/>
			<point x="493.8" y="1366.6" type="line"/>
			<point x="96.2" y="64.2" type="line"/>
			<point x="-78.4" y="21.4" type="line"/>
			<point x="-84.6" y="0" type="line"/>
			<point x="495.4" y="0" type="line"/>
			<point x="500.6" y="21.4" type="line"/>
		</contour>
	</outline>
	<anchor name="UCtop" x="890.6" y="1430"/>
	<anchor name="bottom" x="213.4" y="0"/>
</glyph>
<glyph name="G" format="2">
	<unicode hex="0047"/>
	<advance width="1509.8"/>
	<outline>
		<contour>
			<point x="743.4" y="26" type="curve" smooth="yes"/>
			<point x="502.4" y="26"/>
			<point x="365.4" y="184.2"/>
			<point x="365.4" y="497.6" type="curve" smooth="yes"/>
			<point x="365.4" y="986.2"/>
			<point x="647.8" y="1398.8"/>
			<point x="1070.4" y="1398.8" type="curve" smooth="yes"/>
			<point x="1182.4" y="1398.8"/>
			<point x="1269.2" y="1370.2"/>
			<point x="1348.2" y="1269.6" type="curve"/>
			<point x="1299.8" y="1358" type="line"/>
			<point x="1396" y="981.2" type="line"/>
			<point x="1424" y="981.2" type="line"/>
			<point x="1469.2" y="1489.2" type="line"/>
			<point x="1455.8" y="1489.2" type="line"/>
			<point x="1305.4" y="1397.4" type="line"/>
			<point x="1420" y="1410.6" type="line"/>
			<point x="1316.2" y="1438.8"/>
			<point x="1218" y="1452"/>
			<point x="1106.6" y="1452" type="curve" smooth="yes"/>
			<point x="559.6" y="1452"/>
			<point x="132" y="1061"/>
			<point x="132" y="520.6" type="curve" smooth="yes"/>
			<point x="132" y="188"/>
			<point x="370" y="-22"/>
			<point x="749.8" y="-22" type="curve" smooth="yes"/>
			<point x="923.4326086957" y="-22"/>
			<point x="1091.4" y="7"/>
			<point x="1326.4" y="78.2" type="curve"/>
			<point x="1334.6" y="103.4" type="line"/>
			<point x="1215" y="103.4" type="line"/>
			<point x="1358.6" y="578.2" type="line"/>
			<point x="1495.8" y="617.8" type="line"/>
			<point x="1503.4" y="639.8" type="line"/>
			<point x="946.2" y="639.8" type="line"/>
			<point x="938.6" y="617.8" type="line"/>
			<point x="1120.2" y="572.2" type="line"/>
			<point x="952.2" y="19.8" type="line"/>
			<point x="1024" y="90.2" type="line"/>
			<point x="925.2" y="38.4"/>
			<point x="834" y="26"/>
		</contour>
	</outline>
	<anchor name="UCtop" x="1008.6" y="1430"/>
	<anchor name="bottom" x="730.6" y="0"/>
</glyph>
<glyph name="H" format="2">
	<unicode hex="0048"/>
	<advance width="1620.2"/>
	<outline>
		<contour>
			<point x="400" y="710" type="line"/>
			<point x="1334" y="710" type="line"/>
			<point x="1355.6" y="770.4" type="line"/>
			<point x="420.6" y="770.4" type="line"/>
		</contour>
		<contour>
			<point x="493.8" y="1366.6" type="line"/>
			<point x="96.2" y="64.2" type="line"/>
			<point x="-78.4" y="21.4" type="line"/>
			<point x="-84.6" y="0" type="line"/>
			<point x="495.4" y="0" type="line"/>
			<point x="500.6" y="21.4" type="line"/>
			<point x="344" y="63.4" type="line"/>
			<point x="741.4" y="1365.8" type="line"/>
			<point x="916" y="1408.6" type="line"/>
			<point x="922.2" y="1430" type="line"/>
			<point x="342.4" y="1430" type="line"/>
			<point x="336.2" y="1408.6" type="line"/>
		</contour>
		<contour>
			<point x="1397.4" y="1366.6" type="line"/>
			<point x="999.8" y="64.2" type="line"/>
			<point x="825.2" y="21.4" type="line"/>
			<point x="819" y="0" type="line"/>
			<point x="1399" y="0" type="line"/>
			<point x="1405.2" y="21.4" type="line"/>
			<point x="1248.6" y="63.4" type="line"/>
			<point x="1646.2" y="1365.8" type="line"/>
			<point x="1819.8" y="1408.6" type="line"/>
			<point x="1826" y="1430" type="line"/>
			<point x="1246" y="1430" type="line"/>
			<point x="1240.8" y="1408.6" type="line"/>
		</contour>
	</outline>
	<anchor name="UCtop" x="1067.2" y="1430"/>
	<anchor name="bottom" x="681.2" y="0"/>
</glyph>
<glyph name="I" format="2">
	<unicode hex="0049"/>
	<advance width="715.6"/>
	<outline>
		<contour>
			<point x="493.8" y="1366.6" type="line"/>
			<point x="96.2" y="64.2" type="line"/>
			<point x="-78.4" y="21.4" type="line"/>
			<point x="-84.6" y="0" type="line"/>
			<point x="495.4" y="0" type="line"/>
			<point x="500.6" y="21.4" type="line"/>
			<point x="344" y="63.4" type="line"/>
			<point x="741.4" y="1365.8" type="line"/>
			<point x="916" y="1408.6" type="line"/>
			<point x="922.2" y="1430" type="line"/>
			<point x="342.4" y="1430" type="line"/>
			<point x="336.2" y="1408.6" type="line"/>
		</contour>
	</outline>
	<anchor name="UCtop" x="621.8" y="1430"/>
	<anchor name="right" x="323.4" y="0"/>
	<anchor name="bottom" x="197.4" y="0"/>
</glyph>
<glyph name="J" format="2">
  <advance width="820.2"/>
  <unicode hex="004A"/>
  <anchor x="762.8" y="1430.0" name="UCtop"/>
  <anchor x="229.0" y="0.0" name="bottom"/>
  <outline>
    <contour>
      <point x="624.0" y="535.4" type="curve" smooth="yes"/>
      <point x="877.2" y="1363.1999999999998" type="line"/>
      <point x="1052.0" y="1408.6" type="line"/>
      <point x="1058.2" y="1430.0" type="line"/>
      <point x="478.40000000000003" y="1430.0" type="line"/>
      <point x="472.20000000000005" y="1408.6" type="line"/>
      <point x="629.8000000000001" y="1366.6000000000001" type="line"/>
      <point x="283.79999999999995" y="235.0" type="line" smooth="yes"/>
      <point x="247.8" y="116.2"/>
      <point x="211.4" y="88.4"/>
      <point x="149.4" y="88.4" type="curve" smooth="yes"/>
      <point x="67.39999999999999" y="88.4"/>
      <point x="18.8" y="183.6"/>
      <point x="-14.799999999999999" y="183.6" type="curve" smooth="yes"/>
      <point x="-64.6" y="183.6"/>
      <point x="-113.39999999999999" y="140.2"/>
      <point x="-113.39999999999999" y="79.0" type="curve" smooth="yes"/>
      <point x="-113.39999999999999" y="20.8"/>
      <point x="-68.6" y="-20.400000000000002"/>
      <point x="22.6" y="-20.400000000000002" type="curve" smooth="yes"/>
      <point x="219.6" y="-20.400000000000002"/>
      <point x="520.0" y="197.4"/>
    </contour>
  </outline>
</glyph>
<glyph name="K" format="2">
	<unicode hex="004B"/>
	<advance width="1483.6"/>
	<outline>
		<contour>
			<point x="1235" y="64.6" type="line"/>
			<point x="754" y="883" type="line"/>
			<point x="690.2" y="805.4" type="line"/>
			<point x="1493.6" y="1366.6" type="line"/>
			<point x="1673.2" y="1408.6" type="line"/>
			<point x="1679" y="1430" type="line"/>
			<point x="1242.2" y="1430" type="line"/>
			<point x="1235.4" y="1408.6" type="line"/>
			<point x="1402" y="1365.4" type="line"/>
			<point x="583.6" y="787" type="line"/>
			<point x="487.2" y="787" type="line"/>
			<point x="465.2" y="726.6" type="line"/>
			<point x="563.6" y="726.6" type="line"/>
			<point x="948.8" y="61.4" type="line"/>
			<point x="790.4" y="21.4" type="line"/>
			<point x="783.6" y="0" type="line"/>
			<point x="1372.4" y="0" type="line"/>
			<point x="1379.2" y="21.4" type="line"/>
		</contour>
		<contour>
			<point x="493.8" y="1366.6" type="line"/>
			<point x="96.2" y="64.2" type="line"/>
			<point x="-78.4" y="21.4" type="line"/>
			<point x="-84.6" y="0" type="line"/>
			<point x="495.4" y="0" type="line"/>
			<point x="500.6" y="21.4" type="line"/>
			<point x="344" y="63.4" type="line"/>
			<point x="741.4" y="1365.8" type="line"/>
			<point x="916" y="1408.6" type="line"/>
			<point x="922.2" y="1430" type="line"/>
			<point x="342.4" y="1430" type="line"/>
			<point x="336.2" y="1408.6" type="line"/>
		</contour>
	</outline>
	<anchor name="UCtop" x="1027.8" y="1430"/>
	<anchor name="bottom" x="639.8" y="0"/>
</glyph>
<glyph name="L" format="2">
	<unicode hex="004C"/>
	<advance width="1227.8"/>
	<outline>
		<contour>
			<point x="741.4" y="1365.8" type="line"/>
			<point x="916" y="1408.6" type="line"/>
			<point x="922.2" y="1430" type="line"/>
			<point x="342.4" y="1430" type="line"/>
			<point x="336.2" y="1408.6" type="line"/>
			<point x="493.8" y="1366.6" type="line"/>
			<point x="96.2" y="64.2" type="line"/>
			<point x="-78.4" y="21.4" type="line"/>
			<point x="-84.6" y="0" type="line"/>
			<point x="325" y="0" type="line"/>
		</contour>
		<contour>
			<point x="768.8" y="41.4" type="line"/>
			<point x="855.2" y="60.4" type="line"/>
			<point x="183.2" y="60.4" type="line"/>
			<point x="161.8" y="0" type="line"/>
			<point x="785.6" y="0" type="line"/>
			<point x="915" y="-59.4" type="line"/>
			<point x="926.8" y="-59.4" type="line"/>
			<point x="1178.6" y="400.2" type="line"/>
			<point x="1154.6" y="417" type="line"/>
		</contour>
	</outline>
	<anchor name="UCtop" x="626.2" y="1430"/>
	<anchor name="right" x="949.6" y="1430"/>
	<anchor name="bottom" x="484" y="0"/>
	<anchor name="mid" x="1053.6" y="761"/>
</glyph>
<glyph name="M" format="2">
	<unicode hex="004D"/>
	<advance width="2000.8"/>
	<outline>
		<contour>
			<point x="599" y="1374.8" type="line"/>
			<point x="556.4" y="1341.8" type="line"/>
			<point x="712.4" y="-16" type="line"/>
			<point x="797.6" y="-16" type="line"/>
			<point x="1769.2" y="1397.4" type="line"/>
			<point x="1780.8" y="1430" type="line"/>
			<point x="1724.2" y="1430" type="line"/>
			<point x="877" y="196" type="line"/>
			<point x="928.8" y="204.4" type="line"/>
			<point x="790.8" y="1430" type="line"/>
			<point x="379.8" y="1430" type="line"/>
			<point x="374.6" y="1408.6" type="line"/>
			<point x="524.8" y="1339.4" type="line"/>
			<point x="72.2" y="64.4" type="line"/>
			<point x="-106.2" y="21.4" type="line"/>
			<point x="-111.8" y="0" type="line"/>
			<point x="304.4" y="0" type="line"/>
			<point x="310.6" y="21.4" type="line"/>
			<point x="135.6" y="65" type="line"/>
		</contour>
		<contour>
			<point x="1726.8" y="1430" type="line"/>
			<point x="1426.4" y="66.2" type="line"/>
			<point x="1246.8" y="21.4" type="line"/>
			<point x="1240.6" y="0" type="line"/>
			<point x="1817.4" y="0" type="line"/>
			<point x="1823.6" y="21.4" type="line"/>
			<point x="1672" y="65.4" type="line"/>
			<point x="1956.4" y="1365.8" type="line"/>
			<point x="2153" y="1408.6" type="line"/>
			<point x="2158.2" y="1430" type="line"/>
		</contour>
	</outline>
	<anchor name="UCtop" x="1233.8" y="1430"/>
	<anchor name="bottom" x="787.8" y="0"/>
</glyph>
<glyph name="N" format="2">
  <advance width="1500"/>
  <unicode hex="004E"/>
  <anchor x="1050.8" y="1430.0" name="UCtop"/>
  <anchor x="658.8000000000001" y="0.0" name="bottom"/>
  <outline>
    <contour>
      <point x="1183.2" y="261.8" type="line"/>
      <point x="750.2" y="1430.0" type="line"/>
      <point x="329.2" y="1430.0" type="line"/>
      <point x="322.8" y="1408.6000000000001" type="line"/>
      <point x="492.79999999999995" y="1345.8" type="line"/>
      <point x="100.8" y="61.2" type="line"/>
      <point x="-73.60000000000001" y="21.4" type="line"/>
      <point x="-80.0" y="0.0" type="line"/>
      <point x="338.6" y="0.0" type="line"/>
      <point x="344.8" y="21.4" type="line"/>
      <point x="165.0" y="61.800000000000004" type="line"/>
      <point x="558.8000000000001" y="1352.2" type="line"/>
      <point x="531.4000000000001" y="1321.8" type="line"/>
      <point x="1032.8" y="-16.0" type="line"/>
      <point x="1120.2" y="-16.0" type="line"/>
      <point x="1543.0" y="1368.8000000000002" type="line"/>
      <point x="1717.4" y="1408.6" type="line"/>
      <point x="1723.8000000000002" y="1430.0" type="line"/>
      <point x="1305.2" y="1430.0" type="line"/>
      <point x="1299.0" y="1408.6" type="line"/>
      <point x="1478.8" y="1368.2" type="line"/>
      <point x="1141.0" y="261.8" type="line"/>
    </contour>
  </outline>
</glyph>
<glyph name="O" format="2">
	<unicode hex="004F"/>
	<advance width="1552.4"/>
	<outline>
		<contour>
			<point x="357.8" y="412.2" type="curve" smooth="yes"/>
			<point x="357.8" y="803.8"/>
			<point x="616.6" y="1397.6"/>
			<point x="1016.8" y="1397.6" type="curve" smooth="yes"/>
			<point x="1206.8" y="1397.6"/>
			<point x="1317.6" y="1270.8"/>
			<point x="1317.6" y="1017.8" type="curve" smooth="yes"/>
			<point x="1317.6" y="626.2"/>
			<point x="1058.8" y="32.4"/>
			<point x="658.6" y="32.4" type="curve" smooth="yes"/>
			<point x="468.6" y="32.4"/>
			<point x="357.8" y="159.2"/>
		</contour>
		<contour>
			<point x="1546.4" y="911.2" type="curve" smooth="yes"/>
			<point x="1546.4" y="1242.6"/>
			<point x="1345.2" y="1452"/>
			<point x="1001.4" y="1452" type="curve" smooth="yes"/>
			<point x="500.6" y="1452"/>
			<point x="129" y="978"/>
			<point x="129" y="518.8" type="curve" smooth="yes"/>
			<point x="129" y="187.4"/>
			<point x="330.2" y="-22"/>
			<point x="674" y="-22" type="curve" smooth="yes"/>
			<point x="1174.8" y="-22"/>
			<point x="1546.4" y="452"/>
		</contour>
	</outline>
	<anchor name="UCtop" x="1062.6" y="1430"/>
	<anchor name="bottom" x="586.6" y="0"/>
	<anchor name="right" x="732.6" y="0"/>
	<anchor name="horn" x="1419.8" y="1430"/>
</glyph>
<glyph name="P" format="2">
	<unicode hex="0050"/>
	<advance width="1267.4"/>
	<outline>
		<contour>
			<point x="712.4" y="700.8" type="curve" smooth="yes"/>
			<point x="394.8" y="700.8" type="line"/>
			<point x="377.6" y="640.4" type="line"/>
			<point x="766" y="640.4" type="line" smooth="yes"/>
			<point x="1156.6" y="640.4"/>
			<point x="1386.2" y="838.6"/>
			<point x="1386.2" y="1106.8" type="curve" smooth="yes"/>
			<point x="1386.2" y="1281"/>
			<point x="1263.6" y="1430"/>
			<point x="924.8" y="1430" type="curve" smooth="yes"/>
			<point x="620.2" y="1430" type="line"/>
			<point x="595.6" y="1369.6" type="line"/>
			<point x="839.4" y="1369.6" type="line" smooth="yes"/>
			<point x="1064.8" y="1369.6"/>
			<point x="1145.2" y="1265.4"/>
			<point x="1145.2" y="1130.8" type="curve" smooth="yes"/>
			<point x="1145.2" y="882.6"/>
			<point x="987.4" y="700.8"/>
		</contour>
		<contour>
			<point x="344" y="63.4" type="line"/>
			<point x="760.6" y="1430" type="line"/>
			<point x="342.4" y="1430" type="line"/>
			<point x="336.2" y="1408.6" type="line"/>
			<point x="493.8" y="1366.6" type="line"/>
			<point x="96.2" y="64.2" type="line"/>
			<point x="-78.4" y="21.4" type="line"/>
			<point x="-84.6" y="0" type="line"/>
			<point x="495.4" y="0" type="line"/>
			<point x="500.6" y="21.4" type="line"/>
		</contour>
	</outline>
	<anchor name="UCtop" x="929.8" y="1430"/>
	<anchor name="bottom" x="216.6" y="0"/>
</glyph>
<glyph name="Q" format="2">
  <advance width="1552"/>
  <unicode hex="0051"/>
  <anchor x="1071.4" y="1430.0" name="UCtop"/>
  <anchor x="500.2" y="-133.39999999999998" name="bottom"/>
  <outline>
    <contour>
      <point x="801.4" y="-297.0" type="line" smooth="yes"/>
      <point x="925.6" y="-401.0"/>
      <point x="1028.6" y="-465.0"/>
      <point x="1201.8" y="-465.0" type="curve" smooth="yes"/>
      <point x="1299.0" y="-465.0"/>
      <point x="1430.0" y="-432.6"/>
      <point x="1521.6" y="-401.6" type="curve"/>
      <point x="1534.2" y="-358.59999999999997" type="line"/>
      <point x="1345.2" y="-375.79999999999995"/>
      <point x="1227.2" y="-328.8"/>
      <point x="1069.1999999999998" y="-232.20000000000002" type="curve" smooth="yes"/>
      <point x="684.5999999999999" y="2.4000000000000004" type="line"/>
      <point x="680.4" y="-12.2" type="line"/>
      <point x="1193.2" y="-13.599999999999998"/>
      <point x="1546.3999999999999" y="466.20000000000005"/>
      <point x="1546.3999999999999" y="911.1999999999999" type="curve" smooth="yes"/>
      <point x="1546.3999999999999" y="1242.6"/>
      <point x="1345.2" y="1452.0"/>
      <point x="1001.4" y="1452.0" type="curve" smooth="yes"/>
      <point x="500.6" y="1452.0"/>
      <point x="129.0" y="978.0"/>
      <point x="129.0" y="518.8000000000001" type="curve" smooth="yes"/>
      <point x="129.0" y="317.0"/>
      <point x="204.0" y="173.8"/>
      <point x="332.4" y="71.39999999999999" type="curve" smooth="yes"/>
    </contour>
    <contour>
      <point x="357.8" y="412.20000000000005" type="curve" smooth="yes"/>
      <point x="357.8" y="803.8000000000001"/>
      <point x="616.5999999999999" y="1397.6000000000001"/>
      <point x="1016.8000000000001" y="1397.6000000000001" type="curve" smooth="yes"/>
      <point x="1206.8000000000002" y="1397.6000000000001"/>
      <point x="1317.6" y="1270.8"/>
      <point x="1317.6" y="1017.8" type="curve" smooth="yes"/>
      <point x="1317.6" y="626.1999999999999"/>
      <point x="1058.8" y="32.4"/>
      <point x="658.6" y="32.4" type="curve" smooth="yes"/>
      <point x="468.59999999999997" y="32.4"/>
      <point x="357.8" y="159.20000000000002"/>
    </contour>
  </outline>
</glyph>
<glyph name="R" format="2">
  <advance width="1415"/>
  <unicode hex="0052"/>
  <anchor x="920.8" y="1430.0" name="UCtop"/>
  <anchor x="726.0" y="0.0" name="bottom"/>
  <outline>
    <contour>
      <point x="742.2" y="768.4" type="curve" smooth="yes"/>
      <point x="367.4" y="768.4" type="line"/>
      <point x="367.59999999999997" y="711.1999999999999" type="line"/>
      <point x="699.2" y="711.1999999999999" type="line" smooth="yes"/>
      <point x="770.8" y="711.1999999999999"/>
      <point x="790.8000000000001" y="693.6"/>
      <point x="842.1999999999999" y="516.4000000000001" type="curve" smooth="yes"/>
      <point x="945.0" y="177.0" type="line" smooth="yes"/>
      <point x="994.1999999999999" y="8.799999999999999"/>
      <point x="1051.8" y="-26.8"/>
      <point x="1336.3999999999999" y="0.0" type="curve"/>
      <point x="1348.6" y="38.599999999999994" type="line"/>
      <point x="1254.0" y="37.199999999999996"/>
      <point x="1236.6000000000001" y="51.4"/>
      <point x="1191.1999999999998" y="188.0" type="curve" smooth="yes"/>
      <point x="1078.6" y="527.2" type="line" smooth="yes"/>
      <point x="1032.0" y="669.6"/>
      <point x="960.8" y="737.2"/>
      <point x="811.4000000000001" y="739.0" type="curve"/>
      <point x="811.4000000000001" y="736.8000000000001" type="line"/>
      <point x="1161.2" y="744.8000000000001"/>
      <point x="1354.8" y="910.8"/>
      <point x="1354.8" y="1148.0" type="curve" smooth="yes"/>
      <point x="1354.8" y="1314.0"/>
      <point x="1226.6000000000001" y="1430.0"/>
      <point x="920.6" y="1430.0" type="curve" smooth="yes"/>
      <point x="592.0" y="1430.0" type="line"/>
      <point x="554.1999999999999" y="1372.8" type="line"/>
      <point x="849.0" y="1372.8" type="line" smooth="yes"/>
      <point x="1043.8" y="1372.8"/>
      <point x="1121.0" y="1301.0"/>
      <point x="1121.0" y="1154.3999999999999" type="curve" smooth="yes"/>
      <point x="1121.0" y="936.0"/>
      <point x="973.6" y="768.4"/>
    </contour>
    <contour>
      <point x="344.0" y="63.4" type="line"/>
      <point x="760.6" y="1430.0" type="line"/>
      <point x="342.40000000000003" y="1430.0" type="line"/>
      <point x="336.2" y="1408.6" type="line"/>
      <point x="493.8" y="1366.6000000000001" type="line"/>
      <point x="96.2" y="64.2" type="line"/>
      <point x="-78.4" y="21.4" type="line"/>
      <point x="-84.60000000000001" y="0.0" type="line"/>
      <point x="495.4" y="0.0" type="line"/>
      <point x="500.59999999999997" y="21.4" type="line"/>
    </contour>
  </outline>
</glyph>
<glyph name="S" format="2">
  <advance width="1114.3999999999999"/>
  <unicode hex="0053"/>
  <anchor x="786.6" y="1430.0" name="UCtop"/>
  <anchor x="450.6" y="0.0" name="bottom"/>
  <outline>
    <contour>
      <point x="1055.1999999999998" y="1256.8" type="curve"/>
      <point x="1012.4" y="1346.2" type="line"/>
      <point x="1104.8" y="1013.2" type="line"/>
      <point x="1129.2" y="1013.2" type="line"/>
      <point x="1177.6000000000001" y="1489.4" type="line"/>
      <point x="1161.6" y="1489.4" type="line"/>
      <point x="1028.3999999999999" y="1376.0" type="line"/>
      <point x="1149.8000000000002" y="1343.8" type="line"/>
      <point x="1034.2" y="1416.8"/>
      <point x="927.8000000000001" y="1452.0"/>
      <point x="788.8" y="1452.0" type="curve" smooth="yes"/>
      <point x="485.59999999999997" y="1452.0"/>
      <point x="290.6" y="1281.0"/>
      <point x="290.6" y="1032.0" type="curve" smooth="yes"/>
      <point x="290.6" y="846.8"/>
      <point x="384.8" y="764.4"/>
      <point x="508.0" y="690.4" type="curve" smooth="yes"/>
      <point x="631.2" y="616.4"/>
      <point x="797.0" y="558.8"/>
      <point x="797.0" y="357.8" type="curve" smooth="yes"/>
      <point x="797.0" y="138.2"/>
      <point x="646.2" y="26.4"/>
      <point x="401.8" y="26.4" type="curve" smooth="yes"/>
      <point x="284.0" y="26.4"/>
      <point x="208.4" y="60.6"/>
      <point x="122.6" y="119.6" type="curve"/>
      <point x="218.4" y="22.2" type="line"/>
      <point x="73.2" y="422.8" type="line"/>
      <point x="43.6" y="422.8" type="line"/>
      <point x="45.599999999999994" y="39.6" type="line"/>
      <point x="142.20000000000002" y="-0.6000000000000003"/>
      <point x="261.79999999999995" y="-22.0"/>
      <point x="398.8" y="-22.0" type="curve" smooth="yes"/>
      <point x="765.0" y="-22.0"/>
      <point x="991.6" y="177.8"/>
      <point x="991.6" y="455.8" type="curve" smooth="yes"/>
      <point x="991.6" y="692.0"/>
      <point x="841.8000000000001" y="778.2"/>
      <point x="713.0" y="852.4" type="curve" smooth="yes"/>
      <point x="584.2" y="926.6"/>
      <point x="464.4" y="989.6"/>
      <point x="464.4" y="1147.6" type="curve" smooth="yes"/>
      <point x="464.4" y="1306.8"/>
      <point x="572.6" y="1400.2"/>
      <point x="760.6" y="1400.2" type="curve" smooth="yes"/>
      <point x="892.4" y="1400.2"/>
      <point x="992.8000000000001" y="1343.4"/>
    </contour>
  </outline>
</glyph>
<glyph name="T" format="2">
  <advance width="1404"/>
  <unicode hex="0054"/>
  <anchor x="953.8" y="1430.0" name="UCtop"/>
  <anchor x="563.2" y="0.0" name="bottom"/>
  <outline>
    <contour>
      <point x="1505.0" y="1369.6000000000001" type="line"/>
      <point x="1415.4" y="1384.8" type="line"/>
      <point x="1477.0" y="975.8000000000001" type="line"/>
      <point x="1508.6000000000001" y="975.8000000000001" type="line"/>
      <point x="1604.8" y="1504.8000000000002" type="line"/>
      <point x="1587.4" y="1504.8000000000002" type="line"/>
      <point x="1397.0" y="1410.8" type="line"/>
      <point x="1502.6" y="1430.0" type="line"/>
      <point x="455.8" y="1430.0" type="line"/>
      <point x="556.5999999999999" y="1410.8" type="line"/>
      <point x="417.0" y="1504.8000000000002" type="line"/>
      <point x="399.59999999999997" y="1504.8000000000002" type="line"/>
      <point x="182.79999999999998" y="986.8000000000001" type="line"/>
      <point x="209.0" y="972.6" type="line"/>
      <point x="543.8" y="1384.8" type="line"/>
      <point x="411.40000000000003" y="1369.6000000000001" type="line"/>
    </contour>
    <contour>
      <point x="850.4000000000001" y="1398.6" type="line"/>
      <point x="443.0" y="64.2" type="line"/>
      <point x="268.40000000000003" y="21.4" type="line"/>
      <point x="262.2" y="0.0" type="line"/>
      <point x="842.2" y="0.0" type="line"/>
      <point x="847.4" y="21.4" type="line"/>
      <point x="690.8000000000001" y="63.4" type="line"/>
      <point x="1098.3999999999999" y="1398.6" type="line"/>
    </contour>
  </outline>
</glyph>
<glyph name="U" format="2">
	<unicode hex="0055"/>
	<advance width="1539"/>
	<outline>
		<contour>
			<point x="480.8" y="597.2" type="curve" smooth="yes"/>
			<point x="715.6" y="1365.8" type="line"/>
			<point x="890.2" y="1408.6" type="line"/>
			<point x="896.4" y="1430" type="line"/>
			<point x="316.6" y="1430" type="line"/>
			<point x="310.4" y="1408.6" type="line"/>
			<point x="468" y="1366.6" type="line"/>
			<point x="247.4" y="647.2" type="line" smooth="yes"/>
			<point x="109.2" y="196"/>
			<point x="311.2" y="-22"/>
			<point x="712.4" y="-22" type="curve" smooth="yes"/>
			<point x="1040.2" y="-22"/>
			<point x="1222.8" y="146.2"/>
			<point x="1343.4" y="540.4" type="curve" smooth="yes"/>
			<point x="1596.6" y="1368.8" type="line"/>
			<point x="1771" y="1408.6" type="line"/>
			<point x="1777.4" y="1430" type="line"/>
			<point x="1358.6" y="1430" type="line"/>
			<point x="1352.4" y="1408.6" type="line"/>
			<point x="1532.2" y="1368.2" type="line"/>
			<point x="1292.6" y="585.2" type="line" smooth="yes"/>
			<point x="1187.8" y="243.6"/>
			<point x="1024.4" y="117.4"/>
			<point x="779" y="117.4" type="curve" smooth="yes"/>
			<point x="497.8" y="117.4"/>
			<point x="376" y="254.2"/>
		</contour>
	</outline>
	<anchor name="UCtop" x="1100" y="1430"/>
	<anchor name="right" x="860.4" y="0"/>
	<anchor name="bottom" x="666" y="0"/>
	<anchor name="horn" x="1640.4" y="1430"/>
</glyph>
<glyph name="V" format="2">
  <advance width="1404.1999999999998"/>
  <unicode hex="0056"/>
  <anchor x="1031.6" y="1430.0" name="UCtop"/>
  <anchor x="593.6" y="0.0" name="bottom"/>
  <outline>
    <contour>
      <point x="361.79999999999995" y="1365.6" type="line"/>
      <point x="528.2" y="-16.0" type="line"/>
      <point x="614.2" y="-16.0" type="line"/>
      <point x="1516.2" y="1359.4" type="line"/>
      <point x="1684.6" y="1408.6" type="line"/>
      <point x="1691.4" y="1430.0" type="line"/>
      <point x="1296.0" y="1430.0" type="line"/>
      <point x="1289.2" y="1408.6" type="line"/>
      <point x="1444.6000000000001" y="1362.4" type="line"/>
      <point x="700.8000000000001" y="212.4" type="line"/>
      <point x="731.8000000000001" y="212.39999999999998" type="line"/>
      <point x="604.5999999999999" y="1368.2" type="line"/>
      <point x="764.8" y="1408.6" type="line"/>
      <point x="771.8000000000001" y="1430.0" type="line"/>
      <point x="228.4" y="1430.0" type="line"/>
      <point x="221.6" y="1408.6" type="line"/>
    </contour>
  </outline>
</glyph>
<glyph name="W" format="2">
	<unicode hex="0057"/>
	<advance width="1989.2"/>
	<outline>
		<contour>
			<point x="2042.4" y="1364" type="line"/>
			<point x="1400.8" y="240.4" type="line"/>
			<point x="1452.4" y="240.4" type="line"/>
			<point x="1405.8" y="1446" type="line"/>
			<point x="1307" y="1446" type="line"/>
			<point x="549.4" y="241" type="line"/>
			<point x="595" y="241" type="line"/>
			<point x="616.8" y="1364.2" type="line"/>
			<point x="792.4" y="1408.6" type="line"/>
			<point x="798.6" y="1430" type="line"/>
			<point x="241.8" y="1430" type="line"/>
			<point x="236.6" y="1408.6" type="line"/>
			<point x="374.4" y="1361.6" type="line"/>
			<point x="356" y="-16" type="line"/>
			<point x="445.2" y="-16" type="line"/>
			<point x="1246.8" y="1236.4" type="line"/>
			<point x="1172.6" y="1194" type="line"/>
			<point x="1221" y="-16" type="line"/>
			<point x="1310.2" y="-16" type="line"/>
			<point x="2111.8" y="1361" type="line"/>
			<point x="2276.2" y="1408.6" type="line"/>
			<point x="2281.4" y="1430" type="line"/>
			<point x="1889" y="1430" type="line"/>
			<point x="1883" y="1408.6" type="line"/>
		</contour>
	</outline>
	<anchor name="UCtop" x="1332" y="1430"/>
	<anchor name="bottom" x="882" y="0"/>
</glyph>
<glyph name="X" format="2">
	<unicode hex="0058"/>
	<advance width="1409.8"/>
	<outline>
		<contour>
			<point x="739.6" y="695" type="line"/>
			<point x="824.4" y="745.4" type="line"/>
			<point x="1471" y="1355.6" type="line"/>
			<point x="1631.8" y="1408.6" type="line"/>
			<point x="1638" y="1430" type="line"/>
			<point x="1231.8" y="1430" type="line"/>
			<point x="1226.4" y="1408.6" type="line"/>
			<point x="1388.4" y="1357.8" type="line"/>
			<point x="800" y="795" type="line"/>
			<point x="709.6" y="743.8" type="line"/>
			<point x="3.8" y="74.4" type="line"/>
			<point x="-157" y="21.4" type="line"/>
			<point x="-164" y="0" type="line"/>
			<point x="247.2" y="0" type="line"/>
			<point x="253.4" y="21.4" type="line"/>
			<point x="91.4" y="72.2" type="line"/>
		</contour>
		<contour>
			<point x="889.8" y="66" type="line"/>
			<point x="719.4" y="21.4" type="line"/>
			<point x="711.8" y="0" type="line"/>
			<point x="1285.8" y="0" type="line"/>
			<point x="1292.6" y="21.4" type="line"/>
			<point x="1145.8" y="68" type="line"/>
			<point x="882.2" y="820.2" type="line"/>
			<point x="873.8" y="844.6" type="line"/>
			<point x="696.4" y="1363.4" type="line"/>
			<point x="866.8" y="1408.6" type="line"/>
			<point x="872.4" y="1430" type="line"/>
			<point x="299.4" y="1430" type="line"/>
			<point x="292.8" y="1408.6" type="line"/>
			<point x="441" y="1361.4" type="line"/>
			<point x="676" y="691" type="line"/>
			<point x="684.8" y="667.2" type="line"/>
		</contour>
	</outline>
	<anchor name="UCtop" x="1049.6" y="1430"/>
	<anchor name="bottom" x="493.6" y="0"/>
</glyph>
<glyph name="Y" format="2">
	<unicode hex="0059"/>
	<advance width="1363.6"/>
	<outline>
		<contour>
			<point x="1396.6" y="1357.8" type="line"/>
			<point x="809.8" y="678.2" type="line"/>
			<point x="847.8" y="678.2" type="line"/>
			<point x="638.4" y="1362.6" type="line"/>
			<point x="813.8" y="1408.6" type="line"/>
			<point x="819.4" y="1430" type="line"/>
			<point x="242.4" y="1430" type="line"/>
			<point x="238" y="1408.6" type="line"/>
			<point x="386" y="1360.2" type="line"/>
			<point x="612.4" y="660.4" type="line"/>
			<point x="430.2" y="64.2" type="line"/>
			<point x="255.6" y="21.4" type="line"/>
			<point x="249.4" y="0" type="line"/>
			<point x="829.4" y="0" type="line"/>
			<point x="834.6" y="21.4" type="line"/>
			<point x="678" y="63.4" type="line"/>
			<point x="859.8" y="657" type="line"/>
			<point x="1468.8" y="1355.6" type="line"/>
			<point x="1629.6" y="1408.6" type="line"/>
			<point x="1635" y="1430" type="line"/>
			<point x="1239.2" y="1430" type="line"/>
			<point x="1233.8" y="1408.6" type="line"/>
		</contour>
	</outline>
	<anchor name="UCtop" x="990" y="1430"/>
	<anchor name="bottom" x="550.4" y="0"/>
</glyph>
<glyph name="Z" format="2">
	<unicode hex="005A"/>
	<advance width="1289.6"/>
	<outline>
		<contour>
			<point x="1457.6" y="1430" type="line"/>
			<point x="568.6" y="1430" type="line"/>
			<point x="458.6" y="1496.8" type="line"/>
			<point x="445" y="1496.8" type="line"/>
			<point x="220.8" y="1028.6" type="line"/>
			<point x="240.8" y="1015" type="line"/>
			<point x="568.6" y="1369.6" type="line"/>
			<point x="1369.4" y="1369.6" type="line"/>
			<point x="1176.8" y="1410.6" type="line"/>
			<point x="-50.8" y="19" type="line"/>
			<point x="-56.4" y="0" type="line"/>
			<point x="854.8" y="0" type="line"/>
			<point x="970.8" y="-58" type="line"/>
			<point x="989.2" y="-58" type="line"/>
			<point x="1205" y="407" type="line"/>
			<point x="1183.8" y="420" type="line"/>
			<point x="859.6" y="60.4" type="line"/>
			<point x="142.2" y="60.4" type="line"/>
			<point x="228.4" y="22.6" type="line"/>
			<point x="1452" y="1410.2" type="line"/>
		</contour>
	</outline>
	<anchor name="UCtop" x="974" y="1430"/>
	<anchor name="bottom" x="492" y="0"/>
</glyph>
<glyph name="bracketleft" format="2">
	<unicode hex="005B"/>
	<advance width="583.4"/>
	<outline>
		<contour>
			<point x="-40.2" y="-228" type="line"/>
			<point x="328.8" y="-228" type="line"/>
			<point x="338.6" y="-196.8" type="line"/>
			<point x="130" y="-171.6" type="line"/>
			<point x="613.4" y="1407.6" type="line"/>
			<point x="836.6" y="1432.8" type="line"/>
			<point x="846.4" y="1464" type="line"/>
			<point x="477.2" y="1464" type="line"/>
		</contour>
	</outline>
</glyph>
<glyph name="backslash" format="2">
	<unicode hex="005C"/>
	<advance width="752.2"/>
	<outline>
		<contour>
			<point x="539.8" y="0" type="line"/>
			<point x="406.8" y="1430" type="line"/>
			<point x="333.4" y="1430" type="line"/>
			<point x="466.4" y="0" type="line"/>
		</contour>
	</outline>
</glyph>
<glyph name="bracketright" format="2">
  <advance width="583"/>
  <unicode hex="005D"/>
  <outline>
    <contour>
      <point x="687.4" y="1464.0" type="line"/>
      <point x="318.2" y="1464.0" type="line"/>
      <point x="308.6" y="1432.8" type="line"/>
      <point x="517.0" y="1407.6" type="line"/>
      <point x="33.8" y="-171.6" type="line"/>
      <point x="-189.60000000000002" y="-196.79999999999998" type="line"/>
      <point x="-199.20000000000002" y="-228.0" type="line"/>
      <point x="170.0" y="-228.0" type="line"/>
    </contour>
  </outline>
</glyph>
<glyph name="asciicircum" format="2">
  <advance width="1150.0"/>
  <unicode hex="005E"/>
  <outline>
    <contour>
      <point x="836.0" y="1359.0" type="line"/>
      <point x="949.0" y="662.0" type="line"/>
      <point x="1019.2" y="662.0" type="line"/>
      <point x="892.1999999999999" y="1430.0" type="line"/>
      <point x="823.4" y="1430.0" type="line"/>
      <point x="228.4" y="662.0" type="line"/>
      <point x="314.59999999999997" y="662.0" type="line"/>
      <point x="849.8000000000001" y="1359.0" type="line"/>
    </contour>
  </outline>
</glyph>
<glyph name="a" format="2">
	<unicode hex="0061"/>
	<advance width="1087.8"/>
	<outline>
		<contour>
			<point x="557.8" y="74.2" type="line" smooth="yes"/>
			<point x="538.2" y="15.2"/>
			<point x="568.6" y="-22"/>
			<point x="640.4" y="-22" type="curve" smooth="yes"/>
			<point x="749.8" y="-22"/>
			<point x="890.2" y="69"/>
			<point x="1053.8" y="331.6" type="curve"/>
			<point x="1044" y="339.2" type="line"/>
			<point x="902" y="172.2"/>
			<point x="796.4" y="118"/>
			<point x="735.2" y="126.6" type="curve"/>
			<point x="758.2" y="93.2" type="line"/>
			<point x="1071.4" y="1024" type="line"/>
			<point x="866.6" y="1024" type="line"/>
			<point x="829.8" y="917.2" type="line"/>
			<point x="670" y="454.8" type="line" smooth="yes"/>
			<point x="500.2" y="200.4"/>
			<point x="389" y="129.6"/>
			<point x="317.4" y="129.6" type="curve" smooth="yes"/>
			<point x="261.6" y="129.6"/>
			<point x="228" y="158"/>
			<point x="228" y="238.4" type="curve" smooth="yes"/>
			<point x="228" y="514.2"/>
			<point x="508.2" y="959.8"/>
			<point x="711.2" y="959.8" type="curve" smooth="yes"/>
			<point x="765.6" y="959.8"/>
			<point x="808.8" y="938.6"/>
			<point x="842.8" y="871.6" type="curve"/>
			<point x="852.2" y="899.4" type="line"/>
			<point x="799.4" y="995.8"/>
			<point x="726.4" y="1042.8"/>
			<point x="646.6" y="1042.8" type="curve" smooth="yes"/>
			<point x="349" y="1042.8"/>
			<point x="-0.8" y="533.4"/>
			<point x="-0.8" y="173.4" type="curve" smooth="yes"/>
			<point x="-0.8" y="49.2"/>
			<point x="79.4" y="-22"/>
			<point x="192.4" y="-22" type="curve" smooth="yes"/>
			<point x="316.8" y="-22"/>
			<point x="447.6" y="69.6"/>
			<point x="693.2" y="452" type="curve"/>
			<point x="680.8" y="453.4" type="line"/>
		</contour>
	</outline>
	<anchor name="top" x="719.4" y="1024"/>
	<anchor name="right" x="870" y="0"/>
	<anchor name="bottom" x="421.8" y="0"/>
</glyph>
<glyph name="b" format="2">
	<unicode hex="0062"/>
	<advance width="1023"/>
	<outline>
		<contour>
			<point x="238.4" y="215.4" type="curve" smooth="yes"/>
			<point x="357.2" y="614.2" type="line" smooth="yes"/>
			<point x="385.6" y="693"/>
			<point x="535.6" y="907.2"/>
			<point x="681.8" y="907.2" type="curve" smooth="yes"/>
			<point x="748.2" y="907.2"/>
			<point x="778.8" y="860.2"/>
			<point x="778.8" y="785.2" type="curve" smooth="yes"/>
			<point x="778.8" y="452.6"/>
			<point x="521.8" y="18.6"/>
			<point x="326" y="18.6" type="curve" smooth="yes"/>
			<point x="259.6" y="18.6"/>
			<point x="225" y="60.4"/>
			<point x="225" y="132" type="curve" smooth="yes"/>
			<point x="225" y="158"/>
			<point x="229.8" y="186.6"/>
		</contour>
		<contour>
			<point x="365.4" y="1281.2" type="curve"/>
			<point x="79" y="344.2" type="line" smooth="yes"/>
			<point x="64.2" y="296.8"/>
			<point x="57.4" y="252.2"/>
			<point x="57.4" y="212.4" type="curve" smooth="yes"/>
			<point x="57.4" y="69.2"/>
			<point x="149.2" y="-22"/>
			<point x="316.4" y="-22" type="curve" smooth="yes"/>
			<point x="662.6" y="-22"/>
			<point x="1015.6" y="452.6"/>
			<point x="1015.6" y="812.4" type="curve" smooth="yes"/>
			<point x="1015.6" y="956.6"/>
			<point x="937.8" y="1046"/>
			<point x="804" y="1046" type="curve" smooth="yes"/>
			<point x="679.8" y="1046"/>
			<point x="528" y="935.2"/>
			<point x="363.4" y="687.4" type="curve"/>
			<point x="375.2" y="678.6" type="line"/>
			<point x="635.6" y="1486" type="line"/>
			<point x="628.8" y="1486" type="line"/>
			<point x="216.6" y="1403.2" type="line"/>
			<point x="215.8" y="1391.8" type="line"/>
			<point x="273.8" y="1349.2"/>
			<point x="327.4" y="1309.2"/>
		</contour>
	</outline>
	<anchor name="UCtop" x="798.8" y="1430"/>
	<anchor name="bottom" x="283.4" y="0"/>
</glyph>
<glyph name="c" format="2">
  <advance width="828.4000000000001"/>
  <unicode hex="0063"/>
  <anchor x="587.8000000000001" y="1024.0" name="top"/>
  <anchor x="614.2" y="0.0" name="right"/>
  <anchor x="292.8" y="0.0" name="bottom"/>
  <outline>
    <contour>
      <point x="629.8000000000001" y="1004.0" type="curve" smooth="yes"/>
      <point x="681.4" y="1004.0"/>
      <point x="696.4000000000001" y="981.2"/>
      <point x="671.8" y="889.4" type="curve" smooth="yes"/>
      <point x="647.2" y="797.6"/>
      <point x="671.0" y="767.2"/>
      <point x="738.0" y="767.1999999999999" type="curve" smooth="yes"/>
      <point x="819.2" y="767.2"/>
      <point x="871.1999999999999" y="827.2"/>
      <point x="871.1999999999999" y="897.6" type="curve" smooth="yes"/>
      <point x="871.1999999999999" y="981.0"/>
      <point x="810.4" y="1046.0"/>
      <point x="660.0" y="1046.0" type="curve" smooth="yes"/>
      <point x="317.4" y="1046.0"/>
      <point x="37.199999999999996" y="669.2"/>
      <point x="37.199999999999996" y="265.2" type="curve" smooth="yes"/>
      <point x="37.199999999999996" y="83.0"/>
      <point x="136.0" y="-22.0"/>
      <point x="316.20000000000005" y="-22.0" type="curve" smooth="yes"/>
      <point x="482.2" y="-22.0"/>
      <point x="617.2" y="75.0"/>
      <point x="745.4" y="403.6" type="curve"/>
      <point x="733.4" y="405.20000000000005" type="line"/>
      <point x="619.8" y="196.39999999999998"/>
      <point x="508.0" y="127.8"/>
      <point x="396.59999999999997" y="127.8" type="curve" smooth="yes"/>
      <point x="298.2" y="127.8"/>
      <point x="252.0" y="183.6"/>
      <point x="252.0" y="323.40000000000003" type="curve" smooth="yes"/>
      <point x="252.0" y="642.0"/>
      <point x="426.6" y="1004.0"/>
    </contour>
  </outline>
</glyph>
<glyph name="d" format="2">
  <advance width="1089"/>
  <unicode hex="0064"/>
  <anchor x="852.6" y="1430.0" name="UCtop"/>
  <anchor x="1204.8000000000002" y="1464.0" name="right"/>
  <anchor x="401.40000000000003" y="0.0" name="bottom"/>
  <anchor x="967.6" y="1207.0" name="center"/>
  <outline>
    <contour>
      <point x="862.0" y="824.6" type="curve"/>
      <point x="868.6" y="863.2" type="line"/>
      <point x="814.4" y="984.8000000000001"/>
      <point x="735.4000000000001" y="1042.8"/>
      <point x="646.6" y="1042.8" type="curve" smooth="yes"/>
      <point x="333.0" y="1042.8"/>
      <point x="-2.4000000000000004" y="511.0"/>
      <point x="-2.4000000000000004" y="173.4" type="curve" smooth="yes"/>
      <point x="-2.4000000000000004" y="49.2"/>
      <point x="77.8" y="-22.0"/>
      <point x="190.8" y="-22.0" type="curve" smooth="yes"/>
      <point x="298.0" y="-22.0"/>
      <point x="433.59999999999997" y="45.6"/>
      <point x="691.6" y="452.0" type="curve"/>
      <point x="680.2" y="452.40000000000003" type="line"/>
      <point x="567.0" y="103.0" type="line" smooth="yes"/>
      <point x="539.1999999999999" y="17.200000000000003"/>
      <point x="565.4" y="-22.0"/>
      <point x="643.8" y="-22.0" type="curve" smooth="yes"/>
      <point x="754.8" y="-22.0"/>
      <point x="899.8" y="81.0"/>
      <point x="1070.6" y="331.6" type="curve"/>
      <point x="1060.8000000000002" y="339.2" type="line"/>
      <point x="888.6" y="151.6"/>
      <point x="777.0" y="110.60000000000001"/>
      <point x="715.8" y="122.6" type="curve"/>
      <point x="762.6" y="86.8" type="line"/>
      <point x="1211.3999999999999" y="1486.0" type="line"/>
      <point x="1204.6" y="1486.0" type="line"/>
      <point x="792.0" y="1403.2" type="line"/>
      <point x="789.6" y="1391.8000000000002" type="line"/>
      <point x="846.6" y="1350.297017758468"/>
      <point x="905.8000000000001" y="1306.812409836757"/>
      <point x="941.8" y="1280.6" type="curve"/>
      <point x="669.4" y="457.0" type="line" smooth="yes"/>
      <point x="501.8" y="208.60000000000002"/>
      <point x="388.8" y="129.6"/>
      <point x="315.8" y="129.6" type="curve" smooth="yes"/>
      <point x="261.6" y="129.6"/>
      <point x="226.4" y="157.20000000000002"/>
      <point x="226.4" y="238.4" type="curve" smooth="yes"/>
      <point x="226.4" y="476.6"/>
      <point x="482.6" y="959.8000000000001"/>
      <point x="709.6" y="959.8000000000001" type="curve" smooth="yes"/>
      <point x="774.8000000000001" y="959.8000000000001"/>
      <point x="823.8" y="928.8000000000001"/>
    </contour>
  </outline>
</glyph>
<glyph name="e" format="2">
	<unicode hex="0065"/>
	<advance width="854.6"/>
	<outline>
		<contour>
			<point x="611.2" y="1000" type="curve" smooth="yes"/>
			<point x="663.8" y="1000"/>
			<point x="694.6" y="960.9555555556"/>
			<point x="694.6" y="893" type="curve" smooth="yes"/>
			<point x="694.6" y="748"/>
			<point x="602.6" y="644.8"/>
			<point x="217" y="518.6" type="curve"/>
			<point x="211" y="485.6" type="line"/>
			<point x="443.6" y="544"/>
			<point x="715.4" y="633.2"/>
			<point x="813" y="685.2" type="curve"/>
			<point x="854" y="744"/>
			<point x="871.2" y="808"/>
			<point x="871.2" y="869.4" type="curve" smooth="yes"/>
			<point x="871.2" y="965.6011976048"/>
			<point x="812" y="1046"/>
			<point x="648" y="1046" type="curve" smooth="yes"/>
			<point x="287.4" y="1046"/>
			<point x="33.2" y="610.0267002519"/>
			<point x="33.2" y="265.2" type="curve" smooth="yes"/>
			<point x="33.2" y="85.4"/>
			<point x="131.9777796826" y="-22"/>
			<point x="317.8" y="-22" type="curve" smooth="yes"/>
			<point x="477.6" y="-22"/>
			<point x="625.2" y="63.8"/>
			<point x="759.8" y="403.6" type="curve"/>
			<point x="747.8" y="405.2" type="line"/>
			<point x="628.4" y="188.8"/>
			<point x="512.4" y="127.8"/>
			<point x="399.8" y="127.8" type="curve" smooth="yes"/>
			<point x="299" y="127.8"/>
			<point x="248" y="183.6"/>
			<point x="248" y="323.4" type="curve" smooth="yes"/>
			<point x="248" y="580.4"/>
			<point x="407.6" y="1000"/>
		</contour>
	</outline>
	<anchor name="top" x="581.8" y="1024"/>
	<anchor name="right" x="641.6" y="0"/>
	<anchor name="bottom" x="308.2" y="0"/>
</glyph>
<glyph name="f" format="2">
	<unicode hex="0066"/>
	<advance width="626"/>
	<outline>
		<contour>
			<point x="128.6" y="965.4" type="line"/>
			<point x="774.6" y="965.4" type="line"/>
			<point x="785.8" y="1024" type="line"/>
			<point x="138.6" y="1024" type="line"/>
		</contour>
		<contour>
			<point x="358.2" y="254.4" type="curve" smooth="yes"/>
			<point x="564.6" y="1072" type="line" smooth="yes"/>
			<point x="632.4" y="1340"/>
			<point x="737.2" y="1443.4"/>
			<point x="838.6" y="1443.4" type="curve" smooth="yes"/>
			<point x="882.8" y="1443.4"/>
			<point x="897.8" y="1415.6"/>
			<point x="882.6" y="1335.4" type="curve" smooth="yes"/>
			<point x="867.4" y="1255.2"/>
			<point x="880.8" y="1217.2"/>
			<point x="938.8" y="1217.2" type="curve" smooth="yes"/>
			<point x="1022.4" y="1217.2"/>
			<point x="1084.8" y="1273.8"/>
			<point x="1084.8" y="1360.6" type="curve" smooth="yes"/>
			<point x="1084.8" y="1432.2"/>
			<point x="1030.6" y="1486"/>
			<point x="898.8" y="1486" type="curve" smooth="yes"/>
			<point x="640.2" y="1486"/>
			<point x="400" y="1300.6"/>
			<point x="325" y="967" type="curve" smooth="yes"/>
			<point x="117.6" y="44.2" type="line" smooth="yes"/>
			<point x="36.8" y="-312.8"/>
			<point x="-57.6" y="-413.6"/>
			<point x="-148.8" y="-413.6" type="curve" smooth="yes"/>
			<point x="-187.4" y="-413.6"/>
			<point x="-197.4" y="-396.8"/>
			<point x="-179" y="-316" type="curve" smooth="yes"/>
			<point x="-160.6" y="-235.2"/>
			<point x="-179" y="-204.8"/>
			<point x="-242.2" y="-204.8" type="curve" smooth="yes"/>
			<point x="-313" y="-204.8"/>
			<point x="-354.4" y="-260.2"/>
			<point x="-354.4" y="-324.6" type="curve" smooth="yes"/>
			<point x="-354.4" y="-408"/>
			<point x="-292.8" y="-465"/>
			<point x="-183" y="-465" type="curve" smooth="yes"/>
			<point x="15.4" y="-465"/>
			<point x="226.2" y="-269.4"/>
		</contour>
	</outline>
	<anchor name="UCtop" x="791" y="1430"/>
	<anchor name="bottom" x="-79.8" y="-443"/>
</glyph>
<glyph name="g" format="2">
	<unicode hex="0067"/>
	<advance width="918"/>
	<outline>
		<contour>
			<point x="975.8" y="892" type="curve" smooth="yes"/>
			<point x="1030.4" y="892"/>
			<point x="1081.2" y="953.2"/>
			<point x="1081.2" y="1015.8" type="curve" smooth="yes"/>
			<point x="1081.2" y="1041.8"/>
			<point x="1069.4" y="1056"/>
			<point x="1042.4" y="1056" type="curve" smooth="yes"/>
			<point x="986.4" y="1056"/>
			<point x="906.4" y="1016.8"/>
			<point x="638.2" y="1035.8" type="curve"/>
			<point x="645.8" y="1013" type="line"/>
			<point x="889.2" y="1014.2"/>
			<point x="920.4" y="892"/>
		</contour>
		<contour>
			<point x="358.8" y="402" type="curve"/>
			<point x="318" y="402"/>
			<point x="297.6" y="429.6"/>
			<point x="297.6" y="508.2" type="curve" smooth="yes"/>
			<point x="297.6" y="768.8"/>
			<point x="461" y="1006.2"/>
			<point x="593.2" y="1006.2" type="curve"/>
			<point x="634" y="1006.2"/>
			<point x="654.4" y="978.6"/>
			<point x="654.4" y="900" type="curve" smooth="yes"/>
			<point x="654.4" y="639.4"/>
			<point x="491" y="402"/>
		</contour>
		<contour>
			<point x="584.4" y="1045.2" type="curve"/>
			<point x="325.8" y="1045.2"/>
			<point x="115.4" y="834.4"/>
			<point x="115.4" y="599.2" type="curve" smooth="yes"/>
			<point x="115.4" y="452.4"/>
			<point x="202.2" y="363"/>
			<point x="367.6" y="363" type="curve"/>
			<point x="622.2" y="363"/>
			<point x="836.6" y="557.8"/>
			<point x="836.6" y="801" type="curve" smooth="yes"/>
			<point x="836.6" y="947.8"/>
			<point x="749.8" y="1045.2"/>
		</contour>
		<contour>
			<point x="293.2" y="-465" type="curve" smooth="yes"/>
			<point x="617" y="-465"/>
			<point x="798.8" y="-328.6"/>
			<point x="798.8" y="-157" type="curve" smooth="yes"/>
			<point x="798.8" y="-29.5494949495"/>
			<point x="706.050552601" y="66.9903380694"/>
			<point x="448.2" y="141.4" type="curve" smooth="yes"/>
			<point x="191.3150086347" y="215.7780188275"/>
			<point x="173.4" y="234.6"/>
			<point x="173.4" y="277.6" type="curve" smooth="yes"/>
			<point x="173.4" y="320.2"/>
			<point x="208.2" y="358.6"/>
			<point x="297" y="373.4" type="curve"/>
			<point x="283.4" y="396.6" type="line"/>
			<point x="124.4" y="365.6"/>
			<point x="35.2" y="284.2"/>
			<point x="35.2" y="184" type="curve" smooth="yes"/>
			<point x="35.2" y="90.2"/>
			<point x="89.6" y="25.2"/>
			<point x="321.4" y="-33" type="curve" smooth="yes"/>
			<point x="562" y="-93.6"/>
			<point x="642" y="-162.2"/>
			<point x="642" y="-246.2" type="curve" smooth="yes"/>
			<point x="642" y="-340.2"/>
			<point x="535" y="-424.4"/>
			<point x="306.6" y="-424.4" type="curve" smooth="yes"/>
			<point x="79.8" y="-424.4"/>
			<point x="-1.8" y="-341.4"/>
			<point x="-1.8" y="-223.6" type="curve" smooth="yes"/>
			<point x="-1.8" y="-105"/>
			<point x="105.8" y="-4.6"/>
			<point x="367" y="2.8" type="curve"/>
			<point x="367" y="21.4" type="line"/>
			<point x="301.8" y="21.4" type="line"/>
			<point x="-30" y="-13.8"/>
			<point x="-145.4" y="-112.6"/>
			<point x="-145.4" y="-231.6" type="curve" smooth="yes"/>
			<point x="-145.4" y="-360.8"/>
			<point x="-30.2" y="-465"/>
		</contour>
	</outline>
	<anchor name="top" x="568.8" y="1024"/>
	<anchor name="bottom" x="302.8" y="-443"/>
</glyph>
<glyph name="h" format="2">
	<unicode hex="0068"/>
	<advance width="1102"/>
	<outline>
		<contour>
			<point x="361" y="522.2" type="line"/>
			<point x="404" y="643.2"/>
			<point x="577.2" y="879.6"/>
			<point x="725.6" y="879.6" type="curve" smooth="yes"/>
			<point x="783.6" y="879.6"/>
			<point x="811.2" y="857.2"/>
			<point x="811.2" y="816.4" type="curve" smooth="yes"/>
			<point x="811.2" y="792.8"/>
			<point x="799.6" y="762.8"/>
			<point x="759.4" y="664.8" type="curve" smooth="yes"/>
			<point x="526.8" y="101.4" type="line" smooth="yes"/>
			<point x="492.4" y="17.4"/>
			<point x="529.2" y="-22"/>
			<point x="626" y="-22" type="curve" smooth="yes"/>
			<point x="739.4" y="-22"/>
			<point x="888" y="76.2"/>
			<point x="1065.2" y="326.4" type="curve"/>
			<point x="1055.6" y="334.2" type="line"/>
			<point x="873.4" y="148.4"/>
			<point x="759" y="112.6"/>
			<point x="691.6" y="125" type="curve"/>
			<point x="733.8" y="88.2" type="line"/>
			<point x="973.8" y="677.4" type="line" smooth="yes"/>
			<point x="1025.4" y="804.2"/>
			<point x="1035.2" y="847.8"/>
			<point x="1035.2" y="894.6" type="curve" smooth="yes"/>
			<point x="1035.2" y="977.8"/>
			<point x="984.8" y="1046"/>
			<point x="855.4" y="1046" type="curve" smooth="yes"/>
			<point x="715.2" y="1046"/>
			<point x="595.2" y="978.2"/>
			<point x="361.6" y="585.2" type="curve"/>
			<point x="375" y="585.2" type="line"/>
			<point x="666.2" y="1486" type="line"/>
			<point x="659.4" y="1486" type="line"/>
			<point x="249.8" y="1403.2" type="line"/>
			<point x="247.4" y="1391.8" type="line"/>
			<point x="304.4" y="1350.1302980132"/>
			<point x="362.6" y="1307.517706518"/>
			<point x="398.6" y="1281.2" type="curve"/>
			<point x="-23.6" y="0" type="line"/>
			<point x="185" y="0" type="line"/>
		</contour>
	</outline>
	<anchor name="UCtop" x="820.6" y="1430"/>
	<anchor name="bottom" x="387.4" y="0"/>
	<anchor name="center" x="526.4" y="1207"/>
</glyph>
<glyph name="i" format="2">
  <advance width="618.8"/>
  <unicode hex="0069"/>
  <anchor x="607.4" y="1430.0" name="top"/>
  <anchor x="148.8" y="0.0" name="bottom"/>
  <anchor x="310.59999999999997" y="0.0" name="right"/>
  <outline>
    <contour>
      <point x="65.19999999999999" y="112.8" type="line" smooth="yes"/>
      <point x="29.400000000000002" y="15.6"/>
      <point x="54.6" y="-22.0"/>
      <point x="148.2" y="-22.0" type="curve" smooth="yes"/>
      <point x="259.8" y="-22.0"/>
      <point x="404.6" y="78.8"/>
      <point x="574.4" y="327.2" type="curve"/>
      <point x="564.5999999999999" y="334.4" type="line"/>
      <point x="366.59999999999997" y="129.6"/>
      <point x="273.0" y="107.39999999999999"/>
      <point x="218.39999999999998" y="128.6" type="curve"/>
      <point x="263.2" y="88.0" type="line"/>
      <point x="570.2" y="914.0" type="line" smooth="yes"/>
      <point x="602.0" y="999.0"/>
      <point x="583.4000000000001" y="1043.2"/>
      <point x="487.40000000000003" y="1043.2" type="curve" smooth="yes"/>
      <point x="367.40000000000003" y="1043.2"/>
      <point x="230.20000000000002" y="943.0"/>
      <point x="56.8" y="696.4" type="curve"/>
      <point x="67.0" y="688.6" type="line"/>
      <point x="242.0" y="870.0"/>
      <point x="328.4" y="905.0"/>
      <point x="399.59999999999997" y="890.6" type="curve"/>
      <point x="371.40000000000003" y="936.0" type="line"/>
    </contour>
    <contour>
      <point x="454.4" y="1330.4" type="curve" smooth="yes"/>
      <point x="454.4" y="1258.8"/>
      <point x="506.20000000000005" y="1194.4"/>
      <point x="590.0" y="1194.4" type="curve" smooth="yes"/>
      <point x="677.4" y="1194.4"/>
      <point x="731.4" y="1263.0"/>
      <point x="731.4" y="1337.4" type="curve" smooth="yes"/>
      <point x="731.4" y="1407.3999999999999"/>
      <point x="682.0" y="1466.3999999999999"/>
      <point x="599.0" y="1466.3999999999999" type="curve" smooth="yes"/>
      <point x="510.8" y="1466.3999999999999"/>
      <point x="454.4" y="1403.1999999999998"/>
    </contour>
  </outline>
</glyph>
<glyph name="j" format="2">
	<unicode hex="006A"/>
	<advance width="564.6"/>
	<outline>
		<contour>
			<point x="436.6" y="1330.4" type="curve" smooth="yes"/>
			<point x="436.6" y="1258.8"/>
			<point x="488.4" y="1194.4"/>
			<point x="572.2" y="1194.4" type="curve" smooth="yes"/>
			<point x="659.6" y="1194.4"/>
			<point x="713.6" y="1263"/>
			<point x="713.6" y="1337.4" type="curve" smooth="yes"/>
			<point x="713.6" y="1407.4"/>
			<point x="664.2" y="1466.4"/>
			<point x="581.2" y="1466.4" type="curve" smooth="yes"/>
			<point x="493" y="1466.4"/>
			<point x="436.6" y="1403.2"/>
		</contour>
		<contour>
			<point x="291.8" y="110.8" type="curve" smooth="yes"/>
			<point x="552.8" y="914" type="line" smooth="yes"/>
			<point x="580" y="999.4"/>
			<point x="566" y="1043.2"/>
			<point x="470" y="1043.2" type="curve" smooth="yes"/>
			<point x="350" y="1043.2"/>
			<point x="213.6" y="942.8"/>
			<point x="41.4" y="696.4" type="curve"/>
			<point x="51.6" y="688.6" type="line"/>
			<point x="222.4" y="869.6"/>
			<point x="311" y="905"/>
			<point x="382.2" y="890.6" type="curve"/>
			<point x="354" y="936" type="line"/>
			<point x="36.4" y="-74.6" type="line" smooth="yes"/>
			<point x="-53.4" y="-357.4"/>
			<point x="-106.8" y="-413.6"/>
			<point x="-168.8" y="-413.6" type="curve" smooth="yes"/>
			<point x="-213" y="-413.6"/>
			<point x="-230.6" y="-393.4"/>
			<point x="-214.2" y="-314.6" type="curve" smooth="yes"/>
			<point x="-197.8" y="-235.6"/>
			<point x="-214" y="-202.8"/>
			<point x="-277.8" y="-202.8" type="curve" smooth="yes"/>
			<point x="-349" y="-202.8"/>
			<point x="-390.4" y="-259.8"/>
			<point x="-390.4" y="-324.6" type="curve" smooth="yes"/>
			<point x="-390.4" y="-402.4"/>
			<point x="-332" y="-465"/>
			<point x="-219" y="-465" type="curve" smooth="yes"/>
			<point x="-36.8" y="-465"/>
			<point x="164.6" y="-282.6"/>
		</contour>
	</outline>
	<anchor name="top" x="583.8" y="1430"/>
	<anchor name="bottom" x="-143.4" y="-443"/>
</glyph>
<glyph name="k" format="2">
	<unicode hex="006B"/>
	<advance width="1037.4"/>
	<outline>
		<contour>
			<point x="666.2" y="1486" type="line"/>
			<point x="659.4" y="1486" type="line"/>
			<point x="249.8" y="1403.2" type="line"/>
			<point x="247.4" y="1391.8" type="line"/>
			<point x="304.4" y="1350.1302980132"/>
			<point x="362.6" y="1307.517706518"/>
			<point x="398.6" y="1281.2" type="curve"/>
			<point x="-23.6" y="0" type="line"/>
			<point x="186.2" y="0" type="line"/>
		</contour>
		<contour>
			<point x="360.8" y="556.6" type="line"/>
			<point x="490.2" y="43.4"/>
			<point x="540" y="-22"/>
			<point x="633" y="-22" type="curve" smooth="yes"/>
			<point x="734.8" y="-22"/>
			<point x="828" y="47.6"/>
			<point x="981.6" y="332.2" type="curve"/>
			<point x="969.2" y="339.6" type="line"/>
			<point x="848.8" y="163.6"/>
			<point x="790.2" y="123.6"/>
			<point x="745.4" y="123.6" type="curve" smooth="yes"/>
			<point x="692.4" y="123.6"/>
			<point x="633.2" y="228"/>
			<point x="514.8" y="705.2" type="curve"/>
			<point x="458.8" y="631.8" type="line"/>
			<point x="622.2" y="812.4"/>
			<point x="785.4" y="914.6"/>
			<point x="855.8" y="914.6" type="curve" smooth="yes"/>
			<point x="879.6" y="914.6"/>
			<point x="888" y="901.6"/>
			<point x="881.6" y="846.8" type="curve" smooth="yes"/>
			<point x="875.2" y="792"/>
			<point x="892.6" y="762.6"/>
			<point x="952.2" y="762.6" type="curve" smooth="yes"/>
			<point x="1031" y="762.6"/>
			<point x="1104.8" y="827.4"/>
			<point x="1104.8" y="926.2" type="curve" smooth="yes"/>
			<point x="1104.8" y="994.6"/>
			<point x="1062.2" y="1046"/>
			<point x="968.8" y="1046" type="curve" smooth="yes"/>
			<point x="857" y="1046"/>
			<point x="722.4" y="953.4"/>
			<point x="364.8" y="569.6" type="curve"/>
		</contour>
	</outline>
	<anchor name="UCtop" x="839.6" y="1430"/>
	<anchor name="bottom" x="407.6" y="0"/>
</glyph>
<glyph name="l" format="2">
	<unicode hex="006C"/>
	<advance width="563.2"/>
	<outline>
		<contour>
			<point x="399" y="1281.4" type="curve"/>
			<point x="24.8" y="113" type="line" smooth="yes"/>
			<point x="-7.2" y="13.8"/>
			<point x="14.2" y="-22"/>
			<point x="113.4" y="-22" type="curve" smooth="yes"/>
			<point x="216.4" y="-22"/>
			<point x="361.8" y="81.2"/>
			<point x="533.4" y="332.6" type="curve"/>
			<point x="523.6" y="339.8" type="line"/>
			<point x="331.4" y="134.8"/>
			<point x="225" y="109"/>
			<point x="179.2" y="128.6" type="curve"/>
			<point x="220.8" y="87.2" type="line"/>
			<point x="669.4" y="1486" type="line"/>
			<point x="662.6" y="1486" type="line"/>
			<point x="250.2" y="1403.2" type="line"/>
			<point x="247.8" y="1391.8" type="line"/>
			<point x="304.8" y="1350.2052980132"/>
			<point x="363" y="1307.6703380969"/>
		</contour>
	</outline>
	<anchor name="UCtop" x="507.6" y="1430"/>
	<anchor name="bottom" x="110.8" y="0"/>
	<anchor name="right" x="662.6" y="1464"/>
	<anchor name="mid" x="574.2" y="582"/>
</glyph>
<glyph name="m" format="2">
	<unicode hex="006D"/>
	<advance width="1683.6"/>
	<outline>
		<contour>
			<point x="1315.4" y="88.2" type="line"/>
			<point x="1555.4" y="677.4" type="line" smooth="yes"/>
			<point x="1607" y="804.2"/>
			<point x="1616.8" y="847.8"/>
			<point x="1616.8" y="894.6" type="curve" smooth="yes"/>
			<point x="1616.8" y="977.8"/>
			<point x="1567.2" y="1046"/>
			<point x="1439.6" y="1046" type="curve" smooth="yes"/>
			<point x="1289.6" y="1046"/>
			<point x="1165.6" y="940"/>
			<point x="957.8" y="575.8" type="curve"/>
			<point x="975.8" y="575.8" type="line"/>
			<point x="1043.8" y="773.4" type="line" smooth="yes"/>
			<point x="1062.8" y="830.8"/>
			<point x="1069.8" y="867"/>
			<point x="1069.8" y="900.2" type="curve" smooth="yes"/>
			<point x="1069.8" y="989"/>
			<point x="1015.2" y="1046"/>
			<point x="905.4" y="1046" type="curve" smooth="yes"/>
			<point x="767.8" y="1046"/>
			<point x="653.8" y="959.8"/>
			<point x="458" y="613.2" type="curve"/>
			<point x="467.4" y="613.2" type="line"/>
			<point x="597.6" y="1021.6" type="line"/>
			<point x="550" y="1038"/>
			<point x="517" y="1044.8"/>
			<point x="459.8" y="1044.8" type="curve" smooth="yes"/>
			<point x="306" y="1044.8"/>
			<point x="196" y="941.8"/>
			<point x="58.4" y="612" type="curve"/>
			<point x="69.6" y="606.8" type="line"/>
			<point x="199.4" y="839.8"/>
			<point x="283.4" y="891.2"/>
			<point x="327.6" y="891.2" type="curve" smooth="yes"/>
			<point x="351.8" y="891.2"/>
			<point x="355" y="868.6"/>
			<point x="346" y="842.6" type="curve"/>
			<point x="62.2" y="0" type="line"/>
			<point x="270.2" y="0" type="line"/>
			<point x="447" y="527" type="line" smooth="yes"/>
			<point x="505.8" y="694.8"/>
			<point x="668.6" y="879.6"/>
			<point x="779.2" y="879.6" type="curve" smooth="yes"/>
			<point x="824.4" y="879.6"/>
			<point x="849" y="865.4"/>
			<point x="849" y="827.2" type="curve" smooth="yes"/>
			<point x="849" y="805.6"/>
			<point x="841.6" y="776.2"/>
			<point x="821" y="717.6" type="curve" smooth="yes"/>
			<point x="569.8" y="0" type="line"/>
			<point x="780.4" y="0" type="line"/>
			<point x="964.8" y="527.8" type="line"/>
			<point x="1014.2" y="663"/>
			<point x="1173.4" y="879.6"/>
			<point x="1309.8" y="879.6" type="curve" smooth="yes"/>
			<point x="1366.2" y="879.6"/>
			<point x="1392.8" y="857.8"/>
			<point x="1392.8" y="818.6" type="curve" smooth="yes"/>
			<point x="1392.8" y="793.4"/>
			<point x="1381.2" y="762.8"/>
			<point x="1341" y="664.8" type="curve" smooth="yes"/>
			<point x="1108.4" y="101.4" type="line" smooth="yes"/>
			<point x="1074" y="17.4"/>
			<point x="1110.8" y="-22"/>
			<point x="1207.6" y="-22" type="curve" smooth="yes"/>
			<point x="1321" y="-22"/>
			<point x="1469.6" y="76.2"/>
			<point x="1646.8" y="326.4" type="curve"/>
			<point x="1637.2" y="334.2" type="line"/>
			<point x="1455" y="148.4"/>
			<point x="1340.6" y="112.6"/>
			<point x="1273.2" y="125" type="curve"/>
		</contour>
	</outline>
	<anchor name="top" x="1012.2" y="1024"/>
	<anchor name="bottom" x="690.2" y="0"/>
</glyph>
<glyph name="n" format="2">
	<unicode hex="006E"/>
	<advance width="1187.2"/>
	<outline>
		<contour>
			<point x="69.6" y="606.8" type="line"/>
			<point x="199.4" y="839.8"/>
			<point x="283.4" y="891.2"/>
			<point x="327.6" y="891.2" type="curve" smooth="yes"/>
			<point x="351.8" y="891.2"/>
			<point x="355" y="868.6"/>
			<point x="346" y="842.6" type="curve"/>
			<point x="62.2" y="0" type="line"/>
			<point x="270.2" y="0" type="line"/>
			<point x="446.2" y="522.2" type="line"/>
			<point x="489.2" y="643.2"/>
			<point x="662.4" y="879.6"/>
			<point x="810.8" y="879.6" type="curve" smooth="yes"/>
			<point x="868.8" y="879.6"/>
			<point x="896.4" y="857.2"/>
			<point x="896.4" y="816.4" type="curve" smooth="yes"/>
			<point x="896.4" y="792.8"/>
			<point x="884.8" y="762.8"/>
			<point x="844.6" y="664.8" type="curve" smooth="yes"/>
			<point x="612" y="101.4" type="line" smooth="yes"/>
			<point x="577.6" y="17.4"/>
			<point x="614.4" y="-22"/>
			<point x="711.2" y="-22" type="curve" smooth="yes"/>
			<point x="824.6" y="-22"/>
			<point x="973.2" y="76.2"/>
			<point x="1150.4" y="326.4" type="curve"/>
			<point x="1140.8" y="334.2" type="line"/>
			<point x="958.6" y="148.4"/>
			<point x="844.2" y="112.6"/>
			<point x="776.8" y="125" type="curve"/>
			<point x="819" y="88.2" type="line"/>
			<point x="1059" y="677.4" type="line" smooth="yes"/>
			<point x="1110.6" y="804.2"/>
			<point x="1120.4" y="847.8"/>
			<point x="1120.4" y="894.6" type="curve" smooth="yes"/>
			<point x="1120.4" y="977.8"/>
			<point x="1070" y="1046"/>
			<point x="940.6" y="1046" type="curve" smooth="yes"/>
			<point x="800.4" y="1046"/>
			<point x="680.4" y="978.2"/>
			<point x="446.8" y="585.2" type="curve"/>
			<point x="460.2" y="585.2" type="line"/>
			<point x="597.6" y="1021.6" type="line"/>
			<point x="550" y="1038"/>
			<point x="517" y="1044.8"/>
			<point x="459.8" y="1044.8" type="curve" smooth="yes"/>
			<point x="306" y="1044.8"/>
			<point x="196" y="941.8"/>
			<point x="58.4" y="612" type="curve"/>
		</contour>
	</outline>
	<anchor name="top" x="748.6" y="1024"/>
	<anchor name="bottom" x="450.6" y="0"/>
</glyph>
<glyph name="o" format="2">
	<unicode hex="006F"/>
	<advance width="968.8"/>
	<outline>
		<contour>
			<point x="647.4" y="1046" type="curve" smooth="yes"/>
			<point x="324.6" y="1046"/>
			<point x="38.6" y="662"/>
			<point x="38.6" y="292.8" type="curve" smooth="yes"/>
			<point x="38.6" y="95"/>
			<point x="134.4" y="-22"/>
			<point x="319.6" y="-22" type="curve" smooth="yes"/>
			<point x="642.4" y="-22"/>
			<point x="928.4" y="362"/>
			<point x="928.4" y="731.2" type="curve" smooth="yes"/>
			<point x="928.4" y="929"/>
			<point x="832.6" y="1046"/>
		</contour>
		<contour>
			<point x="315.4" y="19.8" type="curve" smooth="yes"/>
			<point x="255.4" y="19.8"/>
			<point x="230.2" y="66.4"/>
			<point x="230.2" y="168.4" type="curve" smooth="yes"/>
			<point x="230.2" y="527.8"/>
			<point x="459.8" y="1004.2"/>
			<point x="651.6" y="1004.2" type="curve" smooth="yes"/>
			<point x="711.6" y="1004.2"/>
			<point x="736.8" y="957.6"/>
			<point x="736.8" y="855.6" type="curve" smooth="yes"/>
			<point x="736.8" y="496.2"/>
			<point x="507.2" y="19.8"/>
		</contour>
	</outline>
	<anchor name="top" x="642" y="1024"/>
	<anchor name="bottom" x="306" y="0"/>
	<anchor name="horn" x="799.4" y="1024"/>
	<anchor name="right" x="403.4" y="0"/>
</glyph>
<glyph name="p" format="2">
	<unicode hex="0070"/>
	<advance width="1142.8"/>
	<outline>
		<contour>
			<point x="364.4" y="260.8" type="curve" smooth="yes"/>
			<point x="438.2" y="517" type="line" smooth="yes"/>
			<point x="501.8" y="701.8"/>
			<point x="658.2" y="906.8"/>
			<point x="801.6" y="906.8" type="curve" smooth="yes"/>
			<point x="860.6" y="906.8"/>
			<point x="894.6" y="867.4"/>
			<point x="894.6" y="769.8" type="curve" smooth="yes"/>
			<point x="894.6" y="429.6"/>
			<point x="641.6" y="21.4"/>
			<point x="459.4" y="21.4" type="curve" smooth="yes"/>
			<point x="384" y="21.4"/>
			<point x="350.2" y="86"/>
			<point x="350.2" y="166" type="curve" smooth="yes"/>
			<point x="350.2" y="196.2"/>
			<point x="355.4" y="229.4"/>
		</contour>
		<contour>
			<point x="230.8" y="120.4" type="line"/>
			<point x="259.4348314607" y="37.695505618"/>
			<point x="330.8" y="-22"/>
			<point x="470.6" y="-22" type="curve" smooth="yes"/>
			<point x="772.4" y="-22"/>
			<point x="1125.8" y="399.6"/>
			<point x="1125.8" y="802.4" type="curve" smooth="yes"/>
			<point x="1125.8" y="964.2724458204"/>
			<point x="1048.8" y="1046"/>
			<point x="911.6" y="1046" type="curve" smooth="yes"/>
			<point x="773" y="1046"/>
			<point x="624.9462288945" y="946.4759398678"/>
			<point x="445.6" y="600" type="curve"/>
			<point x="460" y="600" type="line"/>
			<point x="591.4" y="1021.8" type="line"/>
			<point x="544.4" y="1038"/>
			<point x="511.6" y="1044.8"/>
			<point x="455" y="1044.8" type="curve" smooth="yes"/>
			<point x="301.2" y="1044.8"/>
			<point x="191.2" y="941.8"/>
			<point x="53.6" y="612" type="curve"/>
			<point x="64.8" y="606.8" type="line"/>
			<point x="194.6" y="839.8"/>
			<point x="278.6" y="891.2"/>
			<point x="322.8" y="891.2" type="curve" smooth="yes"/>
			<point x="345.4" y="891.2"/>
			<point x="350.8" y="872.6"/>
			<point x="341.2" y="842.6" type="curve"/>
			<point x="-31.6" y="-384" type="line"/>
			<point x="-167.6" y="-415.2" type="line"/>
			<point x="-174.4" y="-443" type="line"/>
			<point x="324" y="-443" type="line"/>
			<point x="331" y="-415" type="line"/>
			<point x="180.2" y="-384.2" type="line"/>
			<point x="322.2" y="94.2" type="line"/>
		</contour>
	</outline>
	<anchor name="top" x="726.4" y="1024"/>
	<anchor name="bottom" x="64.2" y="-443"/>
</glyph>
<glyph name="q" format="2">
  <advance width="1043"/>
  <unicode hex="0071"/>
  <anchor x="694.6" y="1024.0" name="top"/>
  <anchor x="526.0" y="-443.0" name="bottom"/>
  <outline>
    <contour>
      <point x="426.8" y="-384.4" type="line"/>
      <point x="267.0" y="-415.0" type="line"/>
      <point x="259.2" y="-443.0" type="line"/>
      <point x="755.8" y="-443.0" type="line"/>
      <point x="763.4" y="-415.2" type="line"/>
      <point x="638.8" y="-384.0" type="line"/>
      <point x="1061.8000000000002" y="1024.0" type="line"/>
      <point x="862.0" y="1024.0" type="line"/>
      <point x="826.0" y="917.4000000000001" type="line"/>
      <point x="669.4000000000001" y="457.0" type="line" smooth="yes"/>
      <point x="501.79999999999995" y="208.6"/>
      <point x="388.8" y="129.6"/>
      <point x="315.8" y="129.6" type="curve" smooth="yes"/>
      <point x="261.6" y="129.6"/>
      <point x="226.4" y="157.2"/>
      <point x="226.4" y="238.39999999999998" type="curve" smooth="yes"/>
      <point x="226.4" y="476.6"/>
      <point x="482.6" y="959.8"/>
      <point x="709.6" y="959.8" type="curve" smooth="yes"/>
      <point x="774.8000000000001" y="959.8"/>
      <point x="823.8000000000001" y="928.8000000000001"/>
      <point x="862.0" y="824.6" type="curve"/>
      <point x="868.6" y="863.1999999999999" type="line"/>
      <point x="814.4" y="984.8"/>
      <point x="735.4" y="1042.8"/>
      <point x="646.6" y="1042.8" type="curve" smooth="yes"/>
      <point x="333.0" y="1042.8"/>
      <point x="-2.4000000000000004" y="511.0"/>
      <point x="-2.4000000000000004" y="173.4" type="curve" smooth="yes"/>
      <point x="-2.4000000000000004" y="49.2"/>
      <point x="77.8" y="-22.0"/>
      <point x="190.79999999999998" y="-22.0" type="curve" smooth="yes"/>
      <point x="298.0" y="-22.0"/>
      <point x="433.6" y="45.6"/>
      <point x="691.6" y="452.0" type="curve"/>
      <point x="679.0" y="452.0" type="line"/>
    </contour>
  </outline>
</glyph>
<glyph name="r" format="2">
	<unicode hex="0072"/>
	<advance width="895.6"/>
	<outline>
		<contour>
			<point x="346" y="842.6" type="curve"/>
			<point x="62.2" y="0" type="line"/>
			<point x="270.2" y="0" type="line"/>
			<point x="390" y="354.6" type="line" smooth="yes"/>
			<point x="497.8" y="673.2"/>
			<point x="659.4" y="890.4"/>
			<point x="757.6" y="890.4" type="curve" smooth="yes"/>
			<point x="779.2" y="890.4"/>
			<point x="787.2" y="879.4"/>
			<point x="782.8" y="830.4" type="curve" smooth="yes"/>
			<point x="778.4" y="781.4"/>
			<point x="798.2" y="758.2"/>
			<point x="852.8" y="758.2" type="curve" smooth="yes"/>
			<point x="935.4" y="758.2"/>
			<point x="1009.4" y="827.6"/>
			<point x="1009.4" y="927.4" type="curve" smooth="yes"/>
			<point x="1009.4" y="998.2"/>
			<point x="967.8" y="1046"/>
			<point x="879.6" y="1046" type="curve" smooth="yes"/>
			<point x="760.6" y="1046"/>
			<point x="641.4" y="955.8"/>
			<point x="443.2" y="548" type="curve"/>
			<point x="445.8" y="537.2" type="line"/>
			<point x="597.6" y="1021.6" type="line"/>
			<point x="550" y="1038"/>
			<point x="517" y="1044.8"/>
			<point x="459.8" y="1044.8" type="curve" smooth="yes"/>
			<point x="306" y="1044.8"/>
			<point x="196" y="941.8"/>
			<point x="58.4" y="612" type="curve"/>
			<point x="69.6" y="606.8" type="line"/>
			<point x="199.4" y="839.8"/>
			<point x="283.4" y="891.2"/>
			<point x="327.6" y="891.2" type="curve" smooth="yes"/>
			<point x="351.8" y="891.2"/>
			<point x="355" y="868.6"/>
		</contour>
	</outline>
	<anchor name="top" x="639.6" y="1024"/>
	<anchor name="bottom" x="176.2" y="0"/>
</glyph>
<glyph name="s" format="2">
	<unicode hex="0073"/>
	<advance width="732.6"/>
	<outline>
		<contour>
			<point x="145.2" y="234.2" type="curve" smooth="yes"/>
			<point x="18" y="234.2"/>
			<point x="-31.2" y="198.6"/>
			<point x="-31.2" y="116" type="curve" smooth="yes"/>
			<point x="-31.2" y="32.2"/>
			<point x="28.4" y="-22"/>
			<point x="191" y="-22" type="curve" smooth="yes"/>
			<point x="427.8" y="-22"/>
			<point x="594" y="136.2"/>
			<point x="594" y="337" type="curve" smooth="yes"/>
			<point x="594" y="419.6"/>
			<point x="561.2" y="498.2"/>
			<point x="461.2" y="616.6" type="curve" smooth="yes"/>
			<point x="361.2" y="735"/>
			<point x="335.8" y="789.8"/>
			<point x="335.8" y="850" type="curve" smooth="yes"/>
			<point x="335.8" y="946"/>
			<point x="403" y="1001.2"/>
			<point x="514.6" y="1001.2" type="curve" smooth="yes"/>
			<point x="555.6" y="1001.2"/>
			<point x="580.4" y="995.6"/>
			<point x="597.2" y="973.6" type="curve" smooth="yes"/>
			<point x="614" y="951.6"/>
			<point x="621.2" y="905"/>
			<point x="616.2" y="805.4" type="curve" smooth="yes"/>
			<point x="741" y="805.4"/>
			<point x="781.2" y="840.8"/>
			<point x="781.2" y="909.6" type="curve" smooth="yes"/>
			<point x="781.2" y="990"/>
			<point x="726.4" y="1046"/>
			<point x="568.2" y="1046" type="curve" smooth="yes"/>
			<point x="343.6" y="1046"/>
			<point x="190.6" y="897.2"/>
			<point x="190.6" y="713" type="curve" smooth="yes"/>
			<point x="190.6" y="628.8"/>
			<point x="220" y="548.4"/>
			<point x="321" y="435.2" type="curve" smooth="yes"/>
			<point x="422" y="322"/>
			<point x="453.6" y="257.2"/>
			<point x="453.6" y="194.8" type="curve" smooth="yes"/>
			<point x="453.6" y="92.8"/>
			<point x="383.4" y="34.2"/>
			<point x="257.2" y="34.2" type="curve" smooth="yes"/>
			<point x="222.2" y="34.2"/>
			<point x="196" y="38.6"/>
			<point x="176.8" y="63.8" type="curve" smooth="yes"/>
			<point x="157.6" y="89"/>
			<point x="147.6" y="140.8"/>
		</contour>
	</outline>
	<anchor name="top" x="516.2" y="1024"/>
	<anchor name="bottom" x="239.4" y="0"/>
</glyph>
<glyph name="t" format="2">
  <advance width="669.4000000000001"/>
  <unicode hex="0074"/>
  <anchor x="218.20000000000002" y="0.0" name="bottom"/>
  <anchor x="702.2" y="1535.0" name="right"/>
  <outline>
    <contour>
      <point x="140.4" y="967.4000000000001" type="line"/>
      <point x="765.6" y="967.4000000000001" type="line"/>
      <point x="779.2" y="1024.0" type="line"/>
      <point x="156.60000000000002" y="1024.0" type="line"/>
    </contour>
    <contour>
      <point x="322.0" y="284.2" type="curve" smooth="yes"/>
      <point x="650.4" y="1284.2" type="line"/>
      <point x="436.8" y="1284.2" type="line"/>
      <point x="113.8" y="301.40000000000003" type="line" smooth="yes"/>
      <point x="74.8" y="185.2"/>
      <point x="71.2" y="137.0"/>
      <point x="71.2" y="107.0" type="curve" smooth="yes"/>
      <point x="71.2" y="13.0"/>
      <point x="125.8" y="-22.0"/>
      <point x="193.0" y="-22.0" type="curve" smooth="yes"/>
      <point x="290.4" y="-22.0"/>
      <point x="421.6" y="23.799999999999997"/>
      <point x="630.0" y="341.8" type="curve"/>
      <point x="619.6" y="350.0" type="line"/>
      <point x="470.4" y="169.4"/>
      <point x="389.8" y="137.8"/>
      <point x="341.6" y="137.8" type="curve" smooth="yes"/>
      <point x="312.2" y="137.8"/>
      <point x="295.8" y="148.20000000000002"/>
      <point x="295.8" y="174.4" type="curve" smooth="yes"/>
      <point x="295.8" y="192.8"/>
      <point x="299.8" y="219.6"/>
    </contour>
  </outline>
</glyph>
<glyph name="v" format="2">
	<unicode hex="0076"/>
	<advance width="1004"/>
	<outline>
		<contour>
			<point x="970.2" y="839.6" type="curve" smooth="yes"/>
			<point x="970.2" y="984"/>
			<point x="921.4" y="1045.2"/>
			<point x="837.6" y="1045.2" type="curve" smooth="yes"/>
			<point x="764.4" y="1045.2"/>
			<point x="724.6" y="995.8"/>
			<point x="724.6" y="935.2" type="curve" smooth="yes"/>
			<point x="724.6" y="812.8"/>
			<point x="884" y="838.8"/>
			<point x="884" y="646.2" type="curve" smooth="yes"/>
			<point x="884" y="384.6"/>
			<point x="633.8" y="102.4"/>
			<point x="439.2" y="102.4" type="curve" smooth="yes"/>
			<point x="377.8" y="102.4"/>
			<point x="345.8" y="125.8"/>
			<point x="345.8" y="192.8" type="curve" smooth="yes"/>
			<point x="345.8" y="231.2"/>
			<point x="356.8" y="284.8"/>
			<point x="378.6" y="356" type="curve" smooth="yes"/>
			<point x="584.2" y="1020" type="line"/>
			<point x="535.2" y="1036.8"/>
			<point x="503.2" y="1044.8"/>
			<point x="447.8" y="1044.8" type="curve" smooth="yes"/>
			<point x="288.4" y="1044.8"/>
			<point x="180.2" y="941.4"/>
			<point x="42.6" y="612" type="curve"/>
			<point x="53.8" y="606.8" type="line"/>
			<point x="183.6" y="839.8"/>
			<point x="267.6" y="891.2"/>
			<point x="311.8" y="891.2" type="curve" smooth="yes"/>
			<point x="336" y="891.2"/>
			<point x="339.2" y="870.4"/>
			<point x="330.2" y="842.6" type="curve"/>
			<point x="167.8" y="328.8" type="line" smooth="yes"/>
			<point x="147.4" y="264.8"/>
			<point x="137.2" y="208.8"/>
			<point x="137.2" y="162.2" type="curve" smooth="yes"/>
			<point x="137.2" y="42"/>
			<point x="204.2" y="-22"/>
			<point x="340.8" y="-22" type="curve" smooth="yes"/>
			<point x="608.2" y="-22"/>
			<point x="970.2" y="387.4"/>
		</contour>
	</outline>
	<anchor name="top" x="655.4" y="1024"/>
	<anchor name="bottom" x="373.4" y="0"/>
</glyph>
<glyph name="w" format="2">
	<unicode hex="0077"/>
	<advance width="1506.6"/>
	<outline>
		<contour>
			<point x="890.4" y="1024" type="line"/>
			<point x="797.2" y="618.6" type="line" smooth="yes"/>
			<point x="717.6" y="271.4"/>
			<point x="540" y="102.4"/>
			<point x="421.6" y="102.4" type="curve" smooth="yes"/>
			<point x="370" y="102.4"/>
			<point x="341.2" y="120"/>
			<point x="341.2" y="179.6" type="curve" smooth="yes"/>
			<point x="341.2" y="217"/>
			<point x="352.2" y="271.2"/>
			<point x="376.2" y="348" type="curve" smooth="yes"/>
			<point x="585" y="1020" type="line"/>
			<point x="536" y="1036.8"/>
			<point x="504" y="1044.8"/>
			<point x="448.6" y="1044.8" type="curve" smooth="yes"/>
			<point x="289.2" y="1044.8"/>
			<point x="181" y="941.4"/>
			<point x="43.4" y="612" type="curve"/>
			<point x="54.6" y="606.8" type="line"/>
			<point x="184.4" y="839.8"/>
			<point x="268.4" y="891.2"/>
			<point x="312.6" y="891.2" type="curve" smooth="yes"/>
			<point x="336.8" y="891.2"/>
			<point x="340" y="870.4"/>
			<point x="331" y="842.6" type="curve"/>
			<point x="167" y="326.4" type="line" smooth="yes"/>
			<point x="144.4" y="256.2"/>
			<point x="133.8" y="197.2"/>
			<point x="133.8" y="149.6" type="curve" smooth="yes"/>
			<point x="133.8" y="32.6"/>
			<point x="197.6" y="-22"/>
			<point x="315.6" y="-22" type="curve" smooth="yes"/>
			<point x="467.8" y="-22"/>
			<point x="659" y="126.2"/>
			<point x="783.8" y="480.4" type="curve"/>
			<point x="777.4" y="480.4" type="line"/>
			<point x="717.8" y="262.8" type="line" smooth="yes"/>
			<point x="705.8" y="217.6"/>
			<point x="699" y="179"/>
			<point x="699" y="145.2" type="curve" smooth="yes"/>
			<point x="699" y="33.2"/>
			<point x="766.8" y="-22"/>
			<point x="894.2" y="-22" type="curve" smooth="yes"/>
			<point x="1154.8" y="-22"/>
			<point x="1469.8" y="387.4"/>
			<point x="1469.8" y="839.6" type="curve" smooth="yes"/>
			<point x="1469.8" y="984"/>
			<point x="1421" y="1045.2"/>
			<point x="1337.2" y="1045.2" type="curve" smooth="yes"/>
			<point x="1264" y="1045.2"/>
			<point x="1224.2" y="995.8"/>
			<point x="1224.2" y="935.2" type="curve" smooth="yes"/>
			<point x="1224.2" y="812.8"/>
			<point x="1383.6" y="838.8"/>
			<point x="1383.6" y="646.2" type="curve" smooth="yes"/>
			<point x="1383.6" y="387"/>
			<point x="1185.4" y="102.4"/>
			<point x="995.4" y="102.4" type="curve" smooth="yes"/>
			<point x="931.2" y="102.4"/>
			<point x="906" y="129.6"/>
			<point x="906" y="189" type="curve" smooth="yes"/>
			<point x="906" y="222.8"/>
			<point x="914.2" y="267.4"/>
			<point x="927.4" y="323.2" type="curve" smooth="yes"/>
			<point x="1088.4" y="1024" type="line"/>
		</contour>
	</outline>
	<anchor name="top" x="962" y="1024"/>
	<anchor name="bottom" x="694" y="0"/>
</glyph>
<glyph name="x" format="2">
	<unicode hex="0078"/>
	<advance width="1024.2"/>
	<outline>
		<contour>
			<point x="551.8" y="508.6" type="line"/>
			<point x="668" y="690.4" type="line" smooth="yes"/>
			<point x="763" y="839"/>
			<point x="830.4" y="894.2"/>
			<point x="887.6" y="894.2" type="curve" smooth="yes"/>
			<point x="919.4" y="894.2"/>
			<point x="927" y="882.2"/>
			<point x="925.4" y="836.6" type="curve" smooth="yes"/>
			<point x="923.8" y="791"/>
			<point x="940.2" y="774.2"/>
			<point x="987.8" y="774.2" type="curve" smooth="yes"/>
			<point x="1070.2" y="774.2"/>
			<point x="1129.4" y="845.2"/>
			<point x="1129.4" y="933.2" type="curve" smooth="yes"/>
			<point x="1129.4" y="999.8"/>
			<point x="1078.4" y="1046"/>
			<point x="999.8" y="1046" type="curve" smooth="yes"/>
			<point x="907.8" y="1046"/>
			<point x="833.2" y="1002.8"/>
			<point x="736.6" y="852.2" type="curve" smooth="yes"/>
			<point x="542.8" y="549.8" type="line"/>
			<point x="480.6" y="510.2" type="line"/>
			<point x="348.4" y="301.2" type="line" smooth="yes"/>
			<point x="273" y="182.2"/>
			<point x="196.8" y="130.8"/>
			<point x="147.6" y="130.8" type="curve" smooth="yes"/>
			<point x="118.4" y="130.8"/>
			<point x="107.8" y="144"/>
			<point x="110.6" y="187.8" type="curve" smooth="yes"/>
			<point x="113.4" y="231.6"/>
			<point x="96.8" y="251.4"/>
			<point x="49" y="251.4" type="curve" smooth="yes"/>
			<point x="-33.2" y="251.4"/>
			<point x="-90.2" y="182.4"/>
			<point x="-90.2" y="92" type="curve" smooth="yes"/>
			<point x="-90.2" y="25.4"/>
			<point x="-42.8" y="-22"/>
			<point x="36" y="-22" type="curve" smooth="yes"/>
			<point x="136.4" y="-22"/>
			<point x="226.8" y="37"/>
			<point x="327.6" y="202.2" type="curve" smooth="yes"/>
			<point x="490.6" y="469.4" type="line"/>
		</contour>
		<contour>
			<point x="941.4" y="382.8" type="curve"/>
			<point x="928.4" y="382.8" type="line"/>
			<point x="853.8" y="188.6"/>
			<point x="788.8" y="119"/>
			<point x="745" y="119" type="curve" smooth="yes"/>
			<point x="723.2" y="119"/>
			<point x="708.6" y="134"/>
			<point x="699.2" y="177.6" type="curve" smooth="yes"/>
			<point x="541.2" y="905.2" type="line" smooth="yes"/>
			<point x="518.4" y="1008.6"/>
			<point x="478.8" y="1046"/>
			<point x="410.4" y="1046" type="curve" smooth="yes"/>
			<point x="292" y="1046"/>
			<point x="200.8" y="962.8"/>
			<point x="132.2" y="638" type="curve"/>
			<point x="145.2" y="638" type="line"/>
			<point x="208.4" y="834"/>
			<point x="264.8" y="905.8"/>
			<point x="304.6" y="905.8" type="curve" smooth="yes"/>
			<point x="324.8" y="905.8"/>
			<point x="338.6" y="887.6"/>
			<point x="348" y="846.4" type="curve" smooth="yes"/>
			<point x="506" y="118.8" type="line" smooth="yes"/>
			<point x="528.6" y="16.2"/>
			<point x="568.4" y="-22"/>
			<point x="636.8" y="-22" type="curve" smooth="yes"/>
			<point x="757.8" y="-22"/>
			<point x="857.4" y="60.2"/>
		</contour>
	</outline>
	<anchor name="top" x="680.6" y="1024"/>
	<anchor name="bottom" x="384.6" y="0"/>
</glyph>
<glyph name="y" format="2">
	<unicode hex="0079"/>
	<advance width="1038.6"/>
	<outline>
		<contour>
			<point x="62.4" y="594" type="line"/>
			<point x="148.8" y="828"/>
			<point x="196.2" y="876.6"/>
			<point x="243.4" y="876.6" type="curve" smooth="yes"/>
			<point x="271.2" y="876.6"/>
			<point x="298.2" y="849.2"/>
			<point x="326.6" y="741.6" type="curve" smooth="yes"/>
			<point x="357.6" y="625.8"/>
			<point x="394.2" y="329.2"/>
			<point x="422.8" y="-244.8" type="curve"/>
			<point x="609.2" y="-40.6" type="line"/>
			<point x="600" y="432.6"/>
			<point x="552.6" y="764.6"/>
			<point x="511" y="885.8" type="curve" smooth="yes"/>
			<point x="469.4" y="1007"/>
			<point x="423.6" y="1046"/>
			<point x="359.6" y="1046" type="curve" smooth="yes"/>
			<point x="235.4" y="1046"/>
			<point x="131" y="939.4"/>
			<point x="47.8" y="594" type="curve"/>
		</contour>
		<contour>
			<point x="514.2" y="-105" type="line"/>
			<point x="362.8" y="-299.4"/>
			<point x="189.6" y="-399.4"/>
			<point x="69.4" y="-399.4" type="curve" smooth="yes"/>
			<point x="23.4" y="-399.4"/>
			<point x="7" y="-378"/>
			<point x="26.2" y="-295.6" type="curve" smooth="yes"/>
			<point x="45.4" y="-213.2"/>
			<point x="28.8" y="-177.2"/>
			<point x="-42.4" y="-177.2" type="curve" smooth="yes"/>
			<point x="-121" y="-177.2"/>
			<point x="-170.2" y="-240.8"/>
			<point x="-170.2" y="-319" type="curve" smooth="yes"/>
			<point x="-170.2" y="-404.6"/>
			<point x="-118.4" y="-465"/>
			<point x="0.2" y="-465" type="curve" smooth="yes"/>
			<point x="195.4" y="-465"/>
			<point x="402.4" y="-341"/>
			<point x="628" y="-35.2" type="curve" smooth="yes"/>
			<point x="853.6" y="270.6"/>
			<point x="1053.4" y="821.2"/>
			<point x="1053.4" y="991" type="curve" smooth="yes"/>
			<point x="1053.4" y="1020.2"/>
			<point x="1035" y="1036"/>
			<point x="987.4" y="1036" type="curve" smooth="yes"/>
			<point x="955.2" y="1036"/>
			<point x="923" y="1033.4"/>
			<point x="887" y="1024" type="curve"/>
			<point x="887" y="584"/>
			<point x="754.4" y="195.4"/>
			<point x="538.4" y="-84.8" type="curve"/>
		</contour>
	</outline>
	<anchor name="top" x="646.2" y="1024"/>
	<anchor name="bottom" x="731.2" y="-132.8"/>
</glyph>
<glyph name="z" format="2">
	<unicode hex="007A"/>
	<advance width="854"/>
	<outline>
		<contour>
			<point x="-66.2" y="7.4" type="line"/>
			<point x="-36" y="-20" type="line"/>
			<point x="925.4" y="1017.4" type="line"/>
			<point x="895.2" y="1046.4" type="line"/>
		</contour>
		<contour>
			<point x="102.8" y="654.2" type="line"/>
			<point x="222.6" y="882.8"/>
			<point x="307.6" y="924"/>
			<point x="460.2" y="845.6" type="curve" smooth="yes"/>
			<point x="660.2" y="744.2" type="line"/>
			<point x="788.6" y="896.6" type="line"/>
			<point x="513.2" y="1021.4" type="line" smooth="yes"/>
			<point x="364.4" y="1088.6"/>
			<point x="221.8" y="1027.4"/>
			<point x="88.8" y="657.6" type="curve"/>
		</contour>
		<contour>
			<point x="312.6" y="23" type="line" smooth="yes"/>
			<point x="463.4" y="-77.8"/>
			<point x="618.4" y="-30.8"/>
			<point x="817.6" y="414" type="curve"/>
			<point x="803.6" y="418" type="line"/>
			<point x="658.4" y="159.4"/>
			<point x="545.4" y="87.4"/>
			<point x="384.4" y="213.4" type="curve" smooth="yes"/>
			<point x="242.2" y="322.4" type="line"/>
			<point x="102.8" y="167.4" type="line"/>
		</contour>
	</outline>
	<anchor name="top" x="535" y="1024"/>
	<anchor name="bottom" x="273" y="0"/>
</glyph>
<glyph name="braceleft" format="2">
	<unicode hex="007B"/>
	<advance width="569.8"/>
	<outline>
		<contour>
			<point x="70.4" y="603.8" type="line"/>
			<point x="141" y="597.6" type="line" smooth="yes"/>
			<point x="208.6" y="590.6"/>
			<point x="234.8" y="562.2"/>
			<point x="234.8" y="517.2" type="curve" smooth="yes"/>
			<point x="234.8" y="355.2"/>
			<point x="14.8" y="149.8"/>
			<point x="14.8" y="-31.4" type="curve" smooth="yes"/>
			<point x="14.8" y="-141.8"/>
			<point x="73" y="-219.6"/>
			<point x="205.4" y="-236" type="curve" smooth="yes"/>
			<point x="286" y="-246" type="line"/>
			<point x="299" y="-216.8" type="line"/>
			<point x="246.2" y="-205.8" type="line" smooth="yes"/>
			<point x="178.8" y="-192.4"/>
			<point x="151" y="-155"/>
			<point x="151" y="-84" type="curve" smooth="yes"/>
			<point x="151" y="81.4"/>
			<point x="339.4" y="298.6"/>
			<point x="339.4" y="468.6" type="curve" smooth="yes"/>
			<point x="339.4" y="545"/>
			<point x="291" y="602"/>
			<point x="191" y="619" type="curve"/>
			<point x="185.6" y="607" type="line"/>
			<point x="332.4" y="629.2"/>
			<point x="429.8" y="714"/>
			<point x="464.4" y="855.2" type="curve" smooth="yes"/>
			<point x="499" y="997.2"/>
			<point x="510.6" y="1133.8"/>
			<point x="542.8" y="1250.6" type="curve" smooth="yes"/>
			<point x="575" y="1367.4"/>
			<point x="641.8" y="1433.2"/>
			<point x="753" y="1448.8" type="curve" smooth="yes"/>
			<point x="812.2" y="1457" type="line"/>
			<point x="813.8" y="1486" type="line"/>
			<point x="729.4" y="1478.8" type="line" smooth="yes"/>
			<point x="543.8" y="1463"/>
			<point x="420.6" y="1356.4"/>
			<point x="377.2" y="1218.4" type="curve" smooth="yes"/>
			<point x="333.8" y="1080.4"/>
			<point x="347.6" y="937.2"/>
			<point x="324.8" y="808.4" type="curve" smooth="yes"/>
			<point x="302" y="679.6"/>
			<point x="250.4" y="651.6"/>
			<point x="148.8" y="642.2" type="curve" smooth="yes"/>
			<point x="80.8" y="637" type="line"/>
		</contour>
	</outline>
</glyph>
<glyph name="bar" format="2">
	<unicode hex="007C"/>
	<advance width="455.8"/>
	<outline>
		<contour>
			<point x="-103.8" y="-465" type="line"/>
			<point x="-20" y="-465" type="line"/>
			<point x="572.8" y="1535" type="line"/>
			<point x="488.8" y="1535" type="line"/>
		</contour>
	</outline>
</glyph>
<glyph name="braceright" format="2">
	<unicode hex="007D"/>
	<advance width="568.4"/>
	<outline>
		<contour>
			<point x="564.4" y="636.2" type="line"/>
			<point x="493.8" y="642.4" type="line" smooth="yes"/>
			<point x="426.2" y="649.4"/>
			<point x="400" y="677.8"/>
			<point x="400" y="722.8" type="curve" smooth="yes"/>
			<point x="400" y="884.8"/>
			<point x="620" y="1090.2"/>
			<point x="620" y="1271.4" type="curve" smooth="yes"/>
			<point x="620" y="1381.8"/>
			<point x="561.8" y="1459.6"/>
			<point x="429.4" y="1476" type="curve" smooth="yes"/>
			<point x="348.8" y="1486" type="line"/>
			<point x="335.8" y="1456.8" type="line"/>
			<point x="388.6" y="1445.8" type="line" smooth="yes"/>
			<point x="456" y="1432.4"/>
			<point x="483.8" y="1395"/>
			<point x="483.8" y="1324" type="curve" smooth="yes"/>
			<point x="483.8" y="1158.6"/>
			<point x="295.4" y="941.4"/>
			<point x="295.4" y="771.4" type="curve" smooth="yes"/>
			<point x="295.4" y="695"/>
			<point x="343.8" y="638"/>
			<point x="443.8" y="621" type="curve"/>
			<point x="449.2" y="633" type="line"/>
			<point x="302.4" y="610.8"/>
			<point x="205" y="526"/>
			<point x="170.4" y="384.8" type="curve" smooth="yes"/>
			<point x="135.8" y="242.8"/>
			<point x="124.2" y="106.2"/>
			<point x="92" y="-10.6" type="curve" smooth="yes"/>
			<point x="59.8" y="-127.4"/>
			<point x="-7" y="-193.2"/>
			<point x="-118.2" y="-208.8" type="curve" smooth="yes"/>
			<point x="-177.4" y="-217" type="line"/>
			<point x="-179" y="-246" type="line"/>
			<point x="-94.6" y="-238.8" type="line" smooth="yes"/>
			<point x="91" y="-223"/>
			<point x="214.2" y="-116.4"/>
			<point x="257.6" y="21.6" type="curve" smooth="yes"/>
			<point x="301" y="159.6"/>
			<point x="287.2" y="302.8"/>
			<point x="310" y="431.6" type="curve" smooth="yes"/>
			<point x="332.8" y="560.4"/>
			<point x="384.4" y="588.4"/>
			<point x="486" y="597.8" type="curve" smooth="yes"/>
			<point x="554" y="603" type="line"/>
		</contour>
	</outline>
</glyph>
<glyph name="asciitilde" format="2">
	<unicode hex="007E"/>
	<advance width="1150"/>
	<outline>
		<contour>
			<point x="306.2" y="442.4" type="curve"/>
			<point x="340.4" y="442.4" type="line"/>
			<point x="371.4" y="514.4"/>
			<point x="407.8" y="551"/>
			<point x="476" y="551" type="curve" smooth="yes"/>
			<point x="564.8" y="551"/>
			<point x="568" y="437.6"/>
			<point x="666.4" y="437.6" type="curve" smooth="yes"/>
			<point x="735.4" y="437.6"/>
			<point x="803.6" y="468.8"/>
			<point x="843.8" y="581.6" type="curve"/>
			<point x="809.6" y="581.6" type="line"/>
			<point x="778.6" y="509.6"/>
			<point x="742.2" y="473"/>
			<point x="674" y="473" type="curve" smooth="yes"/>
			<point x="585.2" y="473"/>
			<point x="582" y="586.4"/>
			<point x="483.6" y="586.4" type="curve" smooth="yes"/>
			<point x="414.6" y="586.4"/>
			<point x="346.4" y="555.2"/>
		</contour>
	</outline>
</glyph>
<glyph name="exclamdown" format="2">
	<unicode hex="00A1"/>
	<advance width="501.2"/>
	<outline>
		<contour>
			<point x="-150.6" y="-300.4" type="line" smooth="yes"/>
			<point x="-173.6" y="-384.2"/>
			<point x="-103.2" y="-427.6"/>
			<point x="-23.6" y="-427.6" type="curve" smooth="yes"/>
			<point x="58.8" y="-427.6"/>
			<point x="134" y="-383.8"/>
			<point x="157" y="-300.4" type="curve" smooth="yes"/>
			<point x="164.2" y="-275.6" type="line" smooth="yes"/>
			<point x="180.4" y="-216.6"/>
			<point x="169.6" y="22"/>
			<point x="277.6" y="543.4" type="curve"/>
			<point x="244.4" y="543.4" type="line"/>
			<point x="45.8" y="55.6"/>
			<point x="-114.8" y="-172.2"/>
			<point x="-143.4" y="-275.6" type="curve" smooth="yes"/>
		</contour>
		<contour>
			<point x="340" y="738" type="curve" smooth="yes"/>
			<point x="442.8" y="738"/>
			<point x="521.6" y="818"/>
			<point x="521.6" y="920.8" type="curve" smooth="yes"/>
			<point x="521.6" y="994.4"/>
			<point x="471" y="1044.4"/>
			<point x="392.8" y="1044.4" type="curve" smooth="yes"/>
			<point x="290" y="1044.4"/>
			<point x="211.2" y="964.4"/>
			<point x="211.2" y="862.4" type="curve" smooth="yes"/>
			<point x="211.2" y="788"/>
			<point x="261.8" y="738"/>
		</contour>
	</outline>
</glyph>
<glyph name="currency" format="2">
	<unicode hex="00A4"/>
	<advance width="919.8"/>
	<outline>
		<contour>
			<point x="209.4" y="820.2" type="line"/>
			<point x="290.8" y="695.8" type="line"/>
			<point x="351.6" y="740.4" type="line"/>
			<point x="267.2" y="863" type="line"/>
		</contour>
		<contour>
			<point x="836.6" y="842.4" type="line"/>
			<point x="676" y="719.8" type="line"/>
			<point x="713.8" y="664.8" type="line"/>
			<point x="875.4" y="785.4" type="line"/>
		</contour>
		<contour>
			<point x="709.4" y="203.8" type="line"/>
			<point x="628" y="328.2" type="line"/>
			<point x="567.2" y="283.6" type="line"/>
			<point x="651.6" y="161" type="line"/>
		</contour>
		<contour>
			<point x="43.4" y="238.6" type="line"/>
			<point x="82.2" y="181.6" type="line"/>
			<point x="242.8" y="304.2" type="line"/>
			<point x="205" y="359.2" type="line"/>
		</contour>
		<contour>
			<point x="523.4" y="810.2" type="curve" smooth="yes"/>
			<point x="323.4" y="810.2"/>
			<point x="150.2" y="659.6"/>
			<point x="150.2" y="447.8" type="curve" smooth="yes"/>
			<point x="150.2" y="311.2"/>
			<point x="237.2" y="213.8"/>
			<point x="396.2" y="213.8" type="curve" smooth="yes"/>
			<point x="596.2" y="213.8"/>
			<point x="769.4" y="364.4"/>
			<point x="769.4" y="576.2" type="curve" smooth="yes"/>
			<point x="769.4" y="712.8"/>
			<point x="682.4" y="810.2"/>
		</contour>
		<contour>
			<point x="402" y="281.4" type="curve" smooth="yes"/>
			<point x="289.2" y="281.4"/>
			<point x="226.6" y="354.2"/>
			<point x="226.6" y="462" type="curve" smooth="yes"/>
			<point x="226.6" y="628"/>
			<point x="347.4" y="742.6"/>
			<point x="517.6" y="742.6" type="curve" smooth="yes"/>
			<point x="630.4" y="742.6"/>
			<point x="693" y="669.8"/>
			<point x="693" y="562" type="curve" smooth="yes"/>
			<point x="693" y="396"/>
			<point x="572.2" y="281.4"/>
		</contour>
	</outline>
</glyph>
<glyph name="brokenbar" format="2">
	<unicode hex="00A6"/>
	<advance width="455.8"/>
	<outline>
		<contour>
			<point x="328.8" y="725" type="line"/>
			<point x="576" y="1535" type="line"/>
			<point x="504.8" y="1535" type="line"/>
			<point x="257" y="725" type="line"/>
		</contour>
		<contour>
			<point x="-107" y="-465" type="line"/>
			<point x="-35.2" y="-465" type="line"/>
			<point x="212" y="345" type="line"/>
			<point x="140.8" y="345" type="line"/>
		</contour>
	</outline>
</glyph>
<glyph name="section" format="2">
	<unicode hex="00A7"/>
	<advance width="1088.2"/>
	<outline>
		<contour>
			<point x="488.4" y="880.6" type="curve"/>
			<point x="471.8" y="901.4" type="line"/>
			<point x="224.4" y="837.2"/>
			<point x="107.6" y="729.2"/>
			<point x="107.6" y="555.4" type="curve" smooth="yes"/>
			<point x="107.6" y="223"/>
			<point x="616.8" y="281.8"/>
			<point x="616.8" y="22" type="curve" smooth="yes"/>
			<point x="616.8" y="-73.6"/>
			<point x="532.6" y="-166"/>
			<point x="367.8" y="-166" type="curve" smooth="yes"/>
			<point x="167.2" y="-166"/>
			<point x="152" y="38"/>
			<point x="89" y="38" type="curve" smooth="yes"/>
			<point x="21" y="38"/>
			<point x="-21" y="-6"/>
			<point x="-21" y="-63.8" type="curve" smooth="yes"/>
			<point x="-21" y="-140.4"/>
			<point x="51.6" y="-218"/>
			<point x="286.2" y="-218" type="curve" smooth="yes"/>
			<point x="615" y="-218"/>
			<point x="794.6" y="-48.6"/>
			<point x="794.6" y="143.8" type="curve" smooth="yes"/>
			<point x="794.6" y="482.2"/>
			<point x="271.2" y="429.8"/>
			<point x="271.2" y="669" type="curve" smooth="yes"/>
			<point x="271.2" y="776.6"/>
			<point x="361" y="850"/>
		</contour>
		<contour>
			<point x="880.6" y="565" type="curve" smooth="yes"/>
			<point x="880.6" y="457.4"/>
			<point x="790.8" y="384"/>
			<point x="663.4" y="353.4" type="curve"/>
			<point x="680" y="332.6" type="line"/>
			<point x="927.4" y="396.8"/>
			<point x="1044.2" y="504.8"/>
			<point x="1044.2" y="678.6" type="curve" smooth="yes"/>
			<point x="1044.2" y="1010"/>
			<point x="535" y="952.2"/>
			<point x="535" y="1212" type="curve" smooth="yes"/>
			<point x="535" y="1307.6"/>
			<point x="619.2" y="1400"/>
			<point x="784" y="1400" type="curve" smooth="yes"/>
			<point x="984.6" y="1400"/>
			<point x="999.8" y="1196"/>
			<point x="1062.8" y="1196" type="curve" smooth="yes"/>
			<point x="1130.8" y="1196"/>
			<point x="1172.8" y="1241"/>
			<point x="1172.8" y="1297.8" type="curve" smooth="yes"/>
			<point x="1172.8" y="1374.4"/>
			<point x="1100.2" y="1452"/>
			<point x="865.6" y="1452" type="curve" smooth="yes"/>
			<point x="536.8" y="1452"/>
			<point x="357.2" y="1282.6"/>
			<point x="357.2" y="1090.2" type="curve" smooth="yes"/>
			<point x="357.2" y="751.8"/>
			<point x="880.6" y="804.2"/>
		</contour>
	</outline>
</glyph>
<glyph name="copyright" format="2">
	<unicode hex="00A9"/>
	<advance width="1753.8"/>
	<outline>
		<contour>
			<point x="925.2" y="310" type="curve" smooth="yes"/>
			<point x="793" y="310"/>
			<point x="708.8" y="404.6"/>
			<point x="708.8" y="581.2" type="curve" smooth="yes"/>
			<point x="708.8" y="858.6"/>
			<point x="858.2" y="1123"/>
			<point x="1090.6" y="1123" type="curve" smooth="yes"/>
			<point x="1162.2" y="1123"/>
			<point x="1212.8" y="1100.4"/>
			<point x="1261.4" y="1047.8" type="curve"/>
			<point x="1221.4" y="1108" type="line"/>
			<point x="1290.4" y="856.2" type="line"/>
			<point x="1310.8" y="856.6" type="line"/>
			<point x="1348.6" y="1195.8" type="line"/>
			<point x="1339.6" y="1195.8" type="line"/>
			<point x="1246.4" y="1126" type="line"/>
			<point x="1309.6" y="1135.4" type="line"/>
			<point x="1243" y="1159.2"/>
			<point x="1167.4" y="1170.8"/>
			<point x="1095" y="1170.8" type="curve" smooth="yes"/>
			<point x="761.8" y="1170.8"/>
			<point x="498" y="923.4"/>
			<point x="498" y="632.8" type="curve" smooth="yes"/>
			<point x="498" y="420.6"/>
			<point x="646.6" y="267.4"/>
			<point x="902.2" y="267.4" type="curve" smooth="yes"/>
			<point x="998.6" y="267.4"/>
			<point x="1065.2" y="278"/>
			<point x="1144" y="305.4" type="curve"/>
			<point x="1261.6" y="533.2" type="line"/>
			<point x="1240.6" y="533.2" type="line"/>
			<point x="1028.6" y="316.4" type="line"/>
			<point x="1100.6" y="357.4" type="line"/>
			<point x="1042.4" y="326.2"/>
			<point x="982.6" y="310"/>
		</contour>
		<contour>
			<point x="837.2" y="30.2" type="curve" smooth="yes"/>
			<point x="463.2" y="30.2"/>
			<point x="242.4" y="257.4"/>
			<point x="242.4" y="600.2" type="curve" smooth="yes"/>
			<point x="242.4" y="1036"/>
			<point x="588.8" y="1399.8"/>
			<point x="1039.8" y="1399.8" type="curve" smooth="yes"/>
			<point x="1413.8" y="1399.8"/>
			<point x="1634.6" y="1172.6"/>
			<point x="1634.6" y="829.8" type="curve" smooth="yes"/>
			<point x="1634.6" y="394"/>
			<point x="1288.2" y="30.2"/>
		</contour>
		<contour>
			<point x="1041.4" y="1452" type="curve" smooth="yes"/>
			<point x="549" y="1452"/>
			<point x="176" y="1061.8"/>
			<point x="176" y="593.8" type="curve" smooth="yes"/>
			<point x="176" y="218.4"/>
			<point x="427.6" y="-22"/>
			<point x="835.6" y="-22" type="curve" smooth="yes"/>
			<point x="1328" y="-22"/>
			<point x="1701" y="368.2"/>
			<point x="1701" y="836.2" type="curve" smooth="yes"/>
			<point x="1701" y="1211.6"/>
			<point x="1449.4" y="1452"/>
		</contour>
	</outline>
</glyph>
<glyph name="ordfeminine" format="2">
	<unicode hex="00AA"/>
	<advance width="884.4"/>
	<outline>
		<contour>
			<point x="165" y="568" type="line"/>
			<point x="760.4" y="568" type="line"/>
			<point x="779.6" y="631" type="line"/>
			<point x="185" y="631" type="line"/>
		</contour>
		<contour>
			<point x="617.4" y="847.8" type="line" smooth="yes"/>
			<point x="605.8" y="811.6"/>
			<point x="625.2" y="788.8"/>
			<point x="675.8" y="788.8" type="curve" smooth="yes"/>
			<point x="745" y="788.8"/>
			<point x="830.6" y="839.6"/>
			<point x="940" y="996" type="curve"/>
			<point x="932.2" y="1003.4" type="line"/>
			<point x="834.2" y="900.2"/>
			<point x="763.6" y="881.2"/>
			<point x="717" y="890.8" type="curve"/>
			<point x="766" y="855.8" type="line"/>
			<point x="960.4" y="1430" type="line"/>
			<point x="810.6" y="1430" type="line"/>
			<point x="787.8" y="1369.2" type="line"/>
			<point x="687.4" y="1084.8" type="line" smooth="yes"/>
			<point x="589.8" y="942.6"/>
			<point x="528.2" y="896.6"/>
			<point x="485" y="896.6" type="curve" smooth="yes"/>
			<point x="454.4" y="896.6"/>
			<point x="435.4" y="914.4"/>
			<point x="435.4" y="961" type="curve" smooth="yes"/>
			<point x="435.4" y="1107.8"/>
			<point x="593.8" y="1386.6"/>
			<point x="729.6" y="1386.6" type="curve" smooth="yes"/>
			<point x="760.4" y="1386.6"/>
			<point x="786.2" y="1373.4"/>
			<point x="808.6" y="1334" type="curve"/>
			<point x="813.8" y="1347.4" type="line"/>
			<point x="779.2" y="1414.6"/>
			<point x="732" y="1446.4"/>
			<point x="679.6" y="1446.4" type="curve" smooth="yes"/>
			<point x="462" y="1446.4"/>
			<point x="254.6" y="1119"/>
			<point x="254.6" y="911.2" type="curve" smooth="yes"/>
			<point x="254.6" y="833.4"/>
			<point x="304.4" y="788.8"/>
			<point x="398.8" y="788.8" type="curve" smooth="yes"/>
			<point x="465.4" y="788.8"/>
			<point x="544.6" y="830.4"/>
			<point x="704.4" y="1081.8" type="curve"/>
			<point x="693.4" y="1082.6" type="line"/>
		</contour>
	</outline>
</glyph>
<glyph name="logicalnot" format="2">
  <advance width="1150.0"/>
  <unicode hex="00AC"/>
  <outline>
    <contour>
      <point x="228.4" y="744.8" type="line"/>
      <point x="206.39999999999998" y="671.8" type="line"/>
      <point x="955.4" y="671.8" type="line"/>
      <point x="831.4" y="268.0" type="line"/>
      <point x="904.4000000000001" y="268.0" type="line"/>
      <point x="1050.3999999999999" y="744.8" type="line"/>
    </contour>
  </outline>
</glyph>
<glyph name="registered" format="2">
	<unicode hex="00AE"/>
	<advance width="1091.8"/>
	<outline>
		<contour>
			<point x="882" y="842.2" type="line"/>
			<point x="854.2" y="842.2"/>
			<point x="845" y="847.6"/>
			<point x="843.8" y="885" type="curve" smooth="yes"/>
			<point x="841.2" y="957.2" type="line" smooth="yes"/>
			<point x="840.2" y="1011.4"/>
			<point x="817" y="1039.8"/>
			<point x="762" y="1042.2" type="curve"/>
			<point x="763.2" y="1041.2" type="line"/>
			<point x="862" y="1045.4"/>
			<point x="919.8" y="1099.6"/>
			<point x="919.8" y="1166" type="curve" smooth="yes"/>
			<point x="919.8" y="1212"/>
			<point x="888.8" y="1246"/>
			<point x="795" y="1246" type="curve" smooth="yes"/>
			<point x="679.4" y="1246" type="line"/>
			<point x="669.6" y="1214" type="line"/>
			<point x="754" y="1214" type="line" smooth="yes"/>
			<point x="800.6" y="1214"/>
			<point x="822.8" y="1199.4"/>
			<point x="822.8" y="1163.6" type="curve" smooth="yes"/>
			<point x="822.8" y="1100.8"/>
			<point x="781.2" y="1054.6"/>
			<point x="710.4" y="1054.6" type="curve" smooth="yes"/>
			<point x="621.4" y="1054.6" type="line"/>
			<point x="611" y="1022.8" type="line"/>
			<point x="703.8" y="1022.8" type="line" smooth="yes"/>
			<point x="739" y="1022.8"/>
			<point x="749.4" y="1012"/>
			<point x="750" y="975.6" type="curve" smooth="yes"/>
			<point x="751" y="896.4" type="line" smooth="yes"/>
			<point x="751.8" y="821"/>
			<point x="761.6" y="809.6"/>
			<point x="875.2" y="819.2" type="curve"/>
		</contour>
		<contour>
			<point x="720.4" y="1246" type="line"/>
			<point x="562.2" y="1246" type="line"/>
			<point x="557.6" y="1229.6" type="line"/>
			<point x="612" y="1215.4" type="line"/>
			<point x="501" y="851.8" type="line"/>
			<point x="437.4" y="836.4" type="line"/>
			<point x="432" y="820" type="line"/>
			<point x="649.4" y="820" type="line"/>
			<point x="654.8" y="836.4" type="line"/>
			<point x="599.8" y="851.8" type="line"/>
		</contour>
		<contour>
			<point x="631.8" y="646.4" type="curve" smooth="yes"/>
			<point x="422.4" y="646.4"/>
			<point x="317" y="765.4"/>
			<point x="317" y="949.8" type="curve" smooth="yes"/>
			<point x="317" y="1209.8"/>
			<point x="515.8" y="1403.6"/>
			<point x="764.2" y="1403.6" type="curve" smooth="yes"/>
			<point x="973.6" y="1403.6"/>
			<point x="1079" y="1284.6"/>
			<point x="1079" y="1100.2" type="curve" smooth="yes"/>
			<point x="1079" y="840.2"/>
			<point x="880.2" y="646.4"/>
		</contour>
		<contour>
			<point x="767" y="1452" type="curve" smooth="yes"/>
			<point x="484.2" y="1452"/>
			<point x="262" y="1233.4"/>
			<point x="262" y="945.6" type="curve" smooth="yes"/>
			<point x="262" y="739.4"/>
			<point x="386.2" y="598"/>
			<point x="629" y="598" type="curve" smooth="yes"/>
			<point x="911.8" y="598"/>
			<point x="1134" y="816.6"/>
			<point x="1134" y="1104.4" type="curve" smooth="yes"/>
			<point x="1134" y="1310.6"/>
			<point x="1009.8" y="1452"/>
		</contour>
	</outline>
</glyph>
<glyph name="degree" format="2">
	<unicode hex="00B0"/>
	<advance width="749.6"/>
	<outline>
		<contour>
			<point x="601.8" y="1445.2" type="curve" smooth="yes"/>
			<point x="397.2" y="1445.2"/>
			<point x="257.4" y="1282.4"/>
			<point x="257.4" y="1096" type="curve" smooth="yes"/>
			<point x="257.4" y="953.2"/>
			<point x="354.4" y="854.8"/>
			<point x="524.2" y="854.8" type="curve" smooth="yes"/>
			<point x="728.8" y="854.8"/>
			<point x="868.6" y="1017.6"/>
			<point x="868.6" y="1204" type="curve" smooth="yes"/>
			<point x="868.6" y="1346.8"/>
			<point x="771.6" y="1445.2"/>
		</contour>
		<contour>
			<point x="531" y="919.4" type="curve" smooth="yes"/>
			<point x="394.8" y="919.4"/>
			<point x="329.4" y="997.6"/>
			<point x="329.4" y="1101.8" type="curve" smooth="yes"/>
			<point x="329.4" y="1255.6"/>
			<point x="428" y="1380.6"/>
			<point x="595" y="1380.6" type="curve" smooth="yes"/>
			<point x="731.2" y="1380.6"/>
			<point x="796.6" y="1302.4"/>
			<point x="796.6" y="1198.2" type="curve" smooth="yes"/>
			<point x="796.6" y="1044.4"/>
			<point x="698" y="919.4"/>
		</contour>
	</outline>
</glyph>
<glyph name="plusminus" format="2">
	<unicode hex="00B1"/>
	<advance width="1150"/>
	<outline>
		<contour>
			<point x="694" y="1023.2" type="line"/>
			<point x="442" y="201.2" type="line"/>
			<point x="515.6" y="201.2" type="line"/>
			<point x="767.6" y="1023.2" type="line"/>
		</contour>
		<contour>
			<point x="204.8" y="648.2" type="line"/>
			<point x="182.8" y="576.2" type="line"/>
			<point x="1004.8" y="576.2" type="line"/>
			<point x="1026.8" y="648.2" type="line"/>
		</contour>
		<contour>
			<point x="29" y="72" type="line"/>
			<point x="7" y="0" type="line"/>
			<point x="829" y="0" type="line"/>
			<point x="851" y="72" type="line"/>
		</contour>
	</outline>
</glyph>
<glyph name="uni00B2" format="2">
	<unicode hex="00B2"/>
	<advance width="703.4"/>
	<outline>
		<contour>
			<point x="530.8" y="731.4" type="line"/>
			<point x="692.8" y="810.8" type="line"/>
			<point x="315.6" y="810.8" type="line"/>
			<point x="305.6" y="788" type="line"/>
			<point x="476.8" y="917" type="line" smooth="yes"/>
			<point x="743.6" y="1104.8"/>
			<point x="779.6" y="1174.8"/>
			<point x="779.6" y="1269.4" type="curve" smooth="yes"/>
			<point x="779.6" y="1372"/>
			<point x="707.4" y="1445.2"/>
			<point x="578" y="1445.2" type="curve" smooth="yes"/>
			<point x="413" y="1445.2"/>
			<point x="299.6" y="1339.2"/>
			<point x="241.6" y="1157" type="curve"/>
			<point x="269.6" y="1150.6" type="line"/>
			<point x="314.4" y="1280.2"/>
			<point x="389.2" y="1322.8"/>
			<point x="479.6" y="1322.8" type="curve" smooth="yes"/>
			<point x="558.2" y="1322.8"/>
			<point x="605.4" y="1280.4"/>
			<point x="605.4" y="1206.8" type="curve" smooth="yes"/>
			<point x="605.4" y="1127.4213762798"/>
			<point x="543.6606972562" y="1031.602505782"/>
			<point x="350.8" y="863.2" type="curve" smooth="yes"/>
			<point x="136.2" y="674.8" type="line"/>
			<point x="132.2" y="662" type="line"/>
			<point x="572.4" y="662" type="line"/>
			<point x="617" y="630.2" type="line"/>
			<point x="628.6" y="630.2" type="line"/>
			<point x="789.8" y="931.8" type="line"/>
			<point x="776.8" y="931.8" type="line"/>
		</contour>
	</outline>
</glyph>
<glyph name="uni00B3" format="2">
	<unicode hex="00B3"/>
	<advance width="644.6"/>
	<outline>
		<contour>
			<point x="361.2" y="1030" type="line"/>
			<point x="396.2" y="1037.2" type="line" smooth="yes"/>
			<point x="499.8" y="1057"/>
			<point x="548.8" y="1023.4"/>
			<point x="548.8" y="948.8" type="curve" smooth="yes"/>
			<point x="548.8" y="832"/>
			<point x="461.2" y="692.2"/>
			<point x="334.2" y="692.2" type="curve" smooth="yes"/>
			<point x="248.6" y="692.2"/>
			<point x="206.6" y="802.6"/>
			<point x="185.2" y="802.6" type="curve" smooth="yes"/>
			<point x="145.2" y="802.6"/>
			<point x="118.4" y="773.4"/>
			<point x="118.4" y="734.6" type="curve" smooth="yes"/>
			<point x="118.4" y="690"/>
			<point x="157" y="646.8"/>
			<point x="303.6" y="646.8" type="curve" smooth="yes"/>
			<point x="557.4" y="646.8"/>
			<point x="712" y="785.8"/>
			<point x="712" y="949.8" type="curve" smooth="yes"/>
			<point x="712" y="1034.6"/>
			<point x="658.2" y="1103.2"/>
			<point x="535.8" y="1102.4" type="curve"/>
			<point x="522.6" y="1092.8" type="line"/>
			<point x="680.6625634775" y="1126.09084885"/>
			<point x="734.2" y="1212.8"/>
			<point x="734.2" y="1301.6" type="curve" smooth="yes"/>
			<point x="734.2" y="1378.4"/>
			<point x="687.2" y="1445"/>
			<point x="580" y="1445" type="curve" smooth="yes"/>
			<point x="434.9977778464" y="1445"/>
			<point x="339.2688846369" y="1356.1666563796"/>
			<point x="287.6" y="1216.4" type="curve"/>
			<point x="312.2" y="1207.2" type="line"/>
			<point x="347.6" y="1289.4"/>
			<point x="410" y="1331.2"/>
			<point x="486" y="1331.2" type="curve" smooth="yes"/>
			<point x="544.4" y="1331.2"/>
			<point x="580.6" y="1297.6"/>
			<point x="580.6" y="1245.2" type="curve" smooth="yes"/>
			<point x="580.6" y="1171.8198392138"/>
			<point x="539.873349648" y="1111.7898106596"/>
			<point x="360" y="1064.4" type="curve"/>
		</contour>
	</outline>
</glyph>
<glyph name="uni00B5" format="2">
	<unicode hex="00B5"/>
	<advance width="1150.4"/>
	<outline>
		<contour>
			<point x="675.4" y="439.2" type="line"/>
			<point x="628.8" y="311.6"/>
			<point x="502" y="143.4"/>
			<point x="397.8" y="143.4" type="curve" smooth="yes"/>
			<point x="342" y="143.4"/>
			<point x="311.8" y="160"/>
			<point x="308.6" y="206.6" type="curve" smooth="yes"/>
			<point x="307.8" y="230"/>
			<point x="313.4" y="262.8"/>
			<point x="329.2" y="310.8" type="curve" smooth="yes"/>
			<point x="559.2" y="1024" type="line"/>
			<point x="348.6" y="1024" type="line"/>
			<point x="-111.8" y="-456.8" type="line"/>
			<point x="-101.8" y="-456.8" type="line"/>
			<point x="110.8" y="-438.6" type="line"/>
			<point x="129.4" y="144.8" type="line"/>
			<point x="114" y="138.8" type="line"/>
			<point x="119.6" y="33.2"/>
			<point x="157.8" y="-22"/>
			<point x="271.8" y="-22" type="curve" smooth="yes"/>
			<point x="405.6" y="-22"/>
			<point x="494.8" y="76.8"/>
			<point x="675.2" y="389" type="curve"/>
			<point x="666.6" y="393.8" type="line"/>
			<point x="570.4" y="76.4" type="line" smooth="yes"/>
			<point x="551.8" y="13.6"/>
			<point x="581" y="-22"/>
			<point x="649" y="-22" type="curve" smooth="yes"/>
			<point x="758.4" y="-22"/>
			<point x="898.8" y="69"/>
			<point x="1062.4" y="331.6" type="curve"/>
			<point x="1053.2" y="338.8" type="line"/>
			<point x="896.2" y="154.6"/>
			<point x="783.6" y="112.4"/>
			<point x="720.8" y="126" type="curve"/>
			<point x="762.4" y="86.8" type="line"/>
			<point x="1079.2" y="1024" type="line"/>
			<point x="871" y="1024" type="line"/>
		</contour>
	</outline>
</glyph>
<glyph name="paragraph" format="2">
	<unicode hex="00B6"/>
	<advance width="1173.8"/>
	<outline>
		<contour>
			<point x="475.4" y="-218" type="line"/>
			<point x="960.2" y="1367.8" type="line"/>
			<point x="1135.6" y="1367.8" type="line"/>
			<point x="1154.8" y="1430" type="line"/>
			<point x="911.8" y="1430" type="line"/>
			<point x="407.8" y="-218" type="line"/>
		</contour>
		<contour>
			<point x="698.4" y="-218" type="line"/>
			<point x="1184" y="1369.6" type="line"/>
			<point x="1373" y="1405.2" type="line"/>
			<point x="1380.8" y="1430" type="line"/>
			<point x="1135.6" y="1430" type="line"/>
			<point x="631.6" y="-218" type="line"/>
		</contour>
		<contour>
			<point x="962.6" y="1430" type="line"/>
			<point x="722.4" y="1430" type="line" smooth="yes"/>
			<point x="369.5740260633" y="1430"/>
			<point x="208.8" y="1163.6"/>
			<point x="208.8" y="958" type="curve" smooth="yes"/>
			<point x="208.8" y="812.4"/>
			<point x="294.6" y="716.6"/>
			<point x="510" y="716.6" type="curve" smooth="yes"/>
			<point x="744.4" y="716.6" type="line"/>
		</contour>
	</outline>
</glyph>
<glyph name="uni00B9" format="2">
	<unicode hex="00B9"/>
	<advance width="531.8"/>
	<outline>
		<contour>
			<point x="275.4" y="712.6" type="line"/>
			<point x="130.4" y="680.6" type="line"/>
			<point x="124.8" y="662" type="line"/>
			<point x="542.2" y="662" type="line"/>
			<point x="547.8" y="680.6" type="line"/>
			<point x="436.2" y="712.6" type="line"/>
			<point x="659.8" y="1445.2" type="line"/>
			<point x="634.6" y="1445.2" type="line"/>
			<point x="254" y="1272.2" type="line"/>
			<point x="260.8" y="1248.4" type="line"/>
			<point x="557.2" y="1314.2" type="line"/>
			<point x="467.4" y="1341.4" type="line"/>
		</contour>
	</outline>
</glyph>
<glyph name="ordmasculine" format="2">
	<unicode hex="00BA"/>
	<advance width="845.8"/>
	<outline>
		<contour>
			<point x="141.6" y="568" type="line"/>
			<point x="737" y="568" type="line"/>
			<point x="756.2" y="631" type="line"/>
			<point x="161.6" y="631" type="line"/>
		</contour>
		<contour>
			<point x="713.6" y="1452" type="curve" smooth="yes"/>
			<point x="512.4" y="1452"/>
			<point x="301" y="1244.4"/>
			<point x="301" y="993.2" type="curve" smooth="yes"/>
			<point x="301" y="859.8"/>
			<point x="372.8" y="788"/>
			<point x="508.2" y="788" type="curve" smooth="yes"/>
			<point x="709.4" y="788"/>
			<point x="920.8" y="995.6"/>
			<point x="920.8" y="1246.8" type="curve" smooth="yes"/>
			<point x="920.8" y="1380.2"/>
			<point x="849" y="1452"/>
		</contour>
		<contour>
			<point x="510.4" y="824.8" type="curve" smooth="yes"/>
			<point x="475.6" y="824.8"/>
			<point x="460.2" y="853.6"/>
			<point x="460" y="918.6" type="curve" smooth="yes"/>
			<point x="459.4" y="1134.8"/>
			<point x="594.6" y="1415.2"/>
			<point x="711.4" y="1415.2" type="curve" smooth="yes"/>
			<point x="746.2" y="1415.2"/>
			<point x="761.6" y="1386.4"/>
			<point x="761.8" y="1321.4" type="curve" smooth="yes"/>
			<point x="762.4" y="1105.2"/>
			<point x="627.2" y="824.8"/>
		</contour>
	</outline>
</glyph>
<glyph name="guillemotright" format="2">
	<unicode hex="00BB"/>
	<advance width="945.4"/>
	<outline>
		<contour>
			<point x="331" y="458.6" type="line"/>
			<point x="365.2" y="622.6" type="line"/>
			<point x="-29.6" y="101" type="line"/>
			<point x="-16" y="87.4" type="line"/>
			<point x="505.2" y="514.6" type="line"/>
			<point x="510.4" y="529.8" type="line"/>
			<point x="250.4" y="957" type="line"/>
			<point x="231.4" y="949.4" type="line"/>
		</contour>
		<contour>
			<point x="680.6" y="458.6" type="line"/>
			<point x="714.8" y="622.6" type="line"/>
			<point x="320" y="101" type="line"/>
			<point x="333.6" y="87.4" type="line"/>
			<point x="854.8" y="514.6" type="line"/>
			<point x="860" y="529.8" type="line"/>
			<point x="600" y="957" type="line"/>
			<point x="581" y="949.4" type="line"/>
		</contour>
	</outline>
</glyph>
<glyph name="questiondown" format="2">
	<unicode hex="00BF"/>
	<advance width="980.4"/>
	<outline>
		<contour>
			<point x="654.8" y="736.8" type="curve" smooth="yes"/>
			<point x="757.6" y="736.8"/>
			<point x="836.4" y="816.8"/>
			<point x="836.4" y="919.6" type="curve" smooth="yes"/>
			<point x="836.4" y="993.2"/>
			<point x="785.8" y="1043.2"/>
			<point x="707.6" y="1043.2" type="curve" smooth="yes"/>
			<point x="604.8" y="1043.2"/>
			<point x="526" y="963.2"/>
			<point x="526" y="861.2" type="curve" smooth="yes"/>
			<point x="526" y="786.8"/>
			<point x="576.6" y="736.8"/>
		</contour>
		<contour>
			<point x="408.6" y="-428.8" type="curve" smooth="yes"/>
			<point x="595.4" y="-428.8"/>
			<point x="685.8" y="-367.8"/>
			<point x="685.8" y="-289.6" type="curve" smooth="yes"/>
			<point x="685.8" y="-241.8"/>
			<point x="654" y="-207.6"/>
			<point x="612" y="-207.6" type="curve" smooth="yes"/>
			<point x="590.2" y="-207.6"/>
			<point x="459.6" y="-339.2"/>
			<point x="285" y="-339.2" type="curve" smooth="yes"/>
			<point x="137.2" y="-339.2"/>
			<point x="50.8" y="-249.8"/>
			<point x="50.8" y="-97" type="curve" smooth="yes"/>
			<point x="50.8" y="111"/>
			<point x="187.4" y="202.6"/>
			<point x="531.2" y="151.8" type="curve"/>
			<point x="618.4" y="542.2" type="line"/>
			<point x="583.8" y="542.2" type="line"/>
			<point x="440.6" y="204.8" type="line"/>
			<point x="530" y="338.8" type="line"/>
			<point x="138.4" y="393.2"/>
			<point x="-43.6" y="257"/>
			<point x="-43.6" y="-13" type="curve" smooth="yes"/>
			<point x="-43.6" y="-221.6"/>
			<point x="122.6" y="-428.8"/>
		</contour>
	</outline>
</glyph>
<glyph name="AE" format="2">
	<unicode hex="00C6"/>
	<advance width="2056"/>
	<outline>
		<contour>
			<point x="61" y="67.6" type="line"/>
			<point x="1244.2" y="1381.2" type="line"/>
			<point x="1232.2" y="1388.2" type="line"/>
			<point x="828.2" y="64.2" type="line"/>
			<point x="653.6" y="21.4" type="line"/>
			<point x="647.4" y="0" type="line"/>
			<point x="1057" y="0" type="line"/>
			<point x="1492.6" y="1430" type="line"/>
			<point x="1002" y="1430" type="line"/>
			<point x="995.8" y="1408.6" type="line"/>
			<point x="1164.2" y="1369.4" type="line"/>
			<point x="-12.8" y="70.6" type="line"/>
			<point x="-181.2" y="21.4" type="line"/>
			<point x="-188" y="0" type="line"/>
			<point x="209.6" y="0" type="line"/>
			<point x="216.4" y="21.4" type="line"/>
		</contour>
		<contour>
			<point x="1724.2" y="-59.4" type="line"/>
			<point x="1736" y="-59.4" type="line"/>
			<point x="1978.2" y="385.8" type="line"/>
			<point x="1954.2" y="402.6" type="line"/>
			<point x="1578" y="41.4" type="line"/>
			<point x="1760.4" y="60.4" type="line"/>
			<point x="920.4" y="60.4" type="line"/>
			<point x="899" y="0" type="line"/>
			<point x="1594.8" y="0" type="line"/>
		</contour>
		<contour>
			<point x="479.8" y="544.6" type="line"/>
			<point x="1050.4" y="544.6" type="line"/>
			<point x="1069.4" y="605" type="line"/>
			<point x="499.6" y="605" type="line"/>
		</contour>
		<contour>
			<point x="1607.2" y="455" type="line"/>
			<point x="1631.8" y="455" type="line"/>
			<point x="1688.8" y="746" type="line"/>
			<point x="1810.8" y="1039" type="line"/>
			<point x="1786.2" y="1039" type="line"/>
			<point x="1604.6" y="787.8" type="line"/>
			<point x="1164.2" y="758" type="line"/>
			<point x="1154.2" y="735" type="line"/>
			<point x="1586.8" y="709.2" type="line"/>
		</contour>
		<contour>
			<point x="2080" y="1021.6" type="line"/>
			<point x="2108" y="1021.6" type="line"/>
			<point x="2179.6" y="1490.6" type="line"/>
			<point x="2168.8" y="1490.6" type="line"/>
			<point x="2013.8" y="1430" type="line"/>
			<point x="1336" y="1430" type="line"/>
			<point x="1315" y="1369.6" type="line"/>
			<point x="2128.8" y="1369.6" type="line"/>
			<point x="2003" y="1391.8" type="line"/>
		</contour>
	</outline>
	<anchor name="UCtop" x="1364.4" y="1430"/>
	<anchor name="bottom" x="931.2" y="0"/>
</glyph>
<glyph name="Ccedilla" format="2">
	<unicode hex="00C7"/>
	<advance width="1392.8"/>
	<outline>
		<contour>
			<point x="1073.4" y="136.4" type="line"/>
			<point x="959.6" y="55.8"/>
			<point x="836.2" y="27.4"/>
			<point x="727.6" y="27.4" type="curve" smooth="yes"/>
			<point x="513" y="27.4"/>
			<point x="365.6" y="177.2"/>
			<point x="365.6" y="497.6" type="curve" smooth="yes"/>
			<point x="365.6" y="986.2"/>
			<point x="652.2" y="1398.8"/>
			<point x="1079.8" y="1398.8" type="curve" smooth="yes"/>
			<point x="1191.8" y="1398.8"/>
			<point x="1278.6" y="1370.2"/>
			<point x="1357.6" y="1269.6" type="curve"/>
			<point x="1309.2" y="1358" type="line"/>
			<point x="1405.4" y="981.2" type="line"/>
			<point x="1433.4" y="981.2" type="line"/>
			<point x="1478.6" y="1489.2" type="line"/>
			<point x="1465.2" y="1489.2" type="line"/>
			<point x="1314.8" y="1397.4" type="line"/>
			<point x="1429.4" y="1410.6" type="line"/>
			<point x="1325.6" y="1438.8"/>
			<point x="1227.4" y="1452"/>
			<point x="1116" y="1452" type="curve" smooth="yes"/>
			<point x="564" y="1452"/>
			<point x="132.2" y="1061"/>
			<point x="132.2" y="520.6" type="curve" smooth="yes"/>
			<point x="132.2" y="188"/>
			<point x="345.4" y="-22"/>
			<point x="717.2" y="-22" type="curve" smooth="yes"/>
			<point x="852.2" y="-22"/>
			<point x="979" y="-7.8"/>
			<point x="1126.8" y="30.4" type="curve"/>
			<point x="1302.8" y="372.2" type="line"/>
			<point x="1276.2" y="372.2" type="line"/>
			<point x="982.2" y="68.6" type="line"/>
		</contour>
		<contour>
			<point x="528.2" y="-422.4" type="curve" smooth="yes"/>
			<point x="454" y="-422.4"/>
			<point x="425.8" y="-340.8"/>
			<point x="410.8" y="-340.8" type="curve" smooth="yes"/>
			<point x="378.4" y="-340.8"/>
			<point x="356.8" y="-363.2"/>
			<point x="356.8" y="-397.6" type="curve" smooth="yes"/>
			<point x="356.8" y="-433.6"/>
			<point x="385.8" y="-465"/>
			<point x="476.6" y="-465" type="curve"/>
			<point x="628.4" y="-465"/>
			<point x="738" y="-367.6"/>
			<point x="738" y="-264" type="curve" smooth="yes"/>
			<point x="738" y="-198"/>
			<point x="701.2" y="-145.8"/>
			<point x="568" y="-100.2" type="curve"/>
			<point x="540.2" y="-168.4" type="line"/>
			<point x="713.8" y="21.8" type="line"/>
			<point x="667" y="21.8" type="line"/>
			<point x="466.8" y="-198.4" type="line"/>
			<point x="466.8" y="-202.6" type="line"/>
			<point x="603.6" y="-239.4"/>
			<point x="639.4" y="-282.8"/>
			<point x="639.4" y="-329.8" type="curve" smooth="yes"/>
			<point x="639.4" y="-385.6"/>
			<point x="592.4" y="-422.4"/>
		</contour>
	</outline>
</glyph>
<glyph name="multiply" format="2">
	<unicode hex="00D7"/>
	<advance width="1150"/>
	<outline>
		<contour>
			<point x="130.4" y="215.6" type="line"/>
			<point x="167.6" y="161" type="line"/>
			<point x="1019.6" y="808.4" type="line"/>
			<point x="982.4" y="863" type="line"/>
		</contour>
		<contour>
			<point x="326" y="820.6" type="line"/>
			<point x="767.2" y="161" type="line"/>
			<point x="824" y="203.4" type="line"/>
			<point x="382.8" y="863" type="line"/>
		</contour>
	</outline>
</glyph>
<glyph name="Oslash" format="2">
	<unicode hex="00D8"/>
	<advance width="1577.2"/>
	<outline>
		<contour>
			<point x="1758.8" y="1430" type="line"/>
			<point x="1651.2" y="1430" type="line"/>
			<point x="1423" y="1241.4" type="line"/>
			<point x="1345.6" y="1188" type="line"/>
			<point x="314" y="296.4" type="line"/>
			<point x="232.2" y="239.4" type="line"/>
			<point x="-57.8" y="0" type="line"/>
			<point x="49.8" y="0" type="line"/>
			<point x="278" y="188.6" type="line"/>
			<point x="355.4" y="242" type="line"/>
			<point x="1387" y="1133.6" type="line"/>
			<point x="1468.8" y="1190.6" type="line"/>
		</contour>
		<contour>
			<point x="370.2" y="412.2" type="curve" smooth="yes"/>
			<point x="370.2" y="803.8"/>
			<point x="629" y="1397.6"/>
			<point x="1029.2" y="1397.6" type="curve" smooth="yes"/>
			<point x="1219.2" y="1397.6"/>
			<point x="1330" y="1270.8"/>
			<point x="1330" y="1017.8" type="curve" smooth="yes"/>
			<point x="1330" y="626.2"/>
			<point x="1071.2" y="32.4"/>
			<point x="671" y="32.4" type="curve" smooth="yes"/>
			<point x="481" y="32.4"/>
			<point x="370.2" y="159.2"/>
		</contour>
		<contour>
			<point x="1558.8" y="911.2" type="curve" smooth="yes"/>
			<point x="1558.8" y="1242.6"/>
			<point x="1357.6" y="1452"/>
			<point x="1013.8" y="1452" type="curve" smooth="yes"/>
			<point x="513" y="1452"/>
			<point x="141.4" y="978"/>
			<point x="141.4" y="518.8" type="curve" smooth="yes"/>
			<point x="141.4" y="187.4"/>
			<point x="342.6" y="-22"/>
			<point x="686.4" y="-22" type="curve" smooth="yes"/>
			<point x="1187.2" y="-22"/>
			<point x="1558.8" y="452"/>
		</contour>
	</outline>
	<anchor name="UCtop" x="1075" y="1430"/>
	<anchor name="bottom" x="599" y="0"/>
</glyph>
<glyph name="Thorn" format="2">
	<unicode hex="00DE"/>
	<advance width="1293.2"/>
	<outline>
		<contour>
			<point x="619.4" y="396.6" type="curve" smooth="yes"/>
			<point x="301.8" y="396.6" type="line"/>
			<point x="284.6" y="336.2" type="line"/>
			<point x="673" y="336.2" type="line" smooth="yes"/>
			<point x="1063.6" y="336.2"/>
			<point x="1293.2" y="534.4"/>
			<point x="1293.2" y="802.6" type="curve" smooth="yes"/>
			<point x="1293.2" y="976.8"/>
			<point x="1170.6" y="1125.8"/>
			<point x="831.8" y="1125.8" type="curve" smooth="yes"/>
			<point x="527.2" y="1125.8" type="line"/>
			<point x="502.6" y="1065.4" type="line"/>
			<point x="746.4" y="1065.4" type="line" smooth="yes"/>
			<point x="971.8" y="1065.4"/>
			<point x="1052.2" y="961.2"/>
			<point x="1052.2" y="826.6" type="curve" smooth="yes"/>
			<point x="1052.2" y="578.4"/>
			<point x="894.4" y="396.6"/>
		</contour>
		<contour>
			<point x="493.8" y="1366.6" type="line"/>
			<point x="96.2" y="64.2" type="line"/>
			<point x="-78.4" y="21.4" type="line"/>
			<point x="-84.6" y="0" type="line"/>
			<point x="495.4" y="0" type="line"/>
			<point x="500.6" y="21.4" type="line"/>
			<point x="344" y="63.4" type="line"/>
			<point x="741.4" y="1365.8" type="line"/>
			<point x="916" y="1408.6" type="line"/>
			<point x="922.2" y="1430" type="line"/>
			<point x="342.4" y="1430" type="line"/>
			<point x="336.2" y="1408.6" type="line"/>
		</contour>
	</outline>
</glyph>
<glyph name="germandbls" format="2">
	<unicode hex="00DF"/>
	<advance width="1148.8"/>
	<outline>
		<contour>
			<point x="128.6" y="965.4" type="line"/>
			<point x="436" y="965.4" type="line"/>
			<point x="447.2" y="1024" type="line"/>
			<point x="138.6" y="1024" type="line"/>
		</contour>
		<contour>
			<point x="358.2" y="254.4" type="curve" smooth="yes"/>
			<point x="564.6" y="1072" type="line" smooth="yes"/>
			<point x="636.6" y="1356"/>
			<point x="717.2" y="1447.4"/>
			<point x="865.4" y="1447.4" type="curve" smooth="yes"/>
			<point x="962" y="1447.4"/>
			<point x="1008.6" y="1394.6"/>
			<point x="1008.6" y="1296" type="curve" smooth="yes"/>
			<point x="1008.6" y="1180"/>
			<point x="967.4" y="1084"/>
			<point x="818.6" y="955.6" type="curve" smooth="yes"/>
			<point x="669.8" y="827.2"/>
			<point x="641.4" y="766.4"/>
			<point x="641.4" y="682.2" type="curve" smooth="yes"/>
			<point x="641.4" y="603"/>
			<point x="672.6" y="546.6"/>
			<point x="767.2" y="433.6" type="curve" smooth="yes"/>
			<point x="861.8" y="320.6"/>
			<point x="891" y="260.2"/>
			<point x="891" y="188.8" type="curve" smooth="yes"/>
			<point x="891" y="94.2"/>
			<point x="831.8" y="34.2"/>
			<point x="735.2" y="34.2" type="curve" smooth="yes"/>
			<point x="701.6" y="34.2"/>
			<point x="677.4" y="37.6"/>
			<point x="659.4" y="61.8" type="curve" smooth="yes"/>
			<point x="641.4" y="86"/>
			<point x="631.8" y="136"/>
			<point x="628" y="234.2" type="curve" smooth="yes"/>
			<point x="504.2" y="234.2"/>
			<point x="452" y="198.6"/>
			<point x="452" y="116" type="curve" smooth="yes"/>
			<point x="452" y="33.2"/>
			<point x="508.8" y="-22"/>
			<point x="661.2" y="-22" type="curve" smooth="yes"/>
			<point x="886.2" y="-22"/>
			<point x="1029.6" y="146.2"/>
			<point x="1029.6" y="335.2" type="curve" smooth="yes"/>
			<point x="1029.6" y="413.4"/>
			<point x="998.6" y="491"/>
			<point x="909.4" y="596.2" type="curve" smooth="yes"/>
			<point x="820.2" y="701.4"/>
			<point x="797.6" y="755.4"/>
			<point x="797.6" y="812.4" type="curve" smooth="yes"/>
			<point x="797.6" y="879.6"/>
			<point x="827.4" y="929.8"/>
			<point x="968.2" y="1017.4" type="curve" smooth="yes"/>
			<point x="1109" y="1105"/>
			<point x="1160.8" y="1175.8"/>
			<point x="1160.8" y="1277.6" type="curve" smooth="yes"/>
			<point x="1160.8" y="1396.2"/>
			<point x="1071.2" y="1486"/>
			<point x="876.2" y="1486" type="curve" smooth="yes"/>
			<point x="631.2" y="1486"/>
			<point x="402.6" y="1310.4"/>
			<point x="325" y="967" type="curve" smooth="yes"/>
			<point x="117.6" y="44.2" type="line" smooth="yes"/>
			<point x="36.8" y="-312.8"/>
			<point x="-57.6" y="-413.6"/>
			<point x="-148.8" y="-413.6" type="curve" smooth="yes"/>
			<point x="-187.4" y="-413.6"/>
			<point x="-197.4" y="-396.8"/>
			<point x="-179" y="-316" type="curve" smooth="yes"/>
			<point x="-160.6" y="-235.2"/>
			<point x="-179" y="-204.8"/>
			<point x="-242.2" y="-204.8" type="curve" smooth="yes"/>
			<point x="-313" y="-204.8"/>
			<point x="-354.4" y="-260.2"/>
			<point x="-354.4" y="-324.6" type="curve" smooth="yes"/>
			<point x="-354.4" y="-408"/>
			<point x="-292.8" y="-465"/>
			<point x="-183" y="-465" type="curve" smooth="yes"/>
			<point x="15.4" y="-465"/>
			<point x="226.2" y="-269.4"/>
		</contour>
	</outline>
</glyph>
<glyph name="ae" format="2">
  <advance width="1473.0"/>
  <unicode hex="00E6"/>
  <anchor x="953.4" y="1024.0" name="top"/>
  <anchor x="648.1999999999999" y="0.0" name="bottom"/>
  <outline>
    <contour>
      <point x="1012.0" y="870.0" type="line"/>
      <point x="1063.8000000000002" y="1024.0" type="line"/>
      <point x="865.0" y="1024.0" type="line"/>
      <point x="828.1999999999999" y="917.1999999999999" type="line"/>
      <point x="669.4000000000001" y="457.0" type="line" smooth="yes"/>
      <point x="498.0" y="201.79999999999998"/>
      <point x="388.8" y="129.6"/>
      <point x="315.8" y="129.6" type="curve" smooth="yes"/>
      <point x="261.6" y="129.6"/>
      <point x="226.4" y="157.2"/>
      <point x="226.4" y="238.39999999999998" type="curve" smooth="yes"/>
      <point x="226.4" y="476.6"/>
      <point x="480.6" y="959.8"/>
      <point x="709.6" y="959.8" type="curve" smooth="yes"/>
      <point x="771.0" y="959.8"/>
      <point x="818.0" y="932.4"/>
      <point x="854.5999999999999" y="841.0" type="curve"/>
      <point x="862.4" y="875.0" type="line"/>
      <point x="809.5999999999999" y="988.0"/>
      <point x="732.8000000000001" y="1042.8"/>
      <point x="646.6" y="1042.8" type="curve" smooth="yes"/>
      <point x="333.0" y="1042.8"/>
      <point x="-2.4000000000000004" y="511.0"/>
      <point x="-2.4000000000000004" y="173.4" type="curve" smooth="yes"/>
      <point x="-2.4000000000000004" y="49.2"/>
      <point x="77.8" y="-22.0"/>
      <point x="190.79999999999998" y="-22.0" type="curve" smooth="yes"/>
      <point x="297.20000000000005" y="-22.0"/>
      <point x="434.2" y="44.4"/>
      <point x="688.0" y="445.6" type="curve"/>
      <point x="674.6" y="445.6" type="line"/>
      <point x="609.0" y="127.8"/>
      <point x="724.8000000000001" y="-22.0"/>
      <point x="943.4" y="-22.0" type="curve" smooth="yes"/>
      <point x="1100.3999999999999" y="-22.0"/>
      <point x="1243.8" y="64.4"/>
      <point x="1378.1999999999998" y="403.6" type="curve"/>
      <point x="1366.1999999999998" y="405.20000000000005" type="line"/>
      <point x="1247.3999999999999" y="189.79999999999998"/>
      <point x="1135.6000000000001" y="127.8"/>
      <point x="1025.4" y="127.8" type="curve" smooth="yes"/>
      <point x="924.6" y="127.8"/>
      <point x="873.6" y="183.6"/>
      <point x="873.6" y="323.40000000000003" type="curve" smooth="yes"/>
      <point x="873.6" y="580.4"/>
      <point x="1033.2" y="1000.0"/>
      <point x="1236.8" y="1000.0" type="curve" smooth="yes"/>
      <point x="1289.3999999999999" y="1000.0"/>
      <point x="1320.2" y="960.5999999999999"/>
      <point x="1320.2" y="893.0" type="curve" smooth="yes"/>
      <point x="1320.2" y="748.0"/>
      <point x="1228.2" y="644.8000000000001"/>
      <point x="842.6" y="518.5999999999999" type="curve"/>
      <point x="836.6" y="485.6" type="line"/>
      <point x="1067.0" y="543.4"/>
      <point x="1335.4" y="633.8"/>
      <point x="1431.3999999999999" y="685.2" type="curve"/>
      <point x="1472.4" y="744.0"/>
      <point x="1489.6000000000001" y="808.0"/>
      <point x="1489.6000000000001" y="869.4" type="curve" smooth="yes"/>
      <point x="1489.6000000000001" y="965.4"/>
      <point x="1432.0" y="1046.0"/>
      <point x="1296.6" y="1046.0" type="curve" smooth="yes"/>
      <point x="1173.8" y="1046.0"/>
      <point x="1079.8" y="984.0"/>
      <point x="1006.6" y="870.0" type="curve"/>
    </contour>
  </outline>
</glyph>
<glyph name="ccedilla" format="2">
	<unicode hex="00E7"/>
	<advance width="828.4"/>
	<outline>
		<contour>
			<point x="121.4" y="-465" type="curve"/>
			<point x="273.2" y="-465"/>
			<point x="382.8" y="-367.6"/>
			<point x="382.8" y="-264" type="curve" smooth="yes"/>
			<point x="382.8" y="-198"/>
			<point x="346" y="-145.8"/>
			<point x="212.8" y="-100.2" type="curve"/>
			<point x="185" y="-168.4" type="line"/>
			<point x="358.6" y="21.8" type="line"/>
			<point x="311.8" y="21.8" type="line"/>
			<point x="111.6" y="-198.4" type="line"/>
			<point x="111.6" y="-202.6" type="line"/>
			<point x="248.4" y="-239.4"/>
			<point x="284.2" y="-282.8"/>
			<point x="284.2" y="-329.8" type="curve" smooth="yes"/>
			<point x="284.2" y="-385.6"/>
			<point x="237.2" y="-422.4"/>
			<point x="173" y="-422.4" type="curve" smooth="yes"/>
			<point x="98.8" y="-422.4"/>
			<point x="70.6" y="-340.8"/>
			<point x="55.6" y="-340.8" type="curve" smooth="yes"/>
			<point x="23.2" y="-340.8"/>
			<point x="1.6" y="-363.2"/>
			<point x="1.6" y="-397.6" type="curve" smooth="yes"/>
			<point x="1.6" y="-433.6"/>
			<point x="30.6" y="-465"/>
		</contour>
		<contour>
			<point x="629.8" y="1004" type="curve" smooth="yes"/>
			<point x="681.4" y="1004"/>
			<point x="696.4" y="981.2"/>
			<point x="671.8" y="889.4" type="curve" smooth="yes"/>
			<point x="647.2" y="797.6"/>
			<point x="671" y="767.2"/>
			<point x="738" y="767.2" type="curve" smooth="yes"/>
			<point x="819.2" y="767.2"/>
			<point x="871.2" y="827.2"/>
			<point x="871.2" y="897.6" type="curve" smooth="yes"/>
			<point x="871.2" y="981"/>
			<point x="810.4" y="1046"/>
			<point x="660" y="1046" type="curve" smooth="yes"/>
			<point x="317.4" y="1046"/>
			<point x="37.2" y="669.2"/>
			<point x="37.2" y="265.2" type="curve" smooth="yes"/>
			<point x="37.2" y="83"/>
			<point x="136" y="-22"/>
			<point x="316.2" y="-22" type="curve" smooth="yes"/>
			<point x="482.2" y="-22"/>
			<point x="617.2" y="75"/>
			<point x="745.4" y="403.6" type="curve"/>
			<point x="733.4" y="405.2" type="line"/>
			<point x="619.8" y="196.4"/>
			<point x="508" y="127.8"/>
			<point x="396.6" y="127.8" type="curve" smooth="yes"/>
			<point x="298.2" y="127.8"/>
			<point x="252" y="183.6"/>
			<point x="252" y="323.4" type="curve" smooth="yes"/>
			<point x="252" y="642"/>
			<point x="426.6" y="1004"/>
		</contour>
	</outline>
</glyph>
<glyph name="eth" format="2">
	<unicode hex="00F0"/>
	<advance width="972.6"/>
	<outline>
		<contour>
			<point x="782.2" y="856.8" type="line"/>
			<point x="781.8" y="946.6"/>
			<point x="737.2" y="1012"/>
			<point x="636.2" y="1012" type="curve" smooth="yes"/>
			<point x="319.2" y="1012"/>
			<point x="33.2" y="640"/>
			<point x="33.2" y="282.6" type="curve" smooth="yes"/>
			<point x="33.2" y="91.4"/>
			<point x="129" y="-22"/>
			<point x="314.2" y="-22" type="curve" smooth="yes"/>
			<point x="678" y="-22"/>
			<point x="945.8" y="410"/>
			<point x="945.8" y="842.4" type="curve" smooth="yes"/>
			<point x="945.8" y="1120.2"/>
			<point x="816.4" y="1364"/>
			<point x="441.8" y="1485.4" type="curve"/>
			<point x="426.8" y="1452.6" type="line"/>
			<point x="694.6" y="1348"/>
			<point x="800.2" y="1112"/>
			<point x="759.2" y="857.6" type="curve"/>
		</contour>
		<contour>
			<point x="310" y="19.8" type="curve" smooth="yes"/>
			<point x="250" y="19.8"/>
			<point x="224.8" y="64.6"/>
			<point x="224.8" y="162.6" type="curve" smooth="yes"/>
			<point x="224.8" y="510.6"/>
			<point x="454.4" y="970.2"/>
			<point x="646.2" y="970.2" type="curve" smooth="yes"/>
			<point x="706.2" y="970.2"/>
			<point x="731.4" y="925.4"/>
			<point x="731.4" y="827.4" type="curve" smooth="yes"/>
			<point x="731.4" y="479.4"/>
			<point x="501.8" y="19.8"/>
		</contour>
		<contour>
			<point x="453.4" y="1082.4" type="line"/>
			<point x="989.8" y="1442.8" type="line"/>
			<point x="965.6" y="1481.2" type="line"/>
			<point x="429" y="1121.6" type="line"/>
		</contour>
	</outline>
</glyph>
<glyph name="divide" format="2">
	<unicode hex="00F7"/>
	<advance width="1150"/>
	<outline>
		<contour>
			<point x="175" y="548" type="line"/>
			<point x="153" y="476" type="line"/>
			<point x="975" y="476" type="line"/>
			<point x="997" y="548" type="line"/>
		</contour>
		<contour>
			<point x="684" y="976.6" type="curve" smooth="yes"/>
			<point x="622" y="976.6"/>
			<point x="576.2" y="928.6"/>
			<point x="576.2" y="870" type="curve" smooth="yes"/>
			<point x="576.2" y="811.4"/>
			<point x="622" y="763.2"/>
			<point x="684" y="763.2" type="curve" smooth="yes"/>
			<point x="746" y="763.2"/>
			<point x="791.8" y="811.4"/>
			<point x="791.8" y="870" type="curve" smooth="yes"/>
			<point x="791.8" y="928.6"/>
			<point x="746" y="976.6"/>
		</contour>
		<contour>
			<point x="466.2" y="261.6" type="curve" smooth="yes"/>
			<point x="404.2" y="261.6"/>
			<point x="358.4" y="212.6"/>
			<point x="358.4" y="154" type="curve" smooth="yes"/>
			<point x="358.4" y="95.4"/>
			<point x="404.2" y="47.4"/>
			<point x="466.2" y="47.4" type="curve" smooth="yes"/>
			<point x="528.2" y="47.4"/>
			<point x="574" y="95.4"/>
			<point x="574" y="154" type="curve" smooth="yes"/>
			<point x="574" y="212.6"/>
			<point x="528.2" y="261.6"/>
		</contour>
	</outline>
</glyph>
<glyph name="oslash" format="2">
	<unicode hex="00F8"/>
	<advance width="1001.4"/>
	<outline>
		<contour>
			<point x="662.8" y="1046" type="curve" smooth="yes"/>
			<point x="340" y="1046"/>
			<point x="54" y="662"/>
			<point x="54" y="292.8" type="curve" smooth="yes"/>
			<point x="54" y="95"/>
			<point x="149.8" y="-22"/>
			<point x="335" y="-22" type="curve" smooth="yes"/>
			<point x="657.8" y="-22"/>
			<point x="943.8" y="362"/>
			<point x="943.8" y="731.2" type="curve" smooth="yes"/>
			<point x="943.8" y="929"/>
			<point x="848" y="1046"/>
		</contour>
		<contour>
			<point x="330.8" y="19.8" type="curve" smooth="yes"/>
			<point x="270.8" y="19.8"/>
			<point x="245.6" y="66.4"/>
			<point x="245.6" y="168.4" type="curve" smooth="yes"/>
			<point x="245.6" y="527.8"/>
			<point x="475.2" y="1004.2"/>
			<point x="667" y="1004.2" type="curve" smooth="yes"/>
			<point x="727" y="1004.2"/>
			<point x="752.2" y="957.6"/>
			<point x="752.2" y="855.6" type="curve" smooth="yes"/>
			<point x="752.2" y="496.2"/>
			<point x="522.6" y="19.8"/>
		</contour>
		<contour>
			<point x="989.4" y="1024" type="line"/>
			<point x="860.2" y="901.2" type="line"/>
			<point x="805.2" y="874" type="line"/>
			<point x="174" y="203.8" type="line"/>
			<point x="119" y="181.2" type="line"/>
			<point x="-70.6" y="0" type="line"/>
			<point x="25.4" y="0" type="line"/>
			<point x="154.8" y="122.8" type="line"/>
			<point x="209.8" y="150" type="line"/>
			<point x="841" y="820.2" type="line"/>
			<point x="895.8" y="842.8" type="line"/>
			<point x="1085.4" y="1024" type="line"/>
		</contour>
	</outline>
	<anchor name="top" x="657.4" y="1024"/>
	<anchor name="bottom" x="321.4" y="0"/>
</glyph>
<glyph name="thorn" format="2">
	<unicode hex="00FE"/>
	<advance width="1046"/>
	<outline>
		<contour>
			<point x="267.6" y="260.8" type="curve" smooth="yes"/>
			<point x="341.4" y="517" type="line" smooth="yes"/>
			<point x="405" y="701.8"/>
			<point x="561.4" y="906.8"/>
			<point x="704.8" y="906.8" type="curve" smooth="yes"/>
			<point x="763.8" y="906.8"/>
			<point x="797.8" y="867.4"/>
			<point x="797.8" y="769.8" type="curve" smooth="yes"/>
			<point x="797.8" y="429.6"/>
			<point x="544.8" y="21.4"/>
			<point x="362.6" y="21.4" type="curve" smooth="yes"/>
			<point x="287.2" y="21.4"/>
			<point x="253.4" y="86"/>
			<point x="253.4" y="166" type="curve" smooth="yes"/>
			<point x="253.4" y="196.2"/>
			<point x="258.6" y="229.4"/>
		</contour>
		<contour>
			<point x="363.2" y="600" type="line"/>
			<point x="646" y="1486" type="line"/>
			<point x="639.2" y="1486" type="line"/>
			<point x="230.8" y="1403.2" type="line"/>
			<point x="228.4" y="1391.8" type="line"/>
			<point x="285.4" y="1350.2052980132"/>
			<point x="343.6" y="1307.6703380969"/>
			<point x="379.6" y="1281.4" type="curve"/>
			<point x="-128.4" y="-384" type="line"/>
			<point x="-264.4" y="-415.2" type="line"/>
			<point x="-271.2" y="-443" type="line"/>
			<point x="227.2" y="-443" type="line"/>
			<point x="234.2" y="-415" type="line"/>
			<point x="83.4" y="-384.2" type="line"/>
			<point x="225.4" y="94.2" type="line"/>
			<point x="134" y="120.4" type="line"/>
			<point x="162.6" y="37.6"/>
			<point x="234" y="-22"/>
			<point x="373.8" y="-22" type="curve" smooth="yes"/>
			<point x="675.6" y="-22"/>
			<point x="1029" y="399.6"/>
			<point x="1029" y="802.4" type="curve" smooth="yes"/>
			<point x="1029" y="964.2"/>
			<point x="952" y="1046"/>
			<point x="814.8" y="1046" type="curve" smooth="yes"/>
			<point x="676.2" y="1046"/>
			<point x="528.2" y="946.4"/>
			<point x="348.8" y="600" type="curve"/>
		</contour>
	</outline>
</glyph>
<glyph name="Aogonek" format="2">
  <advance width="1434.8"/>
  <unicode hex="0104"/>
  <outline>
    <contour>
      <point x="366.2" y="535.0" type="line"/>
      <point x="1040.8" y="535.0" type="line"/>
      <point x="1059.8" y="595.4000000000001" type="line"/>
      <point x="386.0" y="595.4000000000001" type="line"/>
    </contour>
    <contour>
      <point x="1192.4" y="64.4" type="line"/>
      <point x="1018.0" y="1446.0" type="line"/>
      <point x="932.0" y="1446.0" type="line"/>
      <point x="10.0" y="70.6" type="line"/>
      <point x="-158.4" y="21.4" type="line"/>
      <point x="-165.20000000000002" y="0.0" type="line"/>
      <point x="229.4" y="0.0" type="line"/>
      <point x="236.2" y="21.4" type="line"/>
      <point x="80.8" y="67.6" type="line"/>
      <point x="844.0" y="1217.6000000000001" type="line"/>
      <point x="819.0" y="1217.6" type="line"/>
      <point x="954.1999999999999" y="61.8" type="line"/>
      <point x="794.0" y="21.4" type="line"/>
      <point x="787.0" y="0.0" type="line"/>
      <point x="1325.8" y="0.0" type="line"/>
      <point x="1332.6000000000001" y="21.4" type="line"/>
    </contour>
    <contour>
      <point x="938.8" y="-294.2" type="curve" smooth="yes"/>
      <point x="938.8" y="-245.4"/>
      <point x="954.5999999999999" y="-186.2"/>
      <point x="1057.2" y="-46.99999999999999" type="curve" smooth="yes"/>
      <point x="1146.8" y="76.2" type="line"/>
      <point x="1123.2" y="76.2" type="line"/>
      <point x="985.2" y="-81.60000000000001" type="line" smooth="yes"/>
      <point x="848.2" y="-231.2"/>
      <point x="811.2" y="-283.79999999999995"/>
      <point x="811.2" y="-361.6" type="curve" smooth="yes"/>
      <point x="811.2" y="-422.4"/>
      <point x="850.8" y="-465.0"/>
      <point x="940.0" y="-465.0" type="curve" smooth="yes"/>
      <point x="1008.5999999999999" y="-465.0"/>
      <point x="1064.2" y="-431.0"/>
      <point x="1147.2" y="-323.20000000000005" type="curve"/>
      <point x="1139.3999999999999" y="-313.6" type="line"/>
      <point x="1099.0" y="-348.6"/>
      <point x="1065.0" y="-363.40000000000003"/>
      <point x="1021.2" y="-363.40000000000003" type="curve" smooth="yes"/>
      <point x="971.0" y="-363.40000000000003"/>
      <point x="938.8" y="-340.8"/>
    </contour>
  </outline>
</glyph>
<glyph name="aogonek" format="2">
	<unicode hex="0105"/>
	<advance width="1089.4"/>
	<outline>
		<contour>
			<point x="1053.8" y="331.6" type="curve"/>
			<point x="1044" y="339.2" type="line"/>
			<point x="902" y="172.2"/>
			<point x="796.4" y="118"/>
			<point x="735.2" y="126.6" type="curve"/>
			<point x="758.2" y="93.2" type="line"/>
			<point x="1071.4" y="1024" type="line"/>
			<point x="866.6" y="1024" type="line"/>
			<point x="829.8" y="917.2" type="line"/>
			<point x="670" y="454.8" type="line" smooth="yes"/>
			<point x="500.2" y="200.4"/>
			<point x="389" y="129.6"/>
			<point x="317.4" y="129.6" type="curve" smooth="yes"/>
			<point x="261.6" y="129.6"/>
			<point x="228" y="158.8"/>
			<point x="228" y="238.4" type="curve" smooth="yes"/>
			<point x="228" y="514.2"/>
			<point x="508.2" y="959.8"/>
			<point x="711.2" y="959.8" type="curve" smooth="yes"/>
			<point x="765.6" y="959.8"/>
			<point x="808.8" y="938.6"/>
			<point x="842.8" y="871.6" type="curve"/>
			<point x="852.2" y="899.4" type="line"/>
			<point x="799.4" y="995.8"/>
			<point x="726.4" y="1042.8"/>
			<point x="646.6" y="1042.8" type="curve" smooth="yes"/>
			<point x="349" y="1042.8"/>
			<point x="-0.8" y="533.4"/>
			<point x="-0.8" y="173.4" type="curve" smooth="yes"/>
			<point x="-0.8" y="49.2"/>
			<point x="79.4" y="-22"/>
			<point x="192.4" y="-22" type="curve" smooth="yes"/>
			<point x="316.8" y="-22"/>
			<point x="447.6" y="69.6"/>
			<point x="693.2" y="452" type="curve"/>
			<point x="680.8" y="453.4" type="line"/>
			<point x="557.8" y="74.2" type="line" smooth="yes"/>
			<point x="538.2" y="15.2"/>
			<point x="568.6" y="-22"/>
			<point x="640.4" y="-22" type="curve" smooth="yes"/>
			<point x="692.6" y="-22"/>
			<point x="748.8" y="-2.6"/>
			<point x="817" y="48.6" type="curve"/>
			<point x="810.8" y="57.6" type="line"/>
			<point x="688.2" y="-63" type="line" smooth="yes"/>
			<point x="526.2" y="-224.8"/>
			<point x="477.6" y="-273.8"/>
			<point x="477.6" y="-358" type="curve" smooth="yes"/>
			<point x="477.6" y="-418.8"/>
			<point x="517.2" y="-465"/>
			<point x="606.4" y="-465" type="curve" smooth="yes"/>
			<point x="675" y="-465"/>
			<point x="730.6" y="-431"/>
			<point x="813.6" y="-323.2" type="curve"/>
			<point x="805.8" y="-313.6" type="line"/>
			<point x="765.4" y="-348.6"/>
			<point x="731.4" y="-363.4"/>
			<point x="687.6" y="-363.4" type="curve" smooth="yes"/>
			<point x="637.4" y="-363.4"/>
			<point x="608.4" y="-343.2"/>
			<point x="608.4" y="-296.6" type="curve" smooth="yes"/>
			<point x="608.4" y="-247.8"/>
			<point x="628.4" y="-177"/>
			<point x="760.8" y="-27.8" type="curve" smooth="yes"/>
			<point x="911.6" y="138.2" type="line" smooth="yes"/>
			<point x="966" y="198.6"/>
			<point x="1008.4" y="259.4"/>
		</contour>
	</outline>
</glyph>
<glyph name="Dcroat" format="2">
  <advance width="1520.0"/>
  <unicode hex="0110"/>
  <guideline x="-81.60000000000001" y="0.0" angle="176.51604439422618" identifier="SOFkAI0H3c"/>
  <outline>
    <contour>
      <point x="136.60000000000002" y="712.8" type="line"/>
      <point x="844.5999999999999" y="712.8" type="line"/>
      <point x="864.8" y="780.4000000000001" type="line"/>
      <point x="156.8" y="780.4000000000001" type="line"/>
    </contour>
    <contour>
      <point x="541.4000000000001" y="60.4" type="curve" smooth="yes"/>
      <point x="207.4" y="60.4" type="line"/>
      <point x="189.60000000000002" y="0.0" type="line"/>
      <point x="520.1999999999999" y="0.0" type="line" smooth="yes"/>
      <point x="1144.8" y="0.0"/>
      <point x="1508.4" y="413.4"/>
      <point x="1508.4" y="893.1999999999999" type="curve" smooth="yes"/>
      <point x="1508.4" y="1241.0"/>
      <point x="1246.8" y="1430.0"/>
      <point x="865.0" y="1430.0" type="curve" smooth="yes"/>
      <point x="627.5999999999999" y="1430.0" type="line"/>
      <point x="628.2" y="1369.6" type="line"/>
      <point x="852.6" y="1369.6" type="line" smooth="yes"/>
      <point x="1123.4" y="1369.6"/>
      <point x="1266.6000000000001" y="1223.0"/>
      <point x="1266.6000000000001" y="963.8" type="curve" smooth="yes"/>
      <point x="1266.6000000000001" y="418.8"/>
      <point x="941.1999999999999" y="60.4"/>
    </contour>
    <contour>
      <point x="496.8" y="1366.6000000000001" type="line"/>
      <point x="99.2" y="64.2" type="line"/>
      <point x="-75.4" y="21.4" type="line"/>
      <point x="-81.60000000000001" y="0.0" type="line"/>
      <point x="328.0" y="0.0" type="line"/>
      <point x="763.6" y="1430.0" type="line"/>
      <point x="345.4" y="1430.0" type="line"/>
      <point x="339.2" y="1408.6" type="line"/>
    </contour>
  </outline>
</glyph>
<glyph name="dcroat" format="2">
	<unicode hex="0111"/>
	<advance width="1088.6"/>
	<outline>
		<contour>
			<point x="862" y="824.6" type="curve"/>
			<point x="868.6" y="863.2" type="line"/>
			<point x="814.4" y="984.8"/>
			<point x="735.4" y="1042.8"/>
			<point x="646.6" y="1042.8" type="curve" smooth="yes"/>
			<point x="333" y="1042.8"/>
			<point x="-2.4" y="511"/>
			<point x="-2.4" y="173.4" type="curve" smooth="yes"/>
			<point x="-2.4" y="49.2"/>
			<point x="77.8" y="-22"/>
			<point x="190.8" y="-22" type="curve" smooth="yes"/>
			<point x="298" y="-22"/>
			<point x="433.6" y="45.6"/>
			<point x="691.6" y="452" type="curve"/>
			<point x="680.2" y="452.4" type="line"/>
			<point x="567" y="103" type="line" smooth="yes"/>
			<point x="539.2" y="17.2"/>
			<point x="565.4" y="-22"/>
			<point x="643.8" y="-22" type="curve" smooth="yes"/>
			<point x="754.8" y="-22"/>
			<point x="899.8" y="81"/>
			<point x="1070.6" y="331.6" type="curve"/>
			<point x="1060.8" y="339.2" type="line"/>
			<point x="888.6" y="151.6"/>
			<point x="777" y="110.6"/>
			<point x="715.8" y="122.6" type="curve"/>
			<point x="762.6" y="86.8" type="line"/>
			<point x="1211.4" y="1486" type="line"/>
			<point x="1204.6" y="1486" type="line"/>
			<point x="822" y="1417.2" type="line"/>
			<point x="819.6" y="1405.8" type="line"/>
			<point x="876.6" y="1320.5871161951"/>
			<point x="911" y="1349.0186634557"/>
			<point x="947" y="1295.2" type="curve"/>
			<point x="669.4" y="457" type="line" smooth="yes"/>
			<point x="501.8" y="208.6"/>
			<point x="388.8" y="129.6"/>
			<point x="315.8" y="129.6" type="curve" smooth="yes"/>
			<point x="261.6" y="129.6"/>
			<point x="226.4" y="157.2"/>
			<point x="226.4" y="238.4" type="curve" smooth="yes"/>
			<point x="226.4" y="476.6"/>
			<point x="482.6" y="959.8"/>
			<point x="709.6" y="959.8" type="curve" smooth="yes"/>
			<point x="774.8" y="959.8"/>
			<point x="823.8" y="928.8"/>
		</contour>
		<contour>
			<point x="621.2" y="1173.2" type="line"/>
			<point x="1294" y="1173.2" type="line"/>
			<point x="1315" y="1240.8" type="line"/>
			<point x="642.2" y="1240.8" type="line"/>
		</contour>
	</outline>
</glyph>
<glyph name="Eogonek" format="2">
	<unicode hex="0118"/>
	<advance width="1324"/>
	<outline>
		<contour>
			<point x="493.8" y="1366.6" type="line"/>
			<point x="96.2" y="64.2" type="line"/>
			<point x="-78.4" y="21.4" type="line"/>
			<point x="-84.6" y="0" type="line"/>
			<point x="325" y="0" type="line"/>
			<point x="760.6" y="1430" type="line"/>
			<point x="342.4" y="1430" type="line"/>
			<point x="336.2" y="1408.6" type="line"/>
		</contour>
		<contour>
			<point x="875.2" y="455" type="line"/>
			<point x="899.8" y="455" type="line"/>
			<point x="956.8" y="746" type="line"/>
			<point x="1078.8" y="1039" type="line"/>
			<point x="1054.2" y="1039" type="line"/>
			<point x="872.6" y="787.8" type="line"/>
			<point x="432.2" y="758" type="line"/>
			<point x="422.2" y="735" type="line"/>
			<point x="854.8" y="709.2" type="line"/>
		</contour>
		<contour>
			<point x="1376" y="1021.6" type="line"/>
			<point x="1447.6" y="1490.6" type="line"/>
			<point x="1436.8" y="1490.6" type="line"/>
			<point x="1281.8" y="1430" type="line"/>
			<point x="604" y="1430" type="line"/>
			<point x="583" y="1369.6" type="line"/>
			<point x="1396.8" y="1369.6" type="line"/>
			<point x="1271" y="1391.8" type="line"/>
			<point x="1348" y="1021.6" type="line"/>
		</contour>
		<contour>
			<point x="992.2" y="-59.4" type="line"/>
			<point x="1004" y="-59.4" type="line"/>
			<point x="1246.2" y="385.8" type="line"/>
			<point x="1222.2" y="402.6" type="line"/>
			<point x="846" y="41.4" type="line"/>
			<point x="960.4" y="60.4" type="line"/>
			<point x="188.4" y="60.4" type="line"/>
			<point x="167" y="0" type="line"/>
			<point x="862.8" y="0" type="line"/>
		</contour>
		<contour>
			<point x="732.2" y="-286.2" type="curve" smooth="yes"/>
			<point x="732.2" y="-231.8"/>
			<point x="750" y="-170.4"/>
			<point x="841.2" y="-47.8" type="curve" smooth="yes"/>
			<point x="933.2" y="76.2" type="line"/>
			<point x="909.6" y="76.2" type="line"/>
			<point x="769.4" y="-82.4" type="line" smooth="yes"/>
			<point x="621.8" y="-247.4"/>
			<point x="606.2" y="-299.8"/>
			<point x="606.2" y="-359.2" type="curve" smooth="yes"/>
			<point x="606.2" y="-422.4"/>
			<point x="645.8" y="-465"/>
			<point x="735" y="-465" type="curve" smooth="yes"/>
			<point x="803.6" y="-465"/>
			<point x="859.2" y="-431"/>
			<point x="942.2" y="-323.2" type="curve"/>
			<point x="934.4" y="-313.6" type="line"/>
			<point x="894" y="-348.6"/>
			<point x="860" y="-363.4"/>
			<point x="816.2" y="-363.4" type="curve" smooth="yes"/>
			<point x="759.6" y="-363.4"/>
			<point x="732.2" y="-339.2"/>
		</contour>
	</outline>
</glyph>
<glyph name="eogonek" format="2">
	<unicode hex="0119"/>
	<advance width="854.6"/>
	<outline>
		<contour>
			<point x="615.2" y="135.8" type="line" smooth="yes"/>
			<point x="665.8" y="197.2"/>
			<point x="714" y="287.6"/>
			<point x="759.8" y="403.6" type="curve"/>
			<point x="747.8" y="405.2" type="line"/>
			<point x="628.4" y="188.8"/>
			<point x="512.4" y="127.8"/>
			<point x="399.8" y="127.8" type="curve" smooth="yes"/>
			<point x="299" y="127.8"/>
			<point x="248" y="183.6"/>
			<point x="248" y="323.4" type="curve" smooth="yes"/>
			<point x="248" y="580.4"/>
			<point x="407.6" y="1000"/>
			<point x="611.2" y="1000" type="curve" smooth="yes"/>
			<point x="663.8" y="1000"/>
			<point x="694.6" y="960.6"/>
			<point x="694.6" y="893" type="curve" smooth="yes"/>
			<point x="694.6" y="748"/>
			<point x="602.6" y="644.8"/>
			<point x="217" y="518.6" type="curve"/>
			<point x="211" y="485.6" type="line"/>
			<point x="443.6" y="544"/>
			<point x="715.4" y="633.2"/>
			<point x="813" y="685.2" type="curve"/>
			<point x="854" y="744"/>
			<point x="871.2" y="808"/>
			<point x="871.2" y="869.4" type="curve" smooth="yes"/>
			<point x="871.2" y="965.4"/>
			<point x="812" y="1046"/>
			<point x="648" y="1046" type="curve" smooth="yes"/>
			<point x="287.4" y="1046"/>
			<point x="33.2" y="610.2"/>
			<point x="33.2" y="265.2" type="curve" smooth="yes"/>
			<point x="33.2" y="85.4"/>
			<point x="132" y="-22"/>
			<point x="317.8" y="-22" type="curve" smooth="yes"/>
			<point x="386.6" y="-22"/>
			<point x="459.6" y="-5.4"/>
			<point x="523" y="41.4" type="curve"/>
			<point x="517.6" y="48" type="line"/>
			<point x="459.4" y="-14.2" type="line" smooth="yes"/>
			<point x="272.2" y="-225.8"/>
			<point x="247.8" y="-279.6"/>
			<point x="247.8" y="-348.8" type="curve" smooth="yes"/>
			<point x="247.8" y="-410.4"/>
			<point x="282.6" y="-465"/>
			<point x="376.6" y="-465" type="curve" smooth="yes"/>
			<point x="445.2" y="-465"/>
			<point x="500.8" y="-431"/>
			<point x="583.8" y="-323.2" type="curve"/>
			<point x="576" y="-313.6" type="line"/>
			<point x="535.6" y="-348.6"/>
			<point x="501.6" y="-363.4"/>
			<point x="457.8" y="-363.4" type="curve" smooth="yes"/>
			<point x="398.8" y="-363.4"/>
			<point x="368.2" y="-336.8"/>
			<point x="368.2" y="-277.4" type="curve" smooth="yes"/>
			<point x="368.2" y="-222.2"/>
			<point x="400" y="-127.8"/>
			<point x="535" y="36.8" type="curve" smooth="yes"/>
		</contour>
	</outline>
</glyph>
<glyph name="Hbar" format="2">
  <advance width="1622.6"/>
  <unicode hex="0126"/>
  <outline>
    <contour>
      <point x="401.2" y="710.0" type="line"/>
      <point x="1335.2" y="710.0" type="line"/>
      <point x="1356.8" y="770.4" type="line"/>
      <point x="421.8" y="770.4" type="line"/>
    </contour>
    <contour>
      <point x="239.0" y="1053.2" type="line"/>
      <point x="1722.6" y="1053.2" type="line"/>
      <point x="1744.4" y="1123.2" type="line"/>
      <point x="260.0" y="1123.2" type="line"/>
    </contour>
    <contour>
      <point x="495.0" y="1366.6000000000001" type="line"/>
      <point x="97.4" y="64.2" type="line"/>
      <point x="-77.2" y="21.4" type="line"/>
      <point x="-83.4" y="0.0" type="line"/>
      <point x="496.6" y="0.0" type="line"/>
      <point x="501.8" y="21.4" type="line"/>
      <point x="345.20000000000005" y="63.4" type="line"/>
      <point x="742.6" y="1365.8" type="line"/>
      <point x="917.2" y="1408.6" type="line"/>
      <point x="923.4" y="1430.0" type="line"/>
      <point x="343.6" y="1430.0" type="line"/>
      <point x="337.4" y="1408.6" type="line"/>
    </contour>
    <contour>
      <point x="1398.6000000000001" y="1366.6000000000001" type="line"/>
      <point x="1001.0" y="64.2" type="line"/>
      <point x="826.4000000000001" y="21.4" type="line"/>
      <point x="820.2" y="0.0" type="line"/>
      <point x="1400.2" y="0.0" type="line"/>
      <point x="1406.4" y="21.4" type="line"/>
      <point x="1249.8" y="63.4" type="line"/>
      <point x="1647.3999999999999" y="1365.8" type="line"/>
      <point x="1821.0" y="1408.6" type="line"/>
      <point x="1827.2" y="1430.0" type="line"/>
      <point x="1247.2" y="1430.0" type="line"/>
      <point x="1242.0" y="1408.6" type="line"/>
    </contour>
  </outline>
</glyph>
<glyph name="hbar" format="2">
	<unicode hex="0127"/>
	<advance width="1102"/>
	<outline>
		<contour>
			<point x="361" y="522.2" type="line"/>
			<point x="404" y="643.2"/>
			<point x="577.2" y="879.6"/>
			<point x="725.6" y="879.6" type="curve" smooth="yes"/>
			<point x="783.6" y="879.6"/>
			<point x="811.2" y="857.2"/>
			<point x="811.2" y="816.4" type="curve" smooth="yes"/>
			<point x="811.2" y="792.8"/>
			<point x="799.6" y="762.8"/>
			<point x="759.4" y="664.8" type="curve" smooth="yes"/>
			<point x="526.8" y="101.4" type="line" smooth="yes"/>
			<point x="492.4" y="17.4"/>
			<point x="529.2" y="-22"/>
			<point x="626" y="-22" type="curve" smooth="yes"/>
			<point x="739.4" y="-22"/>
			<point x="888" y="76.2"/>
			<point x="1065.2" y="326.4" type="curve"/>
			<point x="1055.6" y="334.2" type="line"/>
			<point x="873.4" y="148.4"/>
			<point x="759" y="112.6"/>
			<point x="691.6" y="125" type="curve"/>
			<point x="733.8" y="88.2" type="line"/>
			<point x="973.8" y="677.4" type="line" smooth="yes"/>
			<point x="1025.4" y="804.2"/>
			<point x="1035.2" y="847.8"/>
			<point x="1035.2" y="894.6" type="curve" smooth="yes"/>
			<point x="1035.2" y="977.8"/>
			<point x="984.8" y="1046"/>
			<point x="855.4" y="1046" type="curve" smooth="yes"/>
			<point x="715.2" y="1046"/>
			<point x="595.2" y="978.2"/>
			<point x="361.6" y="585.2" type="curve"/>
			<point x="375" y="585.2" type="line"/>
			<point x="666.2" y="1486" type="line"/>
			<point x="659.4" y="1486" type="line"/>
			<point x="273.8" y="1415.2" type="line"/>
			<point x="271.4" y="1403.8" type="line"/>
			<point x="328.4" y="1343.466012299"/>
			<point x="367.4" y="1333.3056764428"/>
			<point x="403.4" y="1295.2" type="curve"/>
			<point x="-23.6" y="0" type="line"/>
			<point x="185" y="0" type="line"/>
		</contour>
		<contour>
			<point x="180" y="1173.2" type="line"/>
			<point x="852.8" y="1173.2" type="line"/>
			<point x="873.8" y="1240.8" type="line"/>
			<point x="201" y="1240.8" type="line"/>
		</contour>
	</outline>
</glyph>
<glyph name="Iogonek" format="2">
  <advance width="716"/>
  <unicode hex="012E"/>
  <outline>
    <contour>
      <point x="493.8" y="1366.6000000000001" type="line"/>
      <point x="96.2" y="64.2" type="line"/>
      <point x="-78.4" y="21.4" type="line"/>
      <point x="-84.60000000000001" y="0.0" type="line"/>
      <point x="495.4" y="0.0" type="line"/>
      <point x="500.59999999999997" y="21.4" type="line"/>
      <point x="344.0" y="63.4" type="line"/>
      <point x="741.4" y="1365.8" type="line"/>
      <point x="916.0" y="1408.6" type="line"/>
      <point x="922.1999999999999" y="1430.0" type="line"/>
      <point x="342.40000000000003" y="1430.0" type="line"/>
      <point x="336.2" y="1408.6" type="line"/>
    </contour>
    <contour>
      <point x="54.2" y="-288.6" type="curve" smooth="yes"/>
      <point x="54.2" y="-239.8"/>
      <point x="70.4" y="-188.4"/>
      <point x="175.4" y="-49.199999999999996" type="curve" smooth="yes"/>
      <point x="270.0" y="76.2" type="line"/>
      <point x="249.6" y="76.2" type="line"/>
      <point x="102.8" y="-83.80000000000001" type="line" smooth="yes"/>
      <point x="-52.800000000000004" y="-252.0"/>
      <point x="-75.0" y="-291.8"/>
      <point x="-75.0" y="-361.59999999999997" type="curve" smooth="yes"/>
      <point x="-75.0" y="-422.4"/>
      <point x="-35.400000000000006" y="-465.0"/>
      <point x="53.800000000000004" y="-465.0" type="curve" smooth="yes"/>
      <point x="122.4" y="-465.0"/>
      <point x="178.0" y="-431.0"/>
      <point x="261.0" y="-323.20000000000005" type="curve"/>
      <point x="253.2" y="-313.6" type="line"/>
      <point x="212.8" y="-348.6"/>
      <point x="178.8" y="-363.40000000000003"/>
      <point x="135.0" y="-363.40000000000003" type="curve" smooth="yes"/>
      <point x="84.8" y="-363.40000000000003"/>
      <point x="54.2" y="-335.2"/>
    </contour>
  </outline>
</glyph>
<glyph name="iogonek" format="2">
	<unicode hex="012F"/>
	<advance width="620"/>
	<outline>
		<contour>
			<point x="498.2" y="1370.4" type="curve" smooth="yes"/>
			<point x="472.4" y="1317.6"/>
			<point x="492.8" y="1248.8"/>
			<point x="555.2" y="1227.2" type="curve" smooth="yes"/>
			<point x="616.8" y="1208.4"/>
			<point x="666.2" y="1244.8"/>
			<point x="687.6" y="1297.6" type="curve" smooth="yes"/>
			<point x="713.4" y="1348.8"/>
			<point x="695.4" y="1411.8"/>
			<point x="633.8" y="1433.4" type="curve" smooth="yes"/>
			<point x="571.4" y="1452.2"/>
			<point x="519.6" y="1421.6"/>
		</contour>
		<contour>
			<point x="361.8" y="77.6" type="line" smooth="yes"/>
			<point x="427" y="133.2"/>
			<point x="498" y="215.4"/>
			<point x="574.4" y="327.2" type="curve"/>
			<point x="564.6" y="334.4" type="line"/>
			<point x="366.6" y="129.6"/>
			<point x="273" y="107.4"/>
			<point x="218.4" y="128.6" type="curve"/>
			<point x="263.2" y="88" type="line"/>
			<point x="570.2" y="914" type="line" smooth="yes"/>
			<point x="602" y="999"/>
			<point x="583.4" y="1043.2"/>
			<point x="487.4" y="1043.2" type="curve" smooth="yes"/>
			<point x="367.4" y="1043.2"/>
			<point x="230.2" y="943"/>
			<point x="56.8" y="696.4" type="curve"/>
			<point x="67" y="688.6" type="line"/>
			<point x="242" y="870"/>
			<point x="328.4" y="905"/>
			<point x="399.6" y="890.6" type="curve"/>
			<point x="371.4" y="936" type="line"/>
			<point x="65.2" y="112.8" type="line" smooth="yes"/>
			<point x="29.4" y="15.6"/>
			<point x="54.6" y="-22"/>
			<point x="148.2" y="-22" type="curve" smooth="yes"/>
			<point x="183.2" y="-22"/>
			<point x="222" y="-11.6"/>
			<point x="263.6" y="9.6" type="curve"/>
			<point x="259" y="16.6" type="line"/>
			<point x="129.4" y="-85.4" type="line" smooth="yes"/>
			<point x="-69.8" y="-238.8"/>
			<point x="-87.8" y="-289.4"/>
			<point x="-87.8" y="-353.6" type="curve" smooth="yes"/>
			<point x="-87.8" y="-414.4"/>
			<point x="-48.2" y="-465"/>
			<point x="41" y="-465" type="curve" smooth="yes"/>
			<point x="109.6" y="-465"/>
			<point x="165.2" y="-431"/>
			<point x="248.2" y="-323.2" type="curve"/>
			<point x="240.4" y="-313.6" type="line"/>
			<point x="200" y="-348.6"/>
			<point x="166" y="-363.4"/>
			<point x="122.2" y="-363.4" type="curve" smooth="yes"/>
			<point x="66.4" y="-363.4"/>
			<point x="40.6" y="-338.4"/>
			<point x="40.6" y="-288.6" type="curve" smooth="yes"/>
			<point x="40.6" y="-239.8"/>
			<point x="58.2" y="-185"/>
			<point x="214.2" y="-50.2" type="curve" smooth="yes"/>
		</contour>
	</outline>
</glyph>
<glyph name="dotlessi" format="2">
	<unicode hex="0131"/>
	<advance width="618.8"/>
	<outline>
		<contour>
			<point x="65.2" y="112.8" type="line" smooth="yes"/>
			<point x="29.4" y="15.6"/>
			<point x="54.6" y="-22"/>
			<point x="148.2" y="-22" type="curve" smooth="yes"/>
			<point x="259.8" y="-22"/>
			<point x="404.6" y="78.8"/>
			<point x="574.4" y="327.2" type="curve"/>
			<point x="564.6" y="334.4" type="line"/>
			<point x="366.6" y="129.6"/>
			<point x="273" y="107.4"/>
			<point x="218.4" y="128.6" type="curve"/>
			<point x="263.2" y="88" type="line"/>
			<point x="570.2" y="914" type="line" smooth="yes"/>
			<point x="602" y="999"/>
			<point x="583.4" y="1043.2"/>
			<point x="487.4" y="1043.2" type="curve" smooth="yes"/>
			<point x="367.4" y="1043.2"/>
			<point x="230.2" y="943"/>
			<point x="56.8" y="696.4" type="curve"/>
			<point x="67" y="688.6" type="line"/>
			<point x="242" y="870"/>
			<point x="328.4" y="905"/>
			<point x="399.6" y="890.6" type="curve"/>
			<point x="371.4" y="936" type="line"/>
		</contour>
	</outline>
	<anchor name="top" x="480.6" y="1024"/>
	<anchor name="right" x="310.6" y="0"/>
	<anchor name="bottom" x="148.8" y="0"/>
</glyph>
<glyph name="kgreenlandic" format="2">
	<unicode hex="0138"/>
	<advance width="1127.8"/>
	<outline>
		<contour>
			<point x="605.6" y="1018.6" type="line"/>
			<point x="556" y="1035.4"/>
			<point x="518" y="1044.8"/>
			<point x="462" y="1044.8" type="curve" smooth="yes"/>
			<point x="302.6" y="1044.8"/>
			<point x="194.4" y="941.4"/>
			<point x="56.8" y="612" type="curve"/>
			<point x="68" y="606.8" type="line"/>
			<point x="197.8" y="839.8"/>
			<point x="281.8" y="891.2"/>
			<point x="326" y="891.2" type="curve" smooth="yes"/>
			<point x="350.2" y="891.2"/>
			<point x="353.4" y="870.4"/>
			<point x="344.4" y="842.6" type="curve"/>
			<point x="66.8" y="0" type="line"/>
			<point x="276.6" y="0" type="line"/>
		</contour>
		<contour>
			<point x="1042.6" y="762.6" type="curve" smooth="yes"/>
			<point x="1121.4" y="762.6"/>
			<point x="1195.2" y="827.4"/>
			<point x="1195.2" y="926.2" type="curve" smooth="yes"/>
			<point x="1195.2" y="994.6"/>
			<point x="1152.6" y="1046"/>
			<point x="1059.2" y="1046" type="curve" smooth="yes"/>
			<point x="963" y="1046"/>
			<point x="832.2" y="963.4"/>
			<point x="443.6" y="540.4" type="curve"/>
			<point x="439.6" y="527.4" type="line"/>
			<point x="554.6" y="99.6"/>
			<point x="624" y="-22"/>
			<point x="723.4" y="-22" type="curve" smooth="yes"/>
			<point x="824.4" y="-22"/>
			<point x="919.2" y="47.6"/>
			<point x="1072" y="332.2" type="curve"/>
			<point x="1059.6" y="339.6" type="line"/>
			<point x="940" y="165.2"/>
			<point x="882.2" y="123.6"/>
			<point x="843" y="123.6" type="curve" smooth="yes"/>
			<point x="790.2" y="123.6"/>
			<point x="718" y="245.4"/>
			<point x="593.6" y="676" type="curve"/>
			<point x="537.6" y="602.6" type="line"/>
			<point x="741.4" y="826.8"/>
			<point x="885.4" y="914.6"/>
			<point x="946.2" y="914.6" type="curve" smooth="yes"/>
			<point x="970" y="914.6"/>
			<point x="978.4" y="901.6"/>
			<point x="972" y="846.8" type="curve" smooth="yes"/>
			<point x="965.6" y="792"/>
			<point x="983" y="762.6"/>
		</contour>
	</outline>
</glyph>
<glyph name="Lslash" format="2">
	<unicode hex="0141"/>
	<advance width="1250.4"/>
	<outline>
		<contour>
			<point x="764" y="1365.8" type="line"/>
			<point x="938.6" y="1408.6" type="line"/>
			<point x="944.8" y="1430" type="line"/>
			<point x="365" y="1430" type="line"/>
			<point x="358.8" y="1408.6" type="line"/>
			<point x="516.4" y="1366.6" type="line"/>
			<point x="118.8" y="64.2" type="line"/>
			<point x="-55.8" y="21.4" type="line"/>
			<point x="-62" y="0" type="line"/>
			<point x="347.6" y="0" type="line"/>
		</contour>
		<contour>
			<point x="791.4" y="41.4" type="line"/>
			<point x="877.8" y="60.4" type="line"/>
			<point x="205.8" y="60.4" type="line"/>
			<point x="184.4" y="0" type="line"/>
			<point x="808.2" y="0" type="line"/>
			<point x="937.6" y="-59.4" type="line"/>
			<point x="949.4" y="-59.4" type="line"/>
			<point x="1201.2" y="400.2" type="line"/>
			<point x="1177.2" y="417" type="line"/>
		</contour>
		<contour>
			<point x="948.4" y="958.6" type="line"/>
			<point x="503.6" y="740.8" type="line"/>
			<point x="380.4" y="720" type="line"/>
			<point x="114.6" y="590" type="line"/>
			<point x="90" y="507.6" type="line"/>
			<point x="355.6" y="637.6" type="line"/>
			<point x="479" y="659.2" type="line"/>
			<point x="924.4" y="877" type="line"/>
		</contour>
	</outline>
</glyph>
<glyph name="lslash" format="2">
  <advance width="669"/>
  <unicode hex="0142"/>
  <outline>
    <contour>
      <point x="73.2" y="583.0" type="line"/>
      <point x="45.4" y="491.2" type="line"/>
      <point x="314.40000000000003" y="667.0" type="line"/>
      <point x="373.4" y="658.6" type="line"/>
      <point x="674.4" y="856.1999999999999" type="line"/>
      <point x="703.0" y="948.0" type="line"/>
      <point x="401.2" y="750.4" type="line"/>
      <point x="342.20000000000005" y="758.8" type="line"/>
    </contour>
    <contour>
      <point x="444.8" y="1281.4" type="curve"/>
      <point x="70.6" y="113.0" type="line" smooth="yes"/>
      <point x="38.6" y="13.8"/>
      <point x="60.0" y="-22.0"/>
      <point x="159.20000000000002" y="-22.0" type="curve" smooth="yes"/>
      <point x="262.20000000000005" y="-22.0"/>
      <point x="407.59999999999997" y="81.2"/>
      <point x="579.1999999999999" y="332.59999999999997" type="curve"/>
      <point x="569.4" y="339.8" type="line"/>
      <point x="377.2" y="134.8"/>
      <point x="270.8" y="109.0"/>
      <point x="225.0" y="128.6" type="curve"/>
      <point x="266.6" y="87.2" type="line"/>
      <point x="715.2" y="1486.0" type="line"/>
      <point x="708.4" y="1486.0" type="line"/>
      <point x="296.0" y="1403.2" type="line"/>
      <point x="293.6" y="1391.8000000000002" type="line"/>
      <point x="350.59999999999997" y="1350.2052980132448"/>
      <point x="408.8" y="1307.6703380968977"/>
    </contour>
  </outline>
</glyph>
